<svg version="1.1" xmlns="http://www.w3.org/2000/svg" xmlns:xlink="http://www.w3.org/1999/xlink" width="451.03021" height="302.87221" viewBox="0,0,451.03021,302.87221"><g transform="translate(-14.5377,-28.5639)"><g data-paper-data="{&quot;isPaintingLayer&quot;:true}" fill-rule="nonzero" stroke-linejoin="miter" stroke-miterlimit="10" stroke-dasharray="" stroke-dashoffset="0" style="mix-blend-mode: normal"><path d="M15.5738,29.6h448.958v300.8h-448.958z" fill="#c9cdc4" stroke="#000000" stroke-width="2.0722" stroke-linecap="butt"/><path d="M17.3682,283.5057h446.4v45.6h-446.4z" fill="#a4a7a0" stroke="none" stroke-width="0.78048" stroke-linecap="butt"/><g><g><path d="M81.1089,36.85h116.8v216.8h-116.8z" fill="#b2b5ad" stroke="none" stroke-width="0.93924" stroke-linecap="butt"/><path d="M89.0682,41.6h102.4v202.4h-102.4z" fill="#eef5ff" stroke="none" stroke-width="1" stroke-linecap="butt"/><path d="M138.6682,40.85l-0.8,204" fill="none" stroke="#b2b5ad" stroke-width="2" stroke-linecap="round"/><path d="M81.8682,95.2h115.2v96h-115.2z" fill="none" stroke="#b2b5ad" stroke-width="2" stroke-linecap="butt"/></g><path d="M55.4182,32h45.6v241.6h-45.6z" fill="#d24940" stroke="none" stroke-width="1" stroke-linecap="butt"/><path d="M172.8682,32.35h45.6v241.6h-45.6z" fill="#d24940" stroke="none" stroke-width="1" stroke-linecap="butt"/><path d="M188.2182,42.4h4v228h-4z" fill="#ba4138" stroke="none" stroke-width="1" stroke-linecap="butt"/><path d="M203.0182,40.3h4v228h-4z" fill="#ba4138" stroke="none" stroke-width="1" stroke-linecap="butt"/><path d="M66.1682,40.55h4v228h-4z" fill="#ba4138" stroke="none" stroke-width="1" stroke-linecap="round"/><path d="M85.0182,39.4h4v228h-4z" fill="#ba4138" stroke="none" stroke-width="1" stroke-linecap="butt"/></g><path d="M271.9088,229.5937c0.8238,7.7888 5.8608,14.9491 5.8336,22.8173c-0.0337,8.3794 -6.2784,15.9873 -7.1446,24.4069c-0.3142,3.2099 6.069,6.7391 4.5163,7.9349c-2.3973,2.2622 -11.1119,2.6914 -12.4162,-1.0189c-3.3843,-9.7947 -0.113,-21.1726 0.2461,-31.1069c0.292,-8.1572 -1.5453,-17.0043 1.8139,-24.3471c1.4824,-3.273 8.4242,-1.8961 11.1096,-1.5443c0.8405,0.2968 -4.1765,0.8151 -3.9587,2.8581z" fill="#482d19" stroke="none" stroke-width="1" stroke-linecap="round"/><path d="M238.6189,228.2356c2.6854,-0.3518 9.6272,-1.7287 11.1096,1.5443c3.3592,7.3428 1.5219,16.1899 1.8139,24.3471c0.3591,9.9343 3.6304,21.3122 0.2461,31.1069c-1.3043,3.7103 -10.0189,3.2811 -12.4162,1.0189c-1.5527,-1.1958 4.8305,-4.725 4.5163,-7.9349c-0.8662,-8.4196 -7.1109,-16.0275 -7.1446,-24.4069c-0.0272,-7.8682 5.0098,-15.0285 5.8336,-22.8173c0.2178,-2.043 -4.7992,-2.5613 -3.9587,-2.8581z" fill="#482d19" stroke="none" stroke-width="1" stroke-linecap="round"/><g><g><path d="M323.1089,37.2h116.8v216.8h-116.8z" fill="#b2b5ad" stroke="none" stroke-width="0.93924" stroke-linecap="butt"/><path d="M331.1682,42h102.4v202.4h-102.4z" fill="#eef5ff" stroke="none" stroke-width="1" stroke-linecap="butt"/><path d="M379.9682,245.2l0.8,-204" fill="none" stroke="#b2b5ad" stroke-width="2" stroke-linecap="round"/><path d="M323.9682,95.6h115.2v96h-115.2z" fill="none" stroke="#b2b5ad" stroke-width="2" stroke-linecap="butt"/></g><path d="M297.5182,32.35h45.6v241.6h-45.6z" fill="#d24940" stroke="none" stroke-width="1" stroke-linecap="butt"/><path d="M414.9682,32.7h45.6v241.6h-45.6z" fill="#d24940" stroke="none" stroke-width="1" stroke-linecap="butt"/><path d="M430.3182,42.75h4v228h-4z" fill="#ba4138" stroke="none" stroke-width="1" stroke-linecap="butt"/><path d="M445.1182,40.65h4v228h-4z" fill="#ba4138" stroke="none" stroke-width="1" stroke-linecap="butt"/><path d="M308.2682,40.9h4v228h-4z" fill="#ba4138" stroke="none" stroke-width="1" stroke-linecap="round"/><path d="M327.1182,39.75h4v228h-4z" fill="#ba4138" stroke="none" stroke-width="1" stroke-linecap="butt"/></g><g stroke="none"><path d="M227.7189,241.8356c2.6854,-0.3518 9.6272,-1.7287 11.1096,1.5443c3.3592,7.3428 1.5219,16.1899 1.8139,24.3471c0.3591,9.9343 3.6304,21.3122 0.2461,31.1069c-1.3043,3.7103 -10.0189,3.2811 -12.4162,1.0189c-1.5527,-1.1958 4.8305,-4.725 4.5163,-7.9349c-0.8662,-8.4196 -7.1109,-16.0275 -7.1446,-24.4069c-0.0272,-7.8682 5.0098,-15.0285 5.8336,-22.8173c0.2178,-2.043 -4.7992,-2.5613 -3.9587,-2.8581z" fill="#6b4324" stroke-width="1" stroke-linecap="round"/><path d="M282.1588,244.9437c0.8238,7.7888 5.8608,14.9491 5.8336,22.8173c-0.0337,8.3794 -6.2784,15.9873 -7.1446,24.4069c-0.3142,3.2099 6.069,6.7391 4.5163,7.9349c-2.3973,2.2622 -11.1119,2.6914 -12.4162,-1.0189c-3.3843,-9.7947 -0.113,-21.1726 0.2461,-31.1069c0.292,-8.1572 -1.5453,-17.0043 1.8139,-24.3471c1.4824,-3.273 8.4242,-1.8961 11.1096,-1.5443c0.8405,0.2968 -4.1765,0.8151 -3.9587,2.8581z" fill="#6b4324" stroke-width="1" stroke-linecap="round"/><path d="M223.4182,221.785h68.8v12.8h-68.8z" fill="#6b4324" stroke-width="0.7127" stroke-linecap="butt"/><path d="M223.4182,224.8h68.8v24h-68.8z" fill="#ffffff" stroke-width="1" stroke-linecap="butt"/></g><path d="M228.4182,227.2h58v17.6h-58z" fill="#482d19" stroke="none" stroke-width="1" stroke-linecap="butt"/><path d="M257.2182,232.75c1.131,0 2.156,0.224 2.898,0.586c0.743,0.362 1.202,0.862 1.202,1.414c0,0.552 -0.459,1.052 -1.202,1.414c-0.742,0.362 -1.767,0.586 -2.898,0.586c-1.131,0 -2.156,-0.224 -2.898,-0.586c-0.743,-0.362 -1.202,-0.862 -1.202,-1.414c0,-0.552 0.459,-1.052 1.202,-1.414c0.742,-0.362 1.767,-0.586 2.898,-0.586z" fill="#debe7a" stroke="none" stroke-width="1" stroke-linecap="butt"/><path d="M252.8109,183.9229c2.5616,-1.6341 6.8796,-1.1936 9.5908,0.6154c3.9843,2.9772 7.9404,7.301 8.6867,12.4516c1.0068,6.9804 -4.2621,13.5986 -4.358,20.728c-0.0395,1.8856 5.8629,3.7686 3.727,4.2649c-8.2821,1.9115 -17.28,1.6503 -25.61,0.3585c-2.0857,-0.324 2.9875,-1.4517 2.8582,-3.3512c-0.5562,-7.6477 -6.4504,-14.5914 -5.4198,-22.0967c0.77,-5.6196 5.8408,-9.9768 10.5251,-12.9705z" fill="#ffffff" stroke="none" stroke-width="1" stroke-linecap="round"/><path d="M257.0682,184.3c1.655,0 3.155,0.213 4.242,0.557c1.086,0.344 1.758,0.819 1.758,1.343c0,0.524 -0.672,0.999 -1.758,1.343c-1.087,0.344 -2.587,0.557 -4.242,0.557c-1.655,0 -3.155,-0.213 -4.242,-0.557c-1.086,-0.344 -1.758,-0.819 -1.758,-1.343c0,-0.524 0.672,-0.999 1.758,-1.343c1.087,-0.344 2.587,-0.557 4.242,-0.557z" fill="#e5e5e5" stroke="none" stroke-width="1" stroke-linecap="butt"/><g><path d="M252.2145,186.2644l-9.0289,-30.1543" fill="none" stroke="#98dc43" stroke-width="2" stroke-linecap="round"/><g><path d="M246.3726,171.5918c0.452,0.3169 0.8097,0.6776 1.0235,1.0034c0.2131,0.3265 0.2817,0.6189 0.1548,0.7998c-0.1269,0.181 -0.4251,0.2161 -0.8047,0.127c-0.3791,-0.0899 -0.8402,-0.3032 -1.2921,-0.6201c-0.452,-0.3169 -0.8097,-0.6777 -1.0235,-1.0034c-0.2131,-0.3266 -0.2817,-0.6189 -0.1548,-0.7999c0.1268,-0.1809 0.4251,-0.2161 0.8047,-0.127c0.3791,0.0899 0.8402,0.3033 1.2921,0.6202z" fill="#424abf" stroke="none" stroke-width="1" stroke-linecap="butt"/><path d="M244.6726,166.2918c0.452,0.3169 0.8097,0.6776 1.0235,1.0034c0.2131,0.3265 0.2817,0.6189 0.1548,0.7998c-0.1269,0.181 -0.4251,0.2161 -0.8047,0.127c-0.3791,-0.0899 -0.8402,-0.3032 -1.2921,-0.6201c-0.452,-0.3169 -0.8097,-0.6777 -1.0235,-1.0034c-0.2131,-0.3266 -0.2817,-0.6189 -0.1548,-0.7999c0.1268,-0.1809 0.4251,-0.2161 0.8047,-0.127c0.3791,0.0899 0.8402,0.3033 1.2921,0.6202z" fill="#424abf" stroke="none" stroke-width="1" stroke-linecap="butt"/><path d="M242.9726,159.1418c0.452,0.3169 0.8097,0.6776 1.0235,1.0034c0.2131,0.3265 0.2817,0.6189 0.1548,0.7998c-0.1269,0.181 -0.4251,0.2161 -0.8047,0.127c-0.3791,-0.0899 -0.8402,-0.3032 -1.2921,-0.6201c-0.452,-0.3169 -0.8097,-0.6777 -1.0235,-1.0034c-0.2131,-0.3266 -0.2817,-0.6189 -0.1548,-0.7999c0.1268,-0.1809 0.4251,-0.2161 0.8047,-0.127c0.3791,0.0899 0.8402,0.3033 1.2921,0.6202z" fill="#424abf" stroke="none" stroke-width="1" stroke-linecap="butt"/><path d="M246.068,170.2391c0.2914,0.2338 0.5103,0.5021 0.629,0.747c0.1181,0.2446 0.1354,0.4652 0.024,0.6041c-0.1115,0.1389 -0.3307,0.1698 -0.595,0.1075c-0.2648,-0.0628 -0.5742,-0.2184 -0.8655,-0.4522c-0.2914,-0.2338 -0.5103,-0.5021 -0.6289,-0.747c-0.1182,-0.2445 -0.1355,-0.4652 -0.024,-0.6041c0.1114,-0.1389 0.3306,-0.1698 0.5949,-0.1075c0.2648,0.0628 0.5742,0.2184 0.8655,0.4522z" fill="#6b8edc" stroke="#5d7bbf" stroke-width="1.29033" stroke-linecap="butt"/><path d="M244.518,164.3391c0.2914,0.2338 0.5103,0.5021 0.629,0.747c0.1181,0.2446 0.1354,0.4652 0.024,0.6041c-0.1115,0.1389 -0.3307,0.1698 -0.595,0.1075c-0.2648,-0.0628 -0.5742,-0.2184 -0.8655,-0.4522c-0.2914,-0.2338 -0.5103,-0.5021 -0.6289,-0.747c-0.1182,-0.2445 -0.1355,-0.4652 -0.024,-0.6041c0.1114,-0.1389 0.3306,-0.1698 0.5949,-0.1075c0.2648,0.0628 0.5742,0.2184 0.8655,0.4522z" fill="#6b8edc" stroke="#5d7bbf" stroke-width="1.29033" stroke-linecap="butt"/><path d="M242.1254,156.6731c0.4516,0.3624 0.791,0.7783 0.9749,1.1579c0.1831,0.379 0.2099,0.7211 0.0372,0.9364c-0.1727,0.2152 -0.5125,0.2631 -0.9221,0.1665c-0.4105,-0.0973 -0.8901,-0.3385 -1.3416,-0.7009c-0.4516,-0.3623 -0.791,-0.7783 -0.9749,-1.1579c-0.1831,-0.379 -0.2099,-0.721 -0.0372,-0.9363c0.1727,-0.2153 0.5125,-0.2632 0.9221,-0.1665c0.4105,0.0973 0.8901,0.3385 1.3416,0.7008z" fill="#6b8edc" stroke="none" stroke-width="1" stroke-linecap="butt"/><path d="M244.2726,163.2418c0.452,0.3169 0.8097,0.6776 1.0235,1.0034c0.2131,0.3265 0.2817,0.6189 0.1548,0.7998c-0.1269,0.181 -0.4251,0.2161 -0.8047,0.127c-0.3791,-0.0899 -0.8402,-0.3032 -1.2921,-0.6201c-0.452,-0.3169 -0.8097,-0.6777 -1.0235,-1.0034c-0.2131,-0.3266 -0.2817,-0.6189 -0.1548,-0.7999c0.1268,-0.1809 0.4251,-0.2161 0.8047,-0.127c0.3791,0.0899 0.8402,0.3033 1.2921,0.6202z" fill="#424abf" stroke="none" stroke-width="1" stroke-linecap="butt"/><path d="M243.7754,161.1231c0.4516,0.3624 0.791,0.7783 0.9749,1.1579c0.1831,0.379 0.2099,0.7211 0.0372,0.9364c-0.1727,0.2152 -0.5125,0.2631 -0.9221,0.1665c-0.4105,-0.0973 -0.8901,-0.3385 -1.3416,-0.7009c-0.4516,-0.3623 -0.791,-0.7783 -0.9749,-1.1579c-0.1831,-0.379 -0.2099,-0.721 -0.0372,-0.9363c0.1727,-0.2153 0.5125,-0.2632 0.9221,-0.1665c0.4105,0.0973 0.8901,0.3385 1.3416,0.7008z" fill="#6b8edc" stroke="none" stroke-width="1" stroke-linecap="butt"/><path d="M245.4254,167.4731c0.4516,0.3624 0.791,0.7783 0.9749,1.1579c0.1831,0.379 0.2099,0.7211 0.0372,0.9364c-0.1727,0.2152 -0.5125,0.2631 -0.9221,0.1665c-0.4105,-0.0973 -0.8901,-0.3385 -1.3416,-0.7009c-0.4516,-0.3623 -0.791,-0.7783 -0.9749,-1.1579c-0.1831,-0.379 -0.2099,-0.721 -0.0372,-0.9363c0.1727,-0.2153 0.5125,-0.2632 0.9221,-0.1665c0.4105,0.0973 0.8901,0.3385 1.3416,0.7008z" fill="#6b8edc" stroke="none" stroke-width="1" stroke-linecap="round"/></g><g><path d="M244.5773,157.6094c-0.2788,0.2727 -0.5521,0.3969 -0.7544,0.3078c-0.2022,-0.0892 -0.2948,-0.3749 -0.2813,-0.7646c0.0143,-0.3893 0.1337,-0.8831 0.3565,-1.3882c0.2228,-0.5051 0.5069,-0.9262 0.7847,-1.1993c0.2788,-0.2727 0.5522,-0.3969 0.7544,-0.3078c0.2022,0.0892 0.2948,0.3749 0.2814,0.7646c-0.0144,0.3893 -0.1338,0.8831 -0.3566,1.3882c-0.2227,0.505 -0.5069,0.9262 -0.7847,1.1993z" fill="#424abf" stroke="none" stroke-width="1" stroke-linecap="butt"/><path d="M245.8773,163.0094c-0.2788,0.2727 -0.5521,0.3969 -0.7544,0.3078c-0.2022,-0.0892 -0.2948,-0.3749 -0.2813,-0.7646c0.0143,-0.3893 0.1337,-0.8831 0.3565,-1.3882c0.2228,-0.5051 0.5069,-0.9262 0.7847,-1.1993c0.2788,-0.2727 0.5522,-0.3969 0.7544,-0.3078c0.2022,0.0892 0.2948,0.3749 0.2814,0.7646c-0.0144,0.3893 -0.1338,0.8831 -0.3566,1.3882c-0.2227,0.505 -0.5069,0.9262 -0.7847,1.1993z" fill="#424abf" stroke="none" stroke-width="1" stroke-linecap="butt"/><path d="M248.0773,170.0094c-0.2788,0.2727 -0.5521,0.3969 -0.7544,0.3078c-0.2022,-0.0892 -0.2948,-0.3749 -0.2813,-0.7646c0.0143,-0.3893 0.1337,-0.8831 0.3565,-1.3882c0.2228,-0.5051 0.5069,-0.9262 0.7847,-1.1993c0.2788,-0.2727 0.5522,-0.3969 0.7544,-0.3078c0.2022,0.0892 0.2948,0.3749 0.2814,0.7646c-0.0144,0.3893 -0.1338,0.8831 -0.3566,1.3882c-0.2227,0.505 -0.5069,0.9262 -0.7847,1.1993z" fill="#424abf" stroke="none" stroke-width="1" stroke-linecap="butt"/><path d="M245.3027,158.5567c-0.1939,0.1901 -0.3974,0.2771 -0.5647,0.2159c-0.1672,-0.0612 -0.2666,-0.259 -0.292,-0.5293c-0.0252,-0.271 0.0233,-0.6139 0.1516,-0.9647c0.1283,-0.3508 0.3125,-0.6441 0.5067,-0.8348c0.1938,-0.1902 0.3974,-0.2771 0.5646,-0.216c0.1673,0.0612 0.2666,0.259 0.2921,0.5294c0.0252,0.2709 -0.0233,0.6138 -0.1516,0.9647c-0.1284,0.3508 -0.3126,0.644 -0.5067,0.8348z" fill="#6b8edc" stroke="#5d7bbf" stroke-width="1.29033" stroke-linecap="butt"/><path d="M247.0527,164.4067c-0.1939,0.1901 -0.3974,0.2771 -0.5647,0.2159c-0.1672,-0.0612 -0.2666,-0.259 -0.292,-0.5293c-0.0252,-0.271 0.0233,-0.6139 0.1516,-0.9647c0.1283,-0.3508 0.3125,-0.6441 0.5067,-0.8348c0.1938,-0.1902 0.3974,-0.2771 0.5646,-0.216c0.1673,0.0612 0.2666,0.259 0.2921,0.5294c0.0252,0.2709 -0.0233,0.6138 -0.1516,0.9647c-0.1284,0.3508 -0.3126,0.644 -0.5067,0.8348z" fill="#6b8edc" stroke="#5d7bbf" stroke-width="1.29033" stroke-linecap="butt"/><path d="M248.6542,172.6778c-0.3006,0.2947 -0.6161,0.4295 -0.8753,0.3347c-0.2592,-0.0948 -0.4132,-0.4014 -0.4527,-0.8205c-0.0391,-0.4199 0.0361,-0.9515 0.235,-1.4952c0.1989,-0.5438 0.4845,-0.9984 0.7854,-1.294c0.3005,-0.2947 0.616,-0.4295 0.8752,-0.3347c0.2592,0.0948 0.4133,0.4014 0.4527,0.8205c0.0391,0.42 -0.0361,0.9515 -0.235,1.4953c-0.1989,0.5437 -0.4845,0.9983 -0.7853,1.2939z" fill="#6b8edc" stroke="none" stroke-width="1" stroke-linecap="butt"/><path d="M247.0773,165.8094c-0.2788,0.2727 -0.5521,0.3969 -0.7544,0.3078c-0.2022,-0.0892 -0.2948,-0.3749 -0.2813,-0.7646c0.0143,-0.3893 0.1337,-0.8831 0.3565,-1.3882c0.2228,-0.5051 0.5069,-0.9262 0.7847,-1.1993c0.2788,-0.2727 0.5522,-0.3969 0.7544,-0.3078c0.2022,0.0892 0.2948,0.3749 0.2814,0.7646c-0.0144,0.3893 -0.1338,0.8831 -0.3566,1.3882c-0.2227,0.505 -0.5069,0.9262 -0.7847,1.1993z" fill="#424abf" stroke="none" stroke-width="1" stroke-linecap="butt"/><path d="M247.7542,167.9778c-0.3006,0.2947 -0.6161,0.4295 -0.8753,0.3347c-0.2592,-0.0948 -0.4132,-0.4014 -0.4527,-0.8205c-0.0391,-0.4199 0.0361,-0.9515 0.235,-1.4952c0.1989,-0.5438 0.4845,-0.9984 0.7854,-1.294c0.3005,-0.2947 0.616,-0.4295 0.8752,-0.3347c0.2592,0.0948 0.4133,0.4014 0.4527,0.8205c0.0391,0.42 -0.0361,0.9515 -0.235,1.4953c-0.1989,0.5437 -0.4845,0.9983 -0.7853,1.2939z" fill="#6b8edc" stroke="none" stroke-width="1" stroke-linecap="butt"/><path d="M245.9042,161.6778c-0.3006,0.2947 -0.6161,0.4295 -0.8753,0.3347c-0.2592,-0.0948 -0.4132,-0.4014 -0.4527,-0.8205c-0.0391,-0.4199 0.0361,-0.9515 0.235,-1.4952c0.1989,-0.5438 0.4845,-0.9984 0.7854,-1.294c0.3005,-0.2947 0.616,-0.4295 0.8752,-0.3347c0.2592,0.0948 0.4133,0.4014 0.4527,0.8205c0.0391,0.42 -0.0361,0.9515 -0.235,1.4953c-0.1989,0.5437 -0.4845,0.9983 -0.7853,1.2939z" fill="#6b8edc" stroke="none" stroke-width="1" stroke-linecap="round"/></g><path d="M242.4226,155.2918c0.452,0.3169 0.8097,0.6776 1.0235,1.0034c0.2131,0.3265 0.2817,0.6189 0.1548,0.7998c-0.1269,0.181 -0.4251,0.2161 -0.8047,0.127c-0.3791,-0.0899 -0.8402,-0.3032 -1.2921,-0.6201c-0.452,-0.3169 -0.8097,-0.6777 -1.0235,-1.0034c-0.2131,-0.3266 -0.2817,-0.6189 -0.1548,-0.7999c0.1268,-0.1809 0.4251,-0.2161 0.8047,-0.127c0.3791,0.0899 0.8402,0.3033 1.2921,0.6202z" fill="#424abf" stroke="none" stroke-width="1" stroke-linecap="butt"/><path d="M243.7018,155.3288c0.163,0.3361 0.2458,0.6724 0.248,0.9446c0.0019,0.2715 -0.0771,0.4783 -0.2373,0.556c-0.1602,0.0777 -0.3715,0.0116 -0.5835,-0.158c-0.2124,-0.1702 -0.4252,-0.4434 -0.5882,-0.7796c-0.163,-0.3361 -0.2457,-0.6724 -0.2479,-0.9445c-0.0019,-0.2715 0.077,-0.4783 0.2373,-0.556c0.1602,-0.0777 0.3715,-0.0117 0.5835,0.158c0.2123,0.1702 0.4251,0.4434 0.5881,0.7795z" fill="#6b8edc" stroke="#5d7bbf" stroke-width="1.29033" stroke-linecap="butt"/></g><g fill="none" stroke="#e3e3a6" stroke-width="1.2963" stroke-linecap="round"><path d="M239.7171,160.8156c0,0 1.9827,-0.0601 2.9577,0.0829c0.5145,0.0752 0.9922,0.3281 1.4557,0.5635c0.3959,0.2017 0.7461,0.4859 1.1098,0.7413c0.3953,0.2771 0.8153,0.5284 1.1691,0.8566c0.3919,0.3626 0.7619,0.7605 1.057,1.2057c0.3577,0.5398 0.6028,1.1484 0.889,1.7293c0.8397,1.7044 2.4923,5.132 2.4923,5.132"/><path d="M243.2901,164.0803l3.4027,-1.6033"/><path d="M240.494,162.8941c0,0 1.0593,-0.4345 1.6173,-0.5399c0.6462,-0.1223 1.9696,-0.1379 1.9696,-0.1379"/><path d="M242.9647,160.8953l-0.4774,-1.2122z"/><path d="M244.7102,161.4556c0.2209,-1.0901 0.3297,-1.627 0.3297,-1.627v0z"/></g><g><path d="M253.6069,186.9861l-0.5015,-20.8762" fill="none" stroke="#98dc43" stroke-width="1.69559" stroke-linecap="round"/><g><path d="M251.9507,176.6999c0.3474,0.2595 0.5927,0.5372 0.7094,0.7758c0.116,0.239 0.1027,0.4393 -0.0677,0.5442c-0.1705,0.105 -0.4657,0.0947 -0.8054,-0.0066c-0.3389,-0.1018 -0.723,-0.2941 -1.0704,-0.5535c-0.3474,-0.2595 -0.5926,-0.5373 -0.7094,-0.7758c-0.116,-0.239 -0.1027,-0.4393 0.0678,-0.5443c0.1705,-0.1049 0.4657,-0.0946 0.8054,0.0067c0.3389,0.1017 0.7229,0.294 1.0703,0.5535z" fill="#424abf" stroke="none" stroke-width="0.81428" stroke-linecap="butt"/><path d="M251.8007,172.9999c0.3474,0.2595 0.5927,0.5372 0.7094,0.7758c0.116,0.239 0.1027,0.4393 -0.0677,0.5442c-0.1705,0.105 -0.4657,0.0947 -0.8054,-0.0066c-0.3389,-0.1018 -0.723,-0.2941 -1.0704,-0.5535c-0.3474,-0.2595 -0.5926,-0.5373 -0.7094,-0.7758c-0.116,-0.239 -0.1027,-0.4393 0.0678,-0.5443c0.1705,-0.1049 0.4657,-0.0946 0.8054,0.0067c0.3389,0.1017 0.7229,0.294 1.0703,0.5535z" fill="#424abf" stroke="none" stroke-width="0.81428" stroke-linecap="butt"/><path d="M252.0507,168.0999c0.3474,0.2595 0.5927,0.5372 0.7094,0.7758c0.116,0.239 0.1027,0.4393 -0.0677,0.5442c-0.1705,0.105 -0.4657,0.0947 -0.8054,-0.0066c-0.3389,-0.1018 -0.723,-0.2941 -1.0704,-0.5535c-0.3474,-0.2595 -0.5926,-0.5373 -0.7094,-0.7758c-0.116,-0.239 -0.1027,-0.4393 0.0678,-0.5443c0.1705,-0.1049 0.4657,-0.0946 0.8054,0.0067c0.3389,0.1017 0.7229,0.294 1.0703,0.5535z" fill="#424abf" stroke="none" stroke-width="0.81428" stroke-linecap="butt"/><path d="M252.0617,175.7209c0.216,0.1867 0.3533,0.3881 0.4008,0.5627c0.0471,0.1743 0.004,0.3216 -0.1403,0.4006c-0.1443,0.079 -0.3627,0.0747 -0.599,0.004c-0.2368,-0.071 -0.4912,-0.2083 -0.7071,-0.395c-0.216,-0.1867 -0.3533,-0.388 -0.4008,-0.5626c-0.0471,-0.1743 -0.004,-0.3217 0.1403,-0.4006c0.1443,-0.079 0.3627,-0.0748 0.599,-0.004c0.2368,0.071 0.4912,0.2082 0.7071,0.3949z" fill="#6b8edc" stroke="#5d7bbf" stroke-width="1.05348" stroke-linecap="butt"/><path d="M252.2117,171.6709c0.216,0.1867 0.3533,0.3881 0.4008,0.5627c0.0471,0.1743 0.004,0.3216 -0.1403,0.4006c-0.1443,0.079 -0.3627,0.0747 -0.599,0.004c-0.2368,-0.071 -0.4912,-0.2083 -0.7071,-0.395c-0.216,-0.1867 -0.3533,-0.388 -0.4008,-0.5626c-0.0471,-0.1743 -0.004,-0.3217 0.1403,-0.4006c0.1443,-0.079 0.3627,-0.0748 0.599,-0.004c0.2368,0.071 0.4912,0.2082 0.7071,0.3949z" fill="#6b8edc" stroke="#5d7bbf" stroke-width="1.05348" stroke-linecap="butt"/><path d="M251.8982,166.385c0.3348,0.2893 0.5475,0.6014 0.6211,0.8721c0.073,0.2702 0.0063,0.4985 -0.2174,0.6209c-0.2237,0.1225 -0.5621,0.1159 -0.9285,0.0062c-0.367,-0.1101 -0.7613,-0.3228 -1.096,-0.6122c-0.3348,-0.2893 -0.5475,-0.6014 -0.6211,-0.8721c-0.073,-0.2702 -0.0063,-0.4985 0.2174,-0.6209c0.2237,-0.1224 0.5621,-0.1159 0.9285,-0.0062c0.367,0.1101 0.7613,0.3228 1.096,0.6122z" fill="#6b8edc" stroke="none" stroke-width="0.81645" stroke-linecap="butt"/><path d="M252.2507,170.9499c0.3474,0.2595 0.5927,0.5372 0.7094,0.7758c0.116,0.239 0.1027,0.4393 -0.0677,0.5442c-0.1705,0.105 -0.4657,0.0947 -0.8054,-0.0066c-0.3389,-0.1018 -0.723,-0.2941 -1.0704,-0.5535c-0.3474,-0.2595 -0.5926,-0.5373 -0.7094,-0.7758c-0.116,-0.239 -0.1027,-0.4393 0.0678,-0.5443c0.1705,-0.1049 0.4657,-0.0946 0.8054,0.0067c0.3389,0.1017 0.7229,0.294 1.0703,0.5535z" fill="#424abf" stroke="none" stroke-width="0.81428" stroke-linecap="butt"/><path d="M252.3482,169.485c0.3348,0.2893 0.5475,0.6014 0.6211,0.8721c0.073,0.2702 0.0063,0.4985 -0.2174,0.6209c-0.2237,0.1225 -0.5621,0.1159 -0.9285,0.0062c-0.367,-0.1101 -0.7613,-0.3228 -1.096,-0.6122c-0.3348,-0.2893 -0.5475,-0.6014 -0.6211,-0.8721c-0.073,-0.2702 -0.0063,-0.4985 0.2174,-0.6209c0.2237,-0.1224 0.5621,-0.1159 0.9285,-0.0062c0.367,0.1101 0.7613,0.3228 1.096,0.6122z" fill="#6b8edc" stroke="none" stroke-width="0.81645" stroke-linecap="butt"/><path d="M252.1982,173.885c0.3348,0.2893 0.5475,0.6014 0.6211,0.8721c0.073,0.2702 0.0063,0.4985 -0.2174,0.6209c-0.2237,0.1225 -0.5621,0.1159 -0.9285,0.0062c-0.367,-0.1101 -0.7613,-0.3228 -1.096,-0.6122c-0.3348,-0.2893 -0.5475,-0.6014 -0.6211,-0.8721c-0.073,-0.2702 -0.0063,-0.4985 0.2174,-0.6209c0.2237,-0.1224 0.5621,-0.1159 0.9285,-0.0062c0.367,0.1101 0.7613,0.3228 1.096,0.6122z" fill="#6b8edc" stroke="none" stroke-width="0.81645" stroke-linecap="round"/></g><g><path d="M253.9915,167.2293c-0.3408,0.1483 -0.6363,0.1995 -0.806,0.118c-0.1696,-0.0814 -0.1811,-0.28 -0.0629,-0.5352c0.1189,-0.2548 0.3668,-0.5667 0.7167,-0.8744c0.3499,-0.3077 0.736,-0.5532 1.076,-0.7019c0.3408,-0.1483 0.6363,-0.1995 0.8059,-0.1181c0.1697,0.0815 0.1812,0.28 0.063,0.5352c-0.119,0.2549 -0.3668,0.5668 -0.7168,0.8744c-0.3499,0.3077 -0.7359,0.5533 -1.0759,0.702z" fill="#424abf" stroke="none" stroke-width="0.81442" stroke-linecap="butt"/><path d="M253.7915,170.9293c-0.3408,0.1483 -0.6363,0.1995 -0.806,0.118c-0.1696,-0.0814 -0.1811,-0.28 -0.0629,-0.5352c0.1189,-0.2548 0.3668,-0.5667 0.7167,-0.8744c0.3499,-0.3077 0.736,-0.5532 1.076,-0.7019c0.3408,-0.1483 0.6363,-0.1995 0.8059,-0.1181c0.1697,0.0815 0.1812,0.28 0.063,0.5352c-0.119,0.2549 -0.3668,0.5668 -0.7168,0.8744c-0.3499,0.3077 -0.7359,0.5533 -1.0759,0.702z" fill="#424abf" stroke="none" stroke-width="0.81442" stroke-linecap="butt"/><path d="M254.0415,175.8293c-0.3408,0.1483 -0.6363,0.1995 -0.806,0.118c-0.1696,-0.0814 -0.1811,-0.28 -0.0629,-0.5352c0.1189,-0.2548 0.3668,-0.5667 0.7167,-0.8744c0.3499,-0.3077 0.736,-0.5532 1.076,-0.7019c0.3408,-0.1483 0.6363,-0.1995 0.8059,-0.1181c0.1697,0.0815 0.1812,0.28 0.063,0.5352c-0.119,0.2549 -0.3668,0.5668 -0.7168,0.8744c-0.3499,0.3077 -0.7359,0.5533 -1.0759,0.702z" fill="#424abf" stroke="none" stroke-width="0.81442" stroke-linecap="butt"/><path d="M254.434,167.962c-0.2371,0.1035 -0.4557,0.138 -0.5994,0.0789c-0.1436,-0.0591 -0.1854,-0.2005 -0.1367,-0.3815c0.049,-0.1813 0.1882,-0.4017 0.4059,-0.6184c0.2178,-0.2167 0.4736,-0.3892 0.7111,-0.493c0.2371,-0.1035 0.4557,-0.138 0.5994,-0.0789c0.1437,0.0591 0.1854,0.2005 0.1367,0.3814c-0.049,0.1814 -0.1882,0.4018 -0.4059,0.6185c-0.2178,0.2167 -0.4735,0.3892 -0.7111,0.493z" fill="#6b8edc" stroke="#5d7bbf" stroke-width="1.04955" stroke-linecap="butt"/><path d="M254.534,172.012c-0.2371,0.1035 -0.4557,0.138 -0.5994,0.0789c-0.1436,-0.0591 -0.1854,-0.2005 -0.1367,-0.3815c0.049,-0.1813 0.1882,-0.4017 0.4059,-0.6184c0.2178,-0.2167 0.4736,-0.3892 0.7111,-0.493c0.2371,-0.1035 0.4557,-0.138 0.5994,-0.0789c0.1437,0.0591 0.1854,0.2005 0.1367,0.3814c-0.049,0.1814 -0.1882,0.4018 -0.4059,0.6185c-0.2178,0.2167 -0.4735,0.3892 -0.7111,0.493z" fill="#6b8edc" stroke="#5d7bbf" stroke-width="1.04955" stroke-linecap="butt"/><path d="M253.8627,177.6311c-0.3676,0.1604 -0.7063,0.2138 -0.929,0.1223c-0.2227,-0.0916 -0.2875,-0.3108 -0.212,-0.5913c0.076,-0.281 0.2917,-0.6227 0.6292,-0.9586c0.3376,-0.3358 0.734,-0.6032 1.1022,-0.7642c0.3675,-0.1604 0.7063,-0.2138 0.929,-0.1222c0.2227,0.0915 0.2875,0.3108 0.212,0.5912c-0.076,0.2811 -0.2917,0.6228 -0.6292,0.9586c-0.3376,0.3359 -0.734,0.6033 -1.1022,0.7642z" fill="#6b8edc" stroke="none" stroke-width="0.8134" stroke-linecap="butt"/><path d="M254.2415,172.9293c-0.3408,0.1483 -0.6363,0.1995 -0.806,0.118c-0.1696,-0.0814 -0.1811,-0.28 -0.0629,-0.5352c0.1189,-0.2548 0.3668,-0.5667 0.7167,-0.8744c0.3499,-0.3077 0.736,-0.5532 1.076,-0.7019c0.3408,-0.1483 0.6363,-0.1995 0.8059,-0.1181c0.1697,0.0815 0.1812,0.28 0.063,0.5352c-0.119,0.2549 -0.3668,0.5668 -0.7168,0.8744c-0.3499,0.3077 -0.7359,0.5533 -1.0759,0.702z" fill="#424abf" stroke="none" stroke-width="0.81442" stroke-linecap="butt"/><path d="M254.2627,174.4311c-0.3676,0.1604 -0.7063,0.2138 -0.929,0.1223c-0.2227,-0.0916 -0.2875,-0.3108 -0.212,-0.5913c0.076,-0.281 0.2917,-0.6227 0.6292,-0.9586c0.3376,-0.3358 0.734,-0.6032 1.1022,-0.7642c0.3675,-0.1604 0.7063,-0.2138 0.929,-0.1222c0.2227,0.0915 0.2875,0.3108 0.212,0.5912c-0.076,0.2811 -0.2917,0.6228 -0.6292,0.9586c-0.3376,0.3359 -0.734,0.6033 -1.1022,0.7642z" fill="#6b8edc" stroke="none" stroke-width="0.8134" stroke-linecap="butt"/><path d="M254.1627,170.0811c-0.3676,0.1604 -0.7063,0.2138 -0.929,0.1223c-0.2227,-0.0916 -0.2875,-0.3108 -0.212,-0.5913c0.076,-0.281 0.2917,-0.6227 0.6292,-0.9586c0.3376,-0.3358 0.734,-0.6032 1.1022,-0.7642c0.3675,-0.1604 0.7063,-0.2138 0.929,-0.1222c0.2227,0.0915 0.2875,0.3108 0.212,0.5912c-0.076,0.2811 -0.2917,0.6228 -0.6292,0.9586c-0.3376,0.3359 -0.734,0.6033 -1.1022,0.7642z" fill="#6b8edc" stroke="none" stroke-width="0.8134" stroke-linecap="round"/></g><path d="M252.6007,165.4999c0.3474,0.2595 0.5927,0.5372 0.7094,0.7758c0.116,0.239 0.1027,0.4393 -0.0677,0.5442c-0.1705,0.105 -0.4657,0.0947 -0.8054,-0.0066c-0.3389,-0.1018 -0.723,-0.2941 -1.0704,-0.5535c-0.3474,-0.2595 -0.5926,-0.5373 -0.7094,-0.7758c-0.116,-0.239 -0.1027,-0.4393 0.0678,-0.5443c0.1705,-0.1049 0.4657,-0.0946 0.8054,0.0067c0.3389,0.1017 0.7229,0.294 1.0703,0.5535z" fill="#424abf" stroke="none" stroke-width="0.81428" stroke-linecap="butt"/><path d="M253.7903,165.617c0.0653,0.2397 0.0538,0.4705 -0.0177,0.65c-0.0715,0.1791 -0.2031,0.3064 -0.3776,0.3396c-0.1745,0.0332 -0.3591,-0.034 -0.5164,-0.1695c-0.1574,-0.136 -0.2875,-0.3398 -0.3528,-0.5795c-0.0654,-0.2397 -0.0538,-0.4705 0.0177,-0.65c0.0715,-0.1791 0.2031,-0.3065 0.3776,-0.3397c0.1745,-0.0332 0.3591,0.0341 0.5164,0.1696c0.1574,0.1359 0.2875,0.3398 0.3528,0.5795z" fill="#6b8edc" stroke="#5d7bbf" stroke-width="1.09163" stroke-linecap="butt"/></g><g><path d="M261.423,186.3527l10.8441,-29.5501" fill="none" stroke="#98dc43" stroke-width="2" stroke-linecap="round"/><g><path d="M265.5423,171.1187c0.1719,0.5245 0.2421,1.0277 0.218,1.4165c-0.0251,0.3892 -0.1454,0.6643 -0.3554,0.7331c-0.21,0.0689 -0.4698,-0.0817 -0.7204,-0.3806c-0.2495,-0.2992 -0.4907,-0.7463 -0.6626,-1.2708c-0.1719,-0.5246 -0.2421,-1.0277 -0.218,-1.4166c0.0251,-0.3891 0.1454,-0.6643 0.3554,-0.7331c0.21,-0.0688 0.4699,0.0818 0.7204,0.3806c0.2495,0.2992 0.4907,0.7463 0.6626,1.2709z" fill="#424abf" stroke="none" stroke-width="1" stroke-linecap="butt"/><path d="M267.3923,165.8687c0.1719,0.5245 0.2421,1.0277 0.218,1.4165c-0.0251,0.3892 -0.1454,0.6643 -0.3554,0.7331c-0.21,0.0689 -0.4698,-0.0817 -0.7204,-0.3806c-0.2495,-0.2992 -0.4907,-0.7463 -0.6626,-1.2708c-0.1719,-0.5246 -0.2421,-1.0277 -0.218,-1.4166c0.0251,-0.3891 0.1454,-0.6643 0.3554,-0.7331c0.21,-0.0688 0.4699,0.0818 0.7204,0.3806c0.2495,0.2992 0.4907,0.7463 0.6626,1.2709z" fill="#424abf" stroke="none" stroke-width="1" stroke-linecap="butt"/><path d="M270.2423,159.1187c0.1719,0.5245 0.2421,1.0277 0.218,1.4165c-0.0251,0.3892 -0.1454,0.6643 -0.3554,0.7331c-0.21,0.0689 -0.4698,-0.0817 -0.7204,-0.3806c-0.2495,-0.2992 -0.4907,-0.7463 -0.6626,-1.2708c-0.1719,-0.5246 -0.2421,-1.0277 -0.218,-1.4166c0.0251,-0.3891 0.1454,-0.6643 0.3554,-0.7331c0.21,-0.0688 0.4699,0.0818 0.7204,0.3806c0.2495,0.2992 0.4907,0.7463 0.6626,1.2709z" fill="#424abf" stroke="none" stroke-width="1" stroke-linecap="butt"/><path d="M266.1086,169.8329c0.0931,0.3617 0.1075,0.7078 0.0557,0.9749c-0.0519,0.2666 -0.1703,0.4536 -0.3428,0.498c-0.1724,0.0444 -0.3664,-0.0622 -0.5406,-0.2706c-0.1744,-0.2089 -0.3288,-0.5189 -0.4219,-0.8807c-0.0931,-0.3617 -0.1076,-0.7077 -0.0558,-0.9749c0.052,-0.2665 0.1704,-0.4536 0.3428,-0.498c0.1725,-0.0443 0.3665,0.0623 0.5407,0.2706c0.1743,0.2089 0.3287,0.5189 0.4219,0.8807z" fill="#6b8edc" stroke="#5d7bbf" stroke-width="1.29032" stroke-linecap="butt"/><path d="M268.4586,164.2329c0.0931,0.3617 0.1075,0.7078 0.0557,0.9749c-0.0519,0.2666 -0.1703,0.4536 -0.3428,0.498c-0.1724,0.0444 -0.3664,-0.0622 -0.5406,-0.2706c-0.1744,-0.2089 -0.3288,-0.5189 -0.4219,-0.8807c-0.0931,-0.3617 -0.1076,-0.7077 -0.0558,-0.9749c0.052,-0.2665 0.1704,-0.4536 0.3428,-0.498c0.1725,-0.0443 0.3665,0.0623 0.5407,0.2706c0.1743,0.2089 0.3287,0.5189 0.4219,0.8807z" fill="#6b8edc" stroke="#5d7bbf" stroke-width="1.29032" stroke-linecap="butt"/><path d="M271.0632,156.6335c0.1444,0.5607 0.1668,1.0971 0.0865,1.5112c-0.0806,0.4131 -0.2641,0.703 -0.5314,0.7718c-0.2673,0.0688 -0.568,-0.0965 -0.838,-0.4194c-0.2703,-0.3238 -0.5096,-0.8043 -0.6539,-1.365c-0.1444,-0.5608 -0.1668,-1.0971 -0.0865,-1.5112c0.0806,-0.4131 0.2641,-0.703 0.5314,-0.7718c0.2673,-0.0688 0.568,0.0964 0.838,0.4193c0.2703,0.3239 0.5096,0.8044 0.6539,1.3651z" fill="#6b8edc" stroke="none" stroke-width="1" stroke-linecap="butt"/><path d="M268.8923,163.1687c0.1719,0.5245 0.2421,1.0277 0.218,1.4165c-0.0251,0.3892 -0.1454,0.6643 -0.3554,0.7331c-0.21,0.0689 -0.4698,-0.0817 -0.7204,-0.3806c-0.2495,-0.2992 -0.4907,-0.7463 -0.6626,-1.2708c-0.1719,-0.5246 -0.2421,-1.0277 -0.218,-1.4166c0.0251,-0.3891 0.1454,-0.6643 0.3554,-0.7331c0.21,-0.0688 0.4699,0.0818 0.7204,0.3806c0.2495,0.2992 0.4907,0.7463 0.6626,1.2709z" fill="#424abf" stroke="none" stroke-width="1" stroke-linecap="butt"/><path d="M269.7632,161.1835c0.1444,0.5607 0.1668,1.0971 0.0865,1.5112c-0.0806,0.4131 -0.2641,0.703 -0.5314,0.7718c-0.2673,0.0688 -0.568,-0.0965 -0.838,-0.4194c-0.2703,-0.3238 -0.5096,-0.8043 -0.6539,-1.365c-0.1444,-0.5608 -0.1668,-1.0971 -0.0865,-1.5112c0.0806,-0.4131 0.2641,-0.703 0.5314,-0.7718c0.2673,-0.0688 0.568,0.0964 0.838,0.4193c0.2703,0.3239 0.5096,0.8044 0.6539,1.3651z" fill="#6b8edc" stroke="none" stroke-width="1" stroke-linecap="butt"/><path d="M267.2632,167.2835c0.1444,0.5607 0.1668,1.0971 0.0865,1.5112c-0.0806,0.4131 -0.2641,0.703 -0.5314,0.7718c-0.2673,0.0688 -0.568,-0.0965 -0.838,-0.4194c-0.2703,-0.3238 -0.5096,-0.8043 -0.6539,-1.365c-0.1444,-0.5608 -0.1668,-1.0971 -0.0865,-1.5112c0.0806,-0.4131 0.2641,-0.703 0.5314,-0.7718c0.2673,-0.0688 0.568,0.0964 0.838,0.4193c0.2703,0.3239 0.5096,0.8044 0.6539,1.3651z" fill="#6b8edc" stroke="none" stroke-width="1" stroke-linecap="round"/></g><g><path d="M272.442,158.8395c-0.3866,0.0513 -0.6799,-0.0131 -0.7883,-0.2057c-0.1084,-0.1926 -0.0113,-0.4768 0.233,-0.7807c0.2448,-0.3031 0.6363,-0.6268 1.1173,-0.8976c0.481,-0.2708 0.9609,-0.4376 1.347,-0.4897c0.3866,-0.0513 0.6799,0.0131 0.7883,0.2057c0.1084,0.1926 0.0113,0.4767 -0.233,0.7807c-0.2448,0.303 -0.6363,0.6268 -1.1173,0.8976c-0.4811,0.2708 -0.9609,0.4376 -1.347,0.4897z" fill="#424abf" stroke="none" stroke-width="1" stroke-linecap="butt"/><path d="M270.242,163.9395c-0.3866,0.0513 -0.6799,-0.0131 -0.7883,-0.2057c-0.1084,-0.1926 -0.0113,-0.4768 0.233,-0.7807c0.2448,-0.3031 0.6363,-0.6268 1.1173,-0.8976c0.481,-0.2708 0.9609,-0.4376 1.347,-0.4897c0.3866,-0.0513 0.6799,0.0131 0.7883,0.2057c0.1084,0.1926 0.0113,0.4767 -0.233,0.7807c-0.2448,0.303 -0.6363,0.6268 -1.1173,0.8976c-0.4811,0.2708 -0.9609,0.4376 -1.347,0.4897z" fill="#424abf" stroke="none" stroke-width="1" stroke-linecap="butt"/><path d="M267.842,170.8895c-0.3866,0.0513 -0.6799,-0.0131 -0.7883,-0.2057c-0.1084,-0.1926 -0.0113,-0.4768 0.233,-0.7807c0.2448,-0.3031 0.6363,-0.6268 1.1173,-0.8976c0.481,-0.2708 0.9609,-0.4376 1.347,-0.4897c0.3866,-0.0513 0.6799,0.0131 0.7883,0.2057c0.1084,0.1926 0.0113,0.4767 -0.233,0.7807c-0.2448,0.303 -0.6363,0.6268 -1.1173,0.8976c-0.4811,0.2708 -0.9609,0.4376 -1.347,0.4897z" fill="#424abf" stroke="none" stroke-width="1" stroke-linecap="butt"/><path d="M272.4367,160.0687c-0.2691,0.036 -0.4842,-0.0163 -0.5814,-0.1655c-0.0972,-0.1492 -0.0582,-0.3671 0.0834,-0.5988c0.1422,-0.232 0.3866,-0.4775 0.6996,-0.6814c0.3129,-0.2039 0.6362,-0.3283 0.9059,-0.3646c0.2691,-0.036 0.4842,0.0164 0.5814,0.1656c0.0972,0.1491 0.0582,0.3671 -0.0834,0.5987c-0.1422,0.232 -0.3866,0.4775 -0.6996,0.6814c-0.3129,0.2039 -0.6362,0.3283 -0.9059,0.3646z" fill="#6b8edc" stroke="#5d7bbf" stroke-width="1.29033" stroke-linecap="butt"/><path d="M270.3367,165.7687c-0.2691,0.036 -0.4842,-0.0163 -0.5814,-0.1655c-0.0972,-0.1492 -0.0582,-0.3671 0.0834,-0.5988c0.1422,-0.232 0.3866,-0.4775 0.6996,-0.6814c0.3129,-0.2039 0.6362,-0.3283 0.9059,-0.3646c0.2691,-0.036 0.4842,0.0164 0.5814,0.1656c0.0972,0.1491 0.0582,0.3671 -0.0834,0.5987c-0.1422,0.232 -0.3866,0.4775 -0.6996,0.6814c-0.3129,0.2039 -0.6362,0.3283 -0.9059,0.3646z" fill="#6b8edc" stroke="#5d7bbf" stroke-width="1.29033" stroke-linecap="butt"/><path d="M266.6669,173.319c-0.4172,0.0558 -0.7505,-0.0254 -0.9012,-0.2566c-0.1507,-0.2313 -0.0902,-0.569 0.1293,-0.9281c0.2204,-0.3596 0.5992,-0.7401 1.0843,-1.0562c0.4851,-0.316 0.9861,-0.5088 1.4042,-0.5651c0.4171,-0.0558 0.7505,0.0254 0.9012,0.2566c0.1506,0.2313 0.0902,0.569 -0.1293,0.9281c-0.2205,0.3596 -0.5992,0.7401 -1.0843,1.0561c-0.4851,0.3161 -0.9861,0.5089 -1.4042,0.5652z" fill="#6b8edc" stroke="none" stroke-width="1" stroke-linecap="butt"/><path d="M269.542,166.9395c-0.3866,0.0513 -0.6799,-0.0131 -0.7883,-0.2057c-0.1084,-0.1926 -0.0113,-0.4768 0.233,-0.7807c0.2448,-0.3031 0.6363,-0.6268 1.1173,-0.8976c0.481,-0.2708 0.9609,-0.4376 1.347,-0.4897c0.3866,-0.0513 0.6799,0.0131 0.7883,0.2057c0.1084,0.1926 0.0113,0.4767 -0.233,0.7807c-0.2448,0.303 -0.6363,0.6268 -1.1173,0.8976c-0.4811,0.2708 -0.9609,0.4376 -1.347,0.4897z" fill="#424abf" stroke="none" stroke-width="1" stroke-linecap="butt"/><path d="M268.7669,169.069c-0.4172,0.0558 -0.7505,-0.0254 -0.9012,-0.2566c-0.1507,-0.2313 -0.0902,-0.569 0.1293,-0.9281c0.2204,-0.3596 0.5992,-0.7401 1.0843,-1.0562c0.4851,-0.316 0.9861,-0.5088 1.4042,-0.5651c0.4171,-0.0558 0.7505,0.0254 0.9012,0.2566c0.1506,0.2313 0.0902,0.569 -0.1293,0.9281c-0.2205,0.3596 -0.5992,0.7401 -1.0843,1.0561c-0.4851,0.3161 -0.9861,0.5089 -1.4042,0.5652z" fill="#6b8edc" stroke="none" stroke-width="1" stroke-linecap="butt"/><path d="M271.0669,162.919c-0.4172,0.0558 -0.7505,-0.0254 -0.9012,-0.2566c-0.1507,-0.2313 -0.0902,-0.569 0.1293,-0.9281c0.2204,-0.3596 0.5992,-0.7401 1.0843,-1.0562c0.4851,-0.316 0.9861,-0.5088 1.4042,-0.5651c0.4171,-0.0558 0.7505,0.0254 0.9012,0.2566c0.1506,0.2313 0.0902,0.569 -0.1293,0.9281c-0.2205,0.3596 -0.5992,0.7401 -1.0843,1.0561c-0.4851,0.3161 -0.9861,0.5089 -1.4042,0.5652z" fill="#6b8edc" stroke="none" stroke-width="1" stroke-linecap="round"/></g><path d="M272.1423,155.7187c0.1719,0.5245 0.2421,1.0277 0.218,1.4165c-0.0251,0.3892 -0.1454,0.6643 -0.3554,0.7331c-0.21,0.0689 -0.4698,-0.0817 -0.7204,-0.3806c-0.2495,-0.2992 -0.4907,-0.7463 -0.6626,-1.2708c-0.1719,-0.5246 -0.2421,-1.0277 -0.218,-1.4166c0.0251,-0.3891 0.1454,-0.6643 0.3554,-0.7331c0.21,-0.0688 0.4699,0.0818 0.7204,0.3806c0.2495,0.2992 0.4907,0.7463 0.6626,1.2709z" fill="#424abf" stroke="none" stroke-width="1" stroke-linecap="butt"/><path d="M273.1385,156.4511c-0.0709,0.3667 -0.2062,0.6855 -0.3675,0.9047c-0.1613,0.2185 -0.3484,0.3367 -0.5232,0.3029c-0.1749,-0.0339 -0.3044,-0.2133 -0.3725,-0.4762c-0.068,-0.2635 -0.0746,-0.6098 -0.0036,-0.9766c0.071,-0.3667 0.2062,-0.6855 0.3676,-0.9047c0.1612,-0.2185 0.3484,-0.3367 0.5232,-0.3029c0.1748,0.0339 0.3044,0.2133 0.3724,0.4762c0.068,0.2635 0.0746,0.6098 0.0036,0.9766z" fill="#6b8edc" stroke="#5d7bbf" stroke-width="1.29033" stroke-linecap="butt"/></g><g><path d="M260.9181,166.3772l-5.1078,20.0792" fill="none" stroke="#72db43" stroke-width="1.40918" stroke-linecap="round"/><path d="M264.0959,164.8829c0.1266,0.3844 0.0626,0.7918 -0.1425,1.1391c-0.2052,0.3474 -0.552,0.6349 -0.9916,0.7797c-0.4396,0.1448 -0.8894,0.1197 -1.2608,-0.0378c-0.3715,-0.1575 -0.665,-0.4472 -0.7916,-0.8315c-0.1266,-0.3844 -0.0626,-0.7918 0.1425,-1.1392c0.2052,-0.3473 0.552,-0.6349 0.9916,-0.7796c0.4397,-0.1448 0.8895,-0.1197 1.2609,0.0378c0.3714,0.1575 0.6649,0.4471 0.7915,0.8315z" fill="#ffd39a" stroke="none" stroke-width="0.5242" stroke-linecap="butt"/><path d="M258.4772,168.6348c0.4483,0.4218 0.7643,0.8568 0.8592,1.3886c0.1073,0.6274 0.0889,1.6102 -0.3624,2.166c-0.2429,0.1819 -0.6638,-0.5138 -1.0343,-0.6815c-0.4884,-0.2243 -0.9901,-0.3513 -1.4383,-0.7731c-0.4483,-0.4217 -0.5105,-0.9723 -0.8592,-1.3886c-0.1956,-0.233 -0.98,-0.3409 -0.8034,-0.5763c0.521,-0.5061 1.419,-0.8669 2.2001,-0.9082c0.5426,-0.0286 0.9901,0.3514 1.4383,0.7731z" fill="#63bf3a" stroke="none" stroke-width="0.34326" stroke-linecap="round"/><path d="M262.4146,163.0756c0.2896,0.8793 0.2338,1.7807 -0.0901,2.5264c-0.3233,0.7462 -1.036,1.1978 -1.6984,1.5947c-0.2152,0.1173 -0.2048,-0.1124 -0.1151,-0.2656c0.0568,-0.756 0.9507,-1.5642 0.5051,-2.1531c-0.9685,-1.2633 -3.3562,-1.0697 -4.1872,-2.3595c-0.4728,-0.7417 -0.0613,-2.1719 0.6906,-2.5598c1.1515,-0.239 2.4078,0.68 3.3213,1.2385c0.7164,0.434 1.2843,1.0991 1.5738,1.9784z" fill="#efe99a" stroke="none" stroke-width="0.5242" stroke-linecap="round"/><path d="M264.7746,167.8061c0.1567,0.7758 0.4772,1.8811 0.0197,2.6204c-0.4597,0.4242 -1.5572,0.348 -1.9528,-0.168c-0.6856,-0.9037 0.0531,-2.5132 -0.5793,-3.5056c-0.2963,-0.4586 -1.0839,-0.0422 -1.6234,-0.1941c-0.1291,0.0236 -0.2913,-0.0273 -0.1554,-0.1472c0.4434,-0.3596 0.9374,-0.7404 1.5375,-0.7761c0.6,-0.0363 1.2403,0.1531 1.7777,0.5767c0.5375,0.4237 0.8558,0.9864 0.976,1.5939z" fill="#fff9a5" stroke="none" stroke-width="0.38753" stroke-linecap="round"/><path d="M262.316,165.6979c0.1945,0.5905 0.2199,1.1755 0.1047,1.6433c-0.1159,0.4676 -0.3729,0.8182 -0.7439,0.9404c-0.3709,0.1222 -0.786,-0.0071 -1.157,-0.3143c-0.3708,-0.3079 -0.6979,-0.7934 -0.8924,-1.3839c-0.1944,-0.5905 -0.2198,-1.1754 -0.1046,-1.6433c0.1159,-0.4675 0.3729,-0.8182 0.7438,-0.9403c0.371,-0.1222 0.7861,0.0071 1.1571,0.3143c0.3707,0.3078 0.6979,0.7934 0.8923,1.3838z" fill="#e3d892" stroke="none" stroke-width="0.5242" stroke-linecap="round"/></g><g><path d="M254.8683,176.8772l1.1199,10.9026" fill="none" stroke="#72db43" stroke-width="1.40918" stroke-linecap="round"/><path d="M252.482,174.5514c0.3714,-0.1575 0.8212,-0.1826 1.2609,-0.0378c0.4396,0.1447 0.7864,0.4323 0.9916,0.7796c0.2051,0.3474 0.2691,0.7548 0.1425,1.1392c-0.1266,0.3843 -0.4201,0.674 -0.7916,0.8315c-0.3714,0.1575 -0.8212,0.1826 -1.2608,0.0378c-0.4396,-0.1448 -0.7864,-0.4323 -0.9916,-0.7797c-0.2051,-0.3473 -0.2691,-0.7547 -0.1425,-1.1391c0.1266,-0.3844 0.4201,-0.674 0.7915,-0.8315z" fill="#ffd39a" stroke="none" stroke-width="0.5242" stroke-linecap="butt"/><path d="M258.7475,178.3617c0.7811,0.0413 1.6791,0.4021 2.2001,0.9082c0.1766,0.2354 -0.6078,0.3433 -0.8034,0.5763c-0.3487,0.4163 -0.4137,1.0571 -0.8592,1.3886c-0.912,0.6526 -2.5873,0.9945 -3.7144,1.5624c-0.0958,0.1496 1.213,0.1771 1.2418,-0.1078c0.0495,-0.6758 -0.4697,-1.5386 -0.3624,-2.166c0.0949,-0.5318 0.4109,-0.9668 0.8592,-1.3886c0.4482,-0.4217 0.8957,-0.8017 1.4383,-0.7731z" fill="#63bf3a" stroke="none" stroke-width="0.34326" stroke-linecap="round"/><path d="M254.9456,171.5972c0.9135,-0.5585 2.1698,-1.4775 3.3213,-1.2385c0.7519,0.3879 1.1634,1.8181 0.6906,2.5598c-0.831,1.2898 -3.2187,1.0962 -4.1872,2.3595c-0.4456,0.5889 0.4483,1.3971 0.5051,2.1531c0.0897,0.1532 0.1001,0.3829 -0.1151,0.2656c-0.6624,-0.3969 -1.3751,-0.8485 -1.6984,-1.5947c-0.3239,-0.7457 -0.3797,-1.6471 -0.0901,-2.5264c0.2895,-0.8793 0.8574,-1.5444 1.5738,-1.9784z" fill="#efe99a" stroke="none" stroke-width="0.5242" stroke-linecap="round"/><path d="M251.9878,176.7122c0.5374,-0.4236 1.1777,-0.613 1.7777,-0.5767c0.6001,0.0357 1.0941,0.4165 1.5375,0.7761c0.1359,0.1199 -0.0263,0.1708 -0.1554,0.1472c-0.5395,0.1519 -1.3271,-0.2645 -1.6234,0.1941c-0.6324,0.9924 0.1063,2.6019 -0.5793,3.5056c-0.3956,0.516 -1.4931,0.5922 -1.9528,0.168c-0.4575,-0.7393 -0.137,-1.8446 0.0197,-2.6204c0.1202,-0.6075 0.4385,-1.1702 0.976,-1.5939z" fill="#fff9a5" stroke="none" stroke-width="0.38753" stroke-linecap="round"/><path d="M254.3627,174.8141c0.371,-0.3072 0.7861,-0.4365 1.1571,-0.3143c0.3709,0.1221 0.6279,0.4728 0.7438,0.9403c0.1152,0.4679 0.0898,1.0528 -0.1046,1.6433c-0.1945,0.5905 -0.5216,1.076 -0.8924,1.3839c-0.371,0.3072 -0.7861,0.4365 -1.157,0.3143c-0.371,-0.1222 -0.628,-0.4728 -0.7439,-0.9404c-0.1152,-0.4678 -0.0898,-1.0528 0.1047,-1.6433c0.1944,-0.5904 0.5216,-1.076 0.8923,-1.3838z" fill="#e3d892" stroke="none" stroke-width="0.5242" stroke-linecap="round"/></g><g fill="none" stroke="#e3e3a6" stroke-width="1.2963" stroke-linecap="round"><path d="M259.8089,186.7926c0,0 -0.0972,-3.804 -0.1296,-5.7037c-0.011,-0.6475 -0.0713,-1.3009 0,-1.9445c0.059,-0.5308 0.2061,-1.0539 0.3889,-1.5555c0.1646,-0.4537 0.4232,-0.8692 0.6481,-1.2963c0.2068,-0.3934 0.3883,-0.8063 0.6482,-1.1667c0.3046,-0.4213 0.6138,-0.8646 1.037,-1.1667c0.8018,-0.5729 2.5926,-1.4259 2.5926,-1.4259"/><path d="M263.3089,177.0704l-3.7592,0.1296"/><path d="M261.7534,175.7741c0,0 1.1841,-0.5911 1.8148,-0.7778c0.5444,-0.1614 1.6852,-0.2593 1.6852,-0.2593"/><path d="M262.1423,174.0889l-0.1297,-1.2963z"/><path d="M259.8089,174.0889v0c0,0 0.3423,0.4278 1.0371,1.2963z"/></g><path d="M15.4682,301.6h448v27.2h-448z" fill="#8882e3" stroke="none" stroke-width="1" stroke-linecap="butt"/></g></g></svg>