<svg version="1.1" xmlns="http://www.w3.org/2000/svg" xmlns:xlink="http://www.w3.org/1999/xlink" width="451.03021" height="302.87221" viewBox="0,0,451.03021,302.87221"><defs><linearGradient x1="52.4475" y1="250.243" x2="52.4475" y2="295.5" gradientUnits="userSpaceOnUse" id="color-1"><stop offset="0" stop-color="#90895d"/><stop offset="1" stop-color="#000000"/></linearGradient><radialGradient cx="304.7112" cy="226.2973" r="45.9654" gradientUnits="userSpaceOnUse" id="color-2"><stop offset="0" stop-color="#ffffcc"/><stop offset="1" stop-color="#ffffcc" stop-opacity="0"/></radialGradient></defs><g transform="translate(-14.4849,-28.5639)"><g data-paper-data="{&quot;isPaintingLayer&quot;:true}" fill-rule="nonzero" stroke-linejoin="miter" stroke-miterlimit="10" stroke-dasharray="" stroke-dashoffset="0" style="mix-blend-mode: normal"><path d="M15.521,29.6h448.958v300.8h-448.958z" fill="#90895d" stroke="#000000" stroke-width="2.0722" stroke-linecap="butt"/><path d="M80.7154,265.5c2.872,1.298 5.6,-3.496 8.4,-2.8c11.271,3.878 24.196,7.397 31.9,15.9c2.89,3.23 -5.185,7.167 -9.32,9.19c-6.855,3.407 -14.648,7.464 -22.58,7.71c-7.868,-0.246 -15.14,-4.888 -22.38,-7.71c-4.915,-1.914 -13.016,-2.376 -14.02,-7.49c-1.15,-10.198 1.332,-25.604 8.8,-29.6c6.009,-3.213 11.859,11.451 19.2,14.8z" fill="url(#color-1)" stroke="none" stroke-width="1" stroke-linecap="round"/><path d="M17.3154,283.5057h446.4v45.6h-446.4z" fill="#9b9464" stroke="none" stroke-width="0.78048" stroke-linecap="butt"/><path d="M267.2154,286.3l175.35,-3.7l-18.55,39.7l-170.25,-8.5z" fill="#8a8359" stroke="none" stroke-width="1" stroke-linecap="round"/><g stroke="none" stroke-width="0.73512" stroke-linecap="round"><path d="M418.9428,252.4358c0.6055,5.7257 4.3083,10.9894 4.2883,16.7735c-0.0248,6.1599 -4.6153,11.7526 -5.2521,17.942c-0.231,2.3597 4.4614,4.9541 3.32,5.8331c-1.7623,1.663 -8.1686,1.9785 -9.1274,-0.749c-2.4879,-7.2003 -0.083,-15.5644 0.1809,-22.8673c0.2147,-5.9965 -1.136,-12.5002 1.3335,-17.8981c1.0897,-2.406 6.1928,-1.3938 8.1669,-1.1352c0.6178,0.2182 -3.0703,0.5992 -2.9101,2.101z" fill="#352013"/><path d="M286.2279,250.3348c1.9741,-0.2586 7.0772,-1.2708 8.1669,1.1352c2.4695,5.3979 1.1188,11.9016 1.3335,17.8981c0.2639,7.3029 2.6688,15.667 0.1809,22.8673c-0.9588,2.7275 -7.3651,2.412 -9.1274,0.749c-1.1414,-0.879 3.551,-3.4734 3.32,-5.8331c-0.6368,-6.1894 -5.2273,-11.7821 -5.2521,-17.942c-0.02,-5.7841 3.6828,-11.0478 4.2883,-16.7735c0.1602,-1.5018 -3.5279,-1.8828 -2.9101,-2.101z" fill="#352013"/><path d="M278.6631,243.036h151.7288l15.6581,33.4479l-186.353,-0.0735z" fill="#311d11"/><path d="M434.8928,267.2858c0.6055,5.7257 4.3083,10.9894 4.2883,16.7735c-0.0248,6.1599 -4.6153,11.7526 -5.2521,17.942c-0.231,2.3597 4.4614,4.9541 3.32,5.8331c-1.7623,1.663 -8.1686,1.9785 -9.1274,-0.749c-2.4879,-7.2003 -0.083,-15.5644 0.1809,-22.8673c0.2147,-5.9965 -1.136,-12.5002 1.3335,-17.8981c1.0897,-2.406 6.1928,-1.3938 8.1669,-1.1352c0.6178,0.2182 -3.0703,0.5992 -2.9101,2.101z" fill="#311d11"/><path d="M269.6779,264.8848c1.9741,-0.2586 7.0772,-1.2708 8.1669,1.1352c2.4695,5.3979 1.1188,11.9016 1.3335,17.8981c0.2639,7.3029 2.6688,15.667 0.1809,22.8673c-0.9588,2.7275 -7.3651,2.412 -9.1274,0.749c-1.1414,-0.879 3.551,-3.4734 3.32,-5.8331c-0.6368,-6.1894 -5.2273,-11.7821 -5.2521,-17.942c-0.02,-5.7841 3.6828,-11.0478 4.2883,-16.7735c0.1602,-1.5018 -3.5279,-1.8828 -2.9101,-2.101z" fill="#311d11"/><path d="M259.55,275.9694h186.4265v2.9404h-186.4265z" fill="#352013"/></g><path d="M57.7654,30.2148h88v47.3h-88z" fill="#8f855c" stroke="none" stroke-width="0.98475" stroke-linecap="butt"/><path d="M61.0125,69.6h23.2v18.4h-23.2z" fill="#817b53" stroke="none" stroke-width="0.92939" stroke-linecap="butt"/><path d="M85.9654,69.1h27.2v18.4h-27.2z" fill="#817b53" stroke="none" stroke-width="1" stroke-linecap="butt"/><path d="M116.3154,70.6h27.2v18.4h-27.2z" fill="#817b53" stroke="none" stroke-width="1" stroke-linecap="butt"/><path d="M61.8154,30.4h79.2v36h-79.2z" fill="#000000" stroke="none" stroke-width="1" stroke-linecap="butt"/><path d="M97.0154,66.4v-34.4" fill="none" stroke="#8f855c" stroke-width="2" stroke-linecap="round"/><path d="M117.7654,65.4v-34.4" fill="none" stroke="#8f855c" stroke-width="2" stroke-linecap="round"/><path d="M78.2654,66.4v-34.4" fill="none" stroke="#8f855c" stroke-width="2" stroke-linecap="round"/><g fill="none" stroke="#817b53" stroke-width="2" stroke-linecap="round"><path d="M436.5654,74.55l-49.4,-1"/><path d="M406.9654,74.15l0.6,11.4"/><path d="M441.7654,84.95l-40.2,0.4"/><path d="M430.7654,66.15l-0.8,8"/></g><g fill="none" stroke="#817b53" stroke-width="2" stroke-linecap="round"><path d="M254.1154,123l49.4,1"/><path d="M273.9154,123.6l0.6,11.4"/><path d="M268.5154,134.8l40.2,-0.4"/><path d="M297.7154,115.6l-0.8,8"/></g><g fill="none" stroke="#817b53" stroke-width="2" stroke-linecap="round"><path d="M222.5154,243.95l-49.4,-1"/><path d="M193.5154,254.95l-0.6,-11.4"/><path d="M187.5154,254.75l40.2,-0.4"/><path d="M216.7154,235.55l-0.8,8"/></g><g fill="none" stroke="#817b53" stroke-width="2" stroke-linecap="round"><path d="M35.9654,152.15l49.4,1"/><path d="M55.7654,152.75l0.6,11.4"/><path d="M50.3654,163.95l40.2,-0.4"/><path d="M78.7654,152.75l0.8,-8"/></g><g stroke="none" stroke-width="0.67693"><path d="M201.8631,264.2008l34.6923,-1.5569l-5.9908,30.2584h-24.3692z" fill="#b2b2b2" stroke-linecap="round"/><path d="M218.78,257.3446c4.8184,0 9.1845,0.88 12.3464,2.3016c3.1613,1.4215 5.1182,3.3846 5.1182,5.5507c0,2.1662 -1.9569,4.1293 -5.1182,5.5508c-3.1619,1.4215 -7.528,2.3015 -12.3464,2.3015c-4.8183,0 -9.1845,-0.88 -12.3464,-2.3015c-3.1612,-1.4215 -5.1182,-3.3846 -5.1182,-5.5508c0,-2.1661 1.957,-4.1292 5.1182,-5.5507c3.1619,-1.4216 7.5281,-2.3016 12.3464,-2.3016z" fill="#7f7f7f" stroke-linecap="butt"/></g><path d="M302.4654,229.55h5.75v21.25h-5.75z" fill="#ffffff" stroke="none" stroke-width="1" stroke-linecap="round"/><path d="M304.6654,229c0.549,0.046 1.129,0.323 1.7,0.45c0.595,0.133 1.593,-0.132 1.8,0.45c0.541,1.526 0.6,3.288 0.2,4.8c-0.175,0.513 -0.838,-0.782 -1.35,-0.75c-0.574,0.037 -0.996,1.411 -1.45,1.05c-0.845,-0.682 -0.251,-2.64 -1.2,-3.35c-0.592,-0.443 -1.613,1.517 -1.95,1.05c-0.564,-0.823 -0.484,-2.636 0.149,-3.631c0.376,-0.589 1.404,-0.126 2.101,-0.069z" fill="#e5e5e5" stroke="none" stroke-width="1" stroke-linecap="round"/><path d="M305.1404,223.15c0.255,0 0.486,0.266 0.654,0.696c0.167,0.43 0.271,1.024 0.271,1.679c0,0.655 -0.104,1.249 -0.271,1.679c-0.168,0.43 -0.399,0.696 -0.654,0.696c-0.255,0 -0.486,-0.266 -0.654,-0.696c-0.167,-0.43 -0.271,-1.024 -0.271,-1.679c0,-0.655 0.104,-1.249 0.271,-1.679c0.168,-0.43 0.399,-0.696 0.654,-0.696z" fill="#ffe9cc" stroke="none" stroke-width="1" stroke-linecap="butt"/><path d="M304.8654,226.85h0.6v2.95h-0.6z" fill="#000000" stroke="none" stroke-width="1" stroke-linecap="butt"/><path d="M305.1904,224.3c0.09,0 0.171,0.157 0.23,0.41c0.059,0.254 0.095,0.604 0.095,0.99c0,0.386 -0.036,0.736 -0.095,0.99c-0.059,0.253 -0.14,0.41 -0.23,0.41c-0.09,0 -0.171,-0.157 -0.23,-0.41c-0.059,-0.254 -0.095,-0.604 -0.095,-0.99c0,-0.386 0.036,-0.736 0.095,-0.99c0.059,-0.253 0.14,-0.41 0.23,-0.41z" fill="#ffd499" stroke="none" stroke-width="1" stroke-linecap="butt"/><path d="M309.955,252.05c-1.0153,0.593 -3.094,-0.233 -4.5911,-0.2c-0.5749,0.013 -0.9888,0.364 -1.6635,0.35c-0.8211,-0.022 -1.5849,-0.549 -2.3954,-0.45c-0.9861,0.121 -2.8465,1.513 -2.595,0.95c0.5137,-1.462 2.5405,-3.398 4.1254,-5c0.4738,-0.478 1.3255,-1.411 1.9296,-1.05c1.1245,0.682 0.6667,2.973 1.597,3.35c0.6267,0.252 0.6773,-2.167 1.3307,-2.15c0.692,0.034 0.6428,1.407 0.9981,2.1c0.3633,0.71 1.9123,1.743 1.2642,2.1z" fill="#e5e5e5" stroke="none" stroke-width="1.17706" stroke-linecap="round"/><path d="M306.2154,193.3c9.518,0 18.143,3.726 24.389,9.745c6.245,6.019 10.111,14.332 10.111,23.505c0,9.173 -3.866,17.486 -10.111,23.505c-6.246,6.019 -14.871,9.745 -24.389,9.745c-9.518,0 -18.143,-3.726 -24.389,-9.745c-6.245,-6.019 -10.111,-14.332 -10.111,-23.505c0,-9.173 3.866,-17.486 10.111,-23.505c6.246,-6.019 14.871,-9.745 24.389,-9.745z" fill="url(#color-2)" stroke="none" stroke-width="1" stroke-linecap="butt"/></g></g></svg>