<svg version="1.1" xmlns="http://www.w3.org/2000/svg" xmlns:xlink="http://www.w3.org/1999/xlink" width="451.03021" height="302.87221" viewBox="0,0,451.03021,302.87221"><defs><linearGradient x1="52.4475" y1="250.743" x2="52.4475" y2="296" gradientUnits="userSpaceOnUse" id="color-1"><stop offset="0" stop-color="#bfba7b"/><stop offset="1" stop-color="#000000"/></linearGradient><linearGradient x1="41.6154" y1="29.1" x2="41.6154" y2="328.3" gradientUnits="userSpaceOnUse" id="color-2"><stop offset="0" stop-color="#ffffcc"/><stop offset="1" stop-color="#ffffcc" stop-opacity="0"/></linearGradient></defs><g transform="translate(-14.4849,-29.0639)"><g data-paper-data="{&quot;isPaintingLayer&quot;:true}" fill-rule="nonzero" stroke-linejoin="miter" stroke-miterlimit="10" stroke-dasharray="" stroke-dashoffset="0" style="mix-blend-mode: normal"><path d="M15.521,30.1h448.958v300.8h-448.958z" fill="#bfba7b" stroke="#000000" stroke-width="2.0722" stroke-linecap="butt"/><path d="M80.7154,266c2.872,1.298 5.6,-3.496 8.4,-2.8c11.271,3.878 24.196,7.397 31.9,15.9c2.89,3.23 -5.185,7.167 -9.32,9.19c-6.855,3.407 -14.648,7.464 -22.58,7.71c-7.868,-0.246 -15.14,-4.888 -22.38,-7.71c-4.915,-1.914 -13.016,-2.376 -14.02,-7.49c-1.15,-10.198 1.332,-25.604 8.8,-29.6c6.009,-3.213 11.859,11.451 19.2,14.8z" fill="url(#color-1)" stroke="none" stroke-width="1" stroke-linecap="round"/><path d="M17.3154,284.0057h446.4v45.6h-446.4z" fill="#9b9464" stroke="none" stroke-width="0.78048" stroke-linecap="butt"/><path d="M267.2154,286.8l175.35,-3.7l-18.55,39.7l-170.25,-8.5z" fill="#8a8359" stroke="none" stroke-width="1" stroke-linecap="round"/><g stroke="none" stroke-width="0.73512" stroke-linecap="round"><path d="M418.9428,252.9358c0.6055,5.7257 4.3083,10.9894 4.2883,16.7735c-0.0248,6.1599 -4.6153,11.7526 -5.2521,17.942c-0.231,2.3597 4.4614,4.9541 3.32,5.8331c-1.7623,1.663 -8.1686,1.9785 -9.1274,-0.749c-2.4879,-7.2003 -0.083,-15.5644 0.1809,-22.8673c0.2147,-5.9965 -1.136,-12.5002 1.3335,-17.8981c1.0897,-2.406 6.1928,-1.3938 8.1669,-1.1352c0.6178,0.2182 -3.0703,0.5992 -2.9101,2.101z" fill="#352013"/><path d="M286.2279,250.8348c1.9741,-0.2586 7.0772,-1.2708 8.1669,1.1352c2.4695,5.3979 1.1188,11.9016 1.3335,17.8981c0.2639,7.3029 2.6688,15.667 0.1809,22.8673c-0.9588,2.7275 -7.3651,2.412 -9.1274,0.749c-1.1414,-0.879 3.551,-3.4734 3.32,-5.8331c-0.6368,-6.1894 -5.2273,-11.7821 -5.2521,-17.942c-0.02,-5.7841 3.6828,-11.0478 4.2883,-16.7735c0.1602,-1.5018 -3.5279,-1.8828 -2.9101,-2.101z" fill="#352013"/><path d="M278.6631,243.536h151.7288l15.6581,33.4479l-186.353,-0.0735z" fill="#482d19"/><path d="M434.8928,267.7858c0.6055,5.7257 4.3083,10.9894 4.2883,16.7735c-0.0248,6.1599 -4.6153,11.7526 -5.2521,17.942c-0.231,2.3597 4.4614,4.9541 3.32,5.8331c-1.7623,1.663 -8.1686,1.9785 -9.1274,-0.749c-2.4879,-7.2003 -0.083,-15.5644 0.1809,-22.8673c0.2147,-5.9965 -1.136,-12.5002 1.3335,-17.8981c1.0897,-2.406 6.1928,-1.3938 8.1669,-1.1352c0.6178,0.2182 -3.0703,0.5992 -2.9101,2.101z" fill="#482d19"/><path d="M269.6779,265.3848c1.9741,-0.2586 7.0772,-1.2708 8.1669,1.1352c2.4695,5.3979 1.1188,11.9016 1.3335,17.8981c0.2639,7.3029 2.6688,15.667 0.1809,22.8673c-0.9588,2.7275 -7.3651,2.412 -9.1274,0.749c-1.1414,-0.879 3.551,-3.4734 3.32,-5.8331c-0.6368,-6.1894 -5.2273,-11.7821 -5.2521,-17.942c-0.02,-5.7841 3.6828,-11.0478 4.2883,-16.7735c0.1602,-1.5018 -3.5279,-1.8828 -2.9101,-2.101z" fill="#482d19"/><path d="M259.55,276.4694h186.4265v2.9404h-186.4265z" fill="#352013"/></g><path d="M57.7654,30.7148h88v47.3h-88z" fill="#8f855c" stroke="none" stroke-width="0.98475" stroke-linecap="butt"/><path d="M61.0125,70.1h23.2v18.4h-23.2z" fill="#b8af77" stroke="none" stroke-width="0.92939" stroke-linecap="butt"/><path d="M85.9654,69.6h27.2v18.4h-27.2z" fill="#b8af77" stroke="none" stroke-width="1" stroke-linecap="butt"/><path d="M116.3154,71.1h27.2v18.4h-27.2z" fill="#b8af77" stroke="none" stroke-width="1" stroke-linecap="butt"/><path d="M61.8154,30.9h79.2v36h-79.2z" fill="#ffffff" stroke="none" stroke-width="1" stroke-linecap="butt"/><path d="M97.0154,66.9v-34.4" fill="none" stroke="#8f855c" stroke-width="2" stroke-linecap="round"/><path d="M117.7654,31.5v34.4" fill="none" stroke="#8f855c" stroke-width="2" stroke-linecap="round"/><path d="M78.2654,66.9v-34.4" fill="none" stroke="#8f855c" stroke-width="2" stroke-linecap="round"/><g fill="none" stroke="#b8af77" stroke-width="2" stroke-linecap="round"><path d="M436.5654,75.05l-49.4,-1"/><path d="M406.9654,74.65l0.6,11.4"/><path d="M401.5654,85.85l40.2,-0.4"/><path d="M429.9654,74.65l0.8,-8"/></g><g fill="none" stroke="#b8af77" stroke-width="2" stroke-linecap="round"><path d="M254.1154,123.5l49.4,1"/><path d="M273.9154,124.1l0.6,11.4"/><path d="M268.5154,135.3l40.2,-0.4"/><path d="M296.9154,124.1l0.8,-8"/></g><g fill="none" stroke="#b8af77" stroke-width="2" stroke-linecap="round"><path d="M222.5154,244.45l-49.4,-1"/><path d="M193.5154,255.45l-0.6,-11.4"/><path d="M187.5154,255.25l40.2,-0.4"/><path d="M216.7154,236.05l-0.8,8"/></g><g fill="none" stroke="#b8af77" stroke-width="2" stroke-linecap="round"><path d="M35.9654,152.65l49.4,1"/><path d="M56.3654,164.65l-0.6,-11.4"/><path d="M90.5654,164.05l-40.2,0.4"/><path d="M78.7654,153.25l0.8,-8"/></g><g stroke="none" stroke-width="0.67693"><path d="M201.8631,264.7008l34.6923,-1.5569l-5.9908,30.2584h-24.3692z" fill="#b2b2b2" stroke-linecap="round"/><path d="M218.82,257.8639c4.8184,0 9.1845,0.88 12.3464,2.3015c3.1613,1.4215 5.1182,3.3846 5.1182,5.5508c0,2.1661 -1.9569,4.1292 -5.1182,5.5507c-3.1619,1.4216 -7.528,2.3016 -12.3464,2.3016c-4.8183,0 -9.1845,-0.88 -12.3464,-2.3016c-3.1612,-1.4215 -5.1182,-3.3846 -5.1182,-5.5507c0,-2.1662 1.957,-4.1293 5.1182,-5.5508c3.1619,-1.4215 7.5281,-2.3015 12.3464,-2.3015z" fill="#7f7f7f" stroke-linecap="butt"/></g><path d="M60.0154,30.7l81.6,-1.6l320,212.8l-0.8,84.8l-419.2,1.6z" fill="url(#color-2)" stroke="none" stroke-width="1" stroke-linecap="round"/></g></g></svg>