<svg version="1.1" xmlns="http://www.w3.org/2000/svg" xmlns:xlink="http://www.w3.org/1999/xlink" width="503.26933" height="337.8722" viewBox="0,0,503.26933,337.8722"><g transform="translate(11.19119,-11.0639)"><g data-paper-data="{&quot;isPaintingLayer&quot;:true}" fill-rule="nonzero" stroke-linejoin="miter" stroke-miterlimit="10" stroke-dasharray="" stroke-dashoffset="0" style="mix-blend-mode: normal"><path d="M-10.15509,12.1h501.19713v335.8h-501.19713z" fill="#e6f7ff" stroke="#000000" stroke-width="2.0722" stroke-linecap="butt"/><path d="M-9.43571,12.99308h499.23458v106.27713h-499.23457z" fill="#f9fdff" stroke="none" stroke-width="1" stroke-linecap="butt"/><path d="M-8.86961,44.64179h497.89495v106.27713h-497.89494z" fill="#eefbff" stroke="none" stroke-width="0.99866" stroke-linecap="round"/><path d="M-9.09232,291.41236l191.4424,-31.25798l308.12262,18.75479l-1.44736,68.09774h-497.89494z" fill="#e5ad83" stroke="none" stroke-width="0.99866" stroke-linecap="round"/><path d="M279.55937,140.78195h210.76809v165.33238h-210.76808z" fill="#b88f67" stroke="none" stroke-width="1.61317" stroke-linecap="butt"/><path d="M278.13769,140.70426h9.82394v164.7742h-9.82394z" fill="#7f6347" stroke="none" stroke-width="1" stroke-linecap="butt"/><g stroke="none" stroke-width="1" stroke-linecap="round"><path d="M282.21239,308.38098c0.64637,2.49171 -5.51815,3.32786 -7.03305,5.74923c-0.29807,4.86061 -7.9987,5.01467 -8.59595,2.28853c-0.75019,-3.74649 3.03425,-10.02711 7.14468,-12.50319c2.56315,-1.63323 7.7665,1.72366 8.48431,4.46542z" fill="#b2b2b2"/><path d="M297.52389,307.86634c-3.95938,0.70018 -13.14063,-2.54675 -13.44919,-3.5767c-0.2946,-1.04625 7.18755,-2.45978 10.31178,-1.35068c2.22847,0.31426 4.93463,4.59459 3.13741,4.92738z" fill="#e5e5e5"/><path d="M300.70517,308.96093c2.62288,2.8207 3.77797,4.63522 2.65045,6.75976c-2.08335,3.85534 -6.59454,8.67465 -11.63779,9.05723c-3.97713,-0.13977 -10.13115,-5.202 -9.38476,-8.49123c0.92591,-3.97836 9.38956,-5.3747 13.85565,-7.17136c1.39723,-0.56219 3.27685,-0.8999 4.51645,-0.15439z" fill="#cccccc"/></g><g stroke="none" stroke-width="1" stroke-linecap="round"><path d="M481.37037,305.08773c4.05907,2.57097 6.12322,7.87031 7.14468,12.50319c0.51018,2.13335 1.41442,5.05262 -0.86518,6.57757c-4.00549,2.69377 -8.82257,3.86036 -14.20564,3.86036c-5.38307,0 -10.18675,-1.26595 -14.20563,-3.86036c-1.99716,-1.32177 -4.2589,-2.58101 3.37698,-6.57757c3.58686,-2.3544 6.50724,-6.00488 10.27048,-8.03777c2.77638,-1.52047 6.01381,-6.15559 8.48431,-4.46542z" fill="#b2b2b2"/><path d="M473.57619,299.31237c1.10162,1.80202 1.75681,4.59671 0.53607,6.14643c-2.76957,2.54339 -4.39866,4.64493 -16.5377,3.63552c-1.54895,-1.20031 -1.38752,-4.20889 -0.53607,-6.14643c1.24228,-2.44337 4.67999,-5.04727 11.3117,-6.91494c2.07698,-0.06329 4.12437,1.47728 5.226,3.27941z" fill="#e5e5e5"/><path d="M458.90973,310.34331c1.48408,0.58195 3.34695,1.6109 3.41773,2.95644c-0.26413,2.1232 -0.15138,3.62793 -7.16679,6.60537c-1.48721,-0.14312 -2.87629,-1.62184 -3.41783,-2.95644c-0.54746,-1.53968 0.02757,-3.93906 2.65045,-6.75976c1.2396,-0.7455 3.03225,-0.42756 4.51644,0.15439z" fill="#cccccc"/></g><path d="M278.9965,297.31332l71.84055,-89.13548l8.69184,7.00536l-71.84055,89.13548z" fill="#7f6347" stroke="none" stroke-width="0.80827" stroke-linecap="round"/><path d="M277.69115,299.6734h212.55426v7.14468h-212.55425z" fill="#7f6347" stroke="none" stroke-width="1" stroke-linecap="butt"/><path d="M283.4962,250.55372h206.7492v11.16356h-206.7492z" fill="#7f6347" stroke="none" stroke-width="1" stroke-linecap="butt"/><path d="M402.66144,307.77949l-71.84055,-89.13558l8.69184,-7.00536l71.84055,89.13547z" fill="#7f6347" stroke="none" stroke-width="0.80827" stroke-linecap="round"/><path d="M308.11186,187.70286h73.67952v20.09441h-73.67952z" fill="#7f6347" stroke="none" stroke-width="1" stroke-linecap="butt"/><path d="M305.82333,255.46569h73.67952v20.09441h-73.67952z" fill="#7f6347" stroke="none" stroke-width="1" stroke-linecap="butt"/><path d="M283.77529,195.90808h206.7492v11.16356h-206.7492z" fill="#7f6347" stroke="none" stroke-width="1" stroke-linecap="round"/><path d="M319.10797,200.54096h49.11968v63.85559h-49.11968z" fill="#ffffff" stroke="#483828" stroke-width="2" stroke-linecap="butt"/><path d="M368.00438,202.43876h24.11329v58.94362h-24.11329z" fill="#32271c" stroke="none" stroke-width="1" stroke-linecap="butt"/><path d="M294.10159,202.82949h24.1133v58.94361h-24.1133z" fill="#32271c" stroke="none" stroke-width="1" stroke-linecap="butt"/><path d="M334.8486,263.50345v-62.06941" fill="none" stroke="#483828" stroke-width="2" stroke-linecap="round"/><path d="M350.5334,200.54096v62.06941" fill="none" stroke="#483828" stroke-width="2" stroke-linecap="round"/><path d="M319.63087,224.02162h47.81923v22.51322h-47.81923z" fill="none" stroke="#483828" stroke-width="1.90026" stroke-linecap="round"/><path d="M448.49368,187.59122h41.52846v112.52872h-41.52846z" fill="#7f6347" stroke="none" stroke-width="1" stroke-linecap="butt"/><path d="M458.58174,196.96861h31.70452v106.27713h-31.70452z" fill="#a7825d" stroke="none" stroke-width="1.09551" stroke-linecap="butt"/><path d="M461.16008,141.46528l-1.90852,164.81897l-11.16278,-0.12928l1.90852,-164.81897z" fill="#7f6347" stroke="none" stroke-width="0.90432" stroke-linecap="round"/><path d="M304.93025,132.66649h12.94973v64.74867h-12.94973z" fill="#7f6347" stroke="none" stroke-width="1" stroke-linecap="butt"/><path d="M376.71196,133.3363h12.94973v64.74867h-12.94973z" fill="#7f6347" stroke="none" stroke-width="1" stroke-linecap="round"/><path d="M275.57007,40.83869h214.78697v103.59788h-214.78697z" fill="#32271c" stroke="none" stroke-width="1.36149" stroke-linecap="butt"/><g stroke="none" stroke-width="1" stroke-linecap="round"><path d="M255.47566,281.25352c3.76324,2.03289 6.68363,5.68337 10.27048,8.03776c7.63588,3.99656 5.37414,5.2558 3.37698,6.57757c-4.01889,2.59441 -8.82257,3.86036 -14.20564,3.86036c-5.38307,0 -10.20015,-1.16659 -14.20563,-3.86036c-2.2796,-1.52495 -1.37535,-4.44421 -0.86517,-6.57757c1.02147,-4.63288 3.08561,-9.93222 7.14468,-12.50319c2.47049,-1.69017 5.70793,2.94495 8.48431,4.46542z" fill="#b2b2b2"/><path d="M260.01153,267.67751c6.63171,1.86766 10.06942,4.47156 11.3117,6.91494c0.85145,1.93755 1.01287,4.94613 -0.53607,6.14643c-12.13904,1.00941 -13.76813,-1.09214 -16.5377,-3.63553c-1.22073,-1.54972 -0.56554,-4.34442 0.53608,-6.14643c1.10162,-1.80214 3.14902,-3.3427 5.226,-3.2794z" fill="#e5e5e5"/><path d="M273.96844,281.83347c2.62288,2.8207 3.19791,5.22008 2.65045,6.75976c-0.54155,1.33461 -1.93062,2.81333 -3.41783,2.95645c-7.0154,-2.97744 -6.90265,-4.48217 -7.16679,-6.60537c0.07078,-1.34555 1.93364,-2.37449 3.41773,-2.95645c1.48419,-0.58195 3.27684,-0.8999 4.51644,-0.15439z" fill="#cccccc"/></g><g stroke="none" stroke-linecap="round"><path d="M235.01296,274.44241c-0.79228,-2.07129 5.30783,-3.21008 6.6757,-5.37191c0.0096,-4.14871 7.68243,-4.81507 8.43965,-2.54139c0.97011,3.12971 -2.43332,8.727 -6.38724,11.11567c-2.46023,1.56536 -7.84966,-0.92378 -8.72812,-3.20238z" fill="#b2b2b2" stroke-width="0.92865"/><path d="M219.79668,275.94167c3.90837,-0.86997 13.25964,1.24921 13.62837,2.10244c0.3559,0.86808 -7.02445,2.58883 -10.20685,1.86421c-2.24165,-0.11197 -5.19463,-3.55895 -3.42152,-3.96664z" fill="#e5e5e5" stroke-width="0.92428"/><path d="M216.52632,275.19037c-2.78341,-2.21317 -4.04322,-3.67404 -3.04419,-5.55666c1.85002,-3.41917 6.06505,-7.82588 11.07347,-8.5015c3.97568,-0.15785 10.4146,3.71356 9.86468,6.55893c-0.68812,3.44318 -9.04873,5.21762 -13.39761,7.05403c-1.3605,0.57459 -3.21567,0.99211 -4.49635,0.4452z" fill="#cccccc" stroke-width="0.92556"/></g><g stroke="none" stroke-width="1" stroke-linecap="round"><path d="M438.27902,326.5776c0.64637,2.49171 -5.51815,3.32786 -7.03305,5.74923c-0.29807,4.86061 -7.99869,5.01467 -8.59594,2.28853c-0.75019,-3.74649 3.03425,-10.02711 7.14468,-12.50319c2.56315,-1.63323 7.7665,1.72366 8.48431,4.46543z" fill="#b2b2b2"/><path d="M453.59051,326.06296c-3.95938,0.70018 -13.14063,-2.54674 -13.44919,-3.57669c-0.2946,-1.04625 7.18755,-2.45978 10.31178,-1.35068c2.22847,0.31426 4.93463,4.59459 3.13741,4.92737z" fill="#e5e5e5"/><path d="M456.77179,327.15754c2.62288,2.8207 3.77798,4.63522 2.65046,6.75976c-2.08335,3.85534 -6.59455,8.67465 -11.6378,9.05723c-3.97713,-0.13977 -10.13115,-5.202 -9.38476,-8.49123c0.92591,-3.97836 9.38957,-5.3747 13.85566,-7.17136c1.39723,-0.56219 3.27684,-0.8999 4.51644,-0.15439z" fill="#cccccc"/></g><g stroke="none" stroke-width="1" stroke-linecap="round"><path d="M234.9347,315.07912c2.88913,-0.48115 6.07521,-0.34048 8.70758,1.73036c2.1222,1.58076 5.37414,5.2558 3.37698,6.57757c-4.01889,2.59441 -9.45666,5.03812 -14.20563,3.86036c-3.51987,-0.86852 -5.47908,-6.25271 -5.02361,-9.93557c0.29137,-2.64018 4.48217,-2.53748 7.14468,-2.23272z" fill="#b2b2b2"/><path d="M233.19966,303.03453c5.42036,-1.37982 11.58522,-2.91816 16.01971,-0.86808c1.80281,0.89275 1.35347,5.35851 -0.53607,6.14643c-5.59563,2.20815 -11.82065,2.69958 -17.75765,2.29423c-2.50723,-0.16667 -8.19875,-1.34834 -7.57515,-3.12602c1.05407,-2.81378 6.46805,-4.01833 9.84916,-4.44656z" fill="#e5e5e5"/><path d="M260.81541,306.14012c2.93423,1.79811 2.99887,8.64841 0.89186,12.061c-2.3372,2.52564 -7.54278,1.80627 -10.61007,0.92256c-3.27807,-1.0026 -6.90266,-4.48217 -7.16679,-6.60537c0.07077,-1.34555 1.99482,-2.44169 3.41773,-2.95644c3.34193,-1.22631 9.84079,-5.55756 13.46727,-3.42174z" fill="#cccccc"/></g><g stroke="none" stroke-linecap="round"><path d="M205.97016,277.23464c0.32776,3.68286 -1.08186,9.06705 -3.61431,9.93557c-3.41683,1.17775 -7.32922,-1.26596 -10.22069,-3.86037c-1.43697,-1.32177 0.9028,-4.99681 2.42964,-6.57757c1.8939,-2.07084 4.18623,-2.2115 6.26488,-1.73035c1.91567,-0.30477 4.93083,-0.40748 5.14048,2.23271z" fill="#b2b2b2" stroke-width="0.87111"/><path d="M209.16026,267.34808c0.44867,1.77768 -3.64635,2.95935 -5.45016,3.12602c-4.27162,0.40535 -8.75034,-0.08607 -12.77636,-2.29423c-1.3595,-0.78792 -1.68279,-5.25368 -0.38559,-6.14643c3.19055,-2.05007 7.62605,-0.51173 11.52582,0.86808c2.43265,0.42824 6.32784,1.63278 7.08629,4.44656z" fill="#e5e5e5" stroke-width="0.85048"/><path d="M191.9235,269.42885c1.02381,0.51475 2.40821,1.6109 2.45911,2.95644c-0.19001,2.1232 -2.79793,5.60277 -5.15645,6.60537c-2.20682,0.88371 -5.95208,1.60309 -7.63376,-0.92256c-1.5159,-3.41259 -1.46935,-10.26289 0.64168,-12.061c2.60926,-2.13582 7.285,2.19543 9.68941,3.42174z" fill="#cccccc" stroke-width="0.86283"/></g><g stroke="none" stroke-width="0.81013" stroke-linecap="round"><path d="M220.6143,281.67182c0.52357,2.0186 -4.47045,2.696 -5.69766,4.65755c-0.24147,3.93773 -6.48,4.06253 -6.96383,1.85404c-0.60774,-3.03515 2.4581,-8.12328 5.78808,-10.12915c2.07643,-1.32311 6.29179,1.39634 6.87341,3.61755z" fill="#b2b2b2"/><path d="M233.01568,281.3608c-3.20763,0.56722 -10.64557,-2.06314 -10.89552,-2.8975c-0.23868,-0.84765 5.8228,-1.9927 8.3538,-1.09426c1.80537,0.25464 3.99767,3.72215 2.54172,3.99176z" fill="#e5e5e5"/><path d="M235.60284,282.20946c2.12476,2.28518 3.0606,3.7552 2.14709,5.47628c-1.68771,3.12323 -5.34232,7.02747 -9.42807,7.33748c-3.22191,-0.1132 -8.20746,-4.21436 -7.60283,-6.87898c0.75019,-3.22292 7.60685,-4.35413 11.22496,-5.80963c1.13188,-0.45547 2.65458,-0.72909 3.65885,-0.12514z" fill="#cccccc"/></g><g stroke="none" stroke-width="0.61299" stroke-linecap="round"><path d="M314.1,317.15945c1.562,0.88516 3.02566,2.18114 3.48102,4.1831c0.40122,1.5716 0.53295,4.57684 -0.92836,4.43618c-2.91537,-0.31414 -6.44863,-1.24742 -8.25679,-3.64033c-1.34186,-1.77143 -0.19849,-5.09225 1.43909,-6.67112c1.15722,-1.14549 3.11419,0.51999 4.26504,1.69217z" fill="#b2b2b2"/><path d="M317.91671,310.74453c3.11453,1.4334 6.64499,3.07846 7.96688,5.76565c0.51453,1.12071 -1.42212,3.07501 -2.62622,2.72146c-3.51764,-1.10642 -6.6728,-3.27338 -9.34502,-5.75661c-1.13009,-1.04647 -3.3858,-3.80476 -2.40307,-4.41117c1.58757,-0.93394 4.63143,0.5805 6.40744,1.68067z" fill="#e5e5e5"/><path d="M329.84241,322.88334c0.7042,1.98845 -1.90729,5.27702 -4.22742,6.09006c-2.0877,0.30164 -4.29015,-2.04896 -5.41053,-3.65305c-1.17507,-1.74219 -1.55966,-4.798 -0.86651,-5.91134c0.55271,-0.61377 1.89211,-0.39373 2.76856,-0.0902c2.06515,0.70486 6.83199,1.14817 7.73591,3.56453z" fill="#cccccc"/></g><g stroke="none" stroke-width="0.54023" stroke-linecap="round"><path d="M430.91106,310.74844c3.09867,-0.23767 6.09296,0.42154 8.29252,1.77914c1.83819,1.04089 2.9032,2.83934 1.82435,3.55336c-2.1712,1.40159 -4.76628,2.08546 -7.6744,2.08546c-2.90811,0 -5.51045,-0.63018 -7.67428,-2.08546c-1.23145,-0.82387 -1.18445,-2.64029 -0.46742,-3.55336c2.4715,-3.00401 3.98405,-2.07888 5.69922,-1.77914z" fill="#b2b2b2"/><path d="M436.14086,300.86009c3.58261,1.00896 5.43979,2.41568 6.11083,3.73566c0.46005,1.04669 0.54723,2.67211 -0.28948,3.32049c-6.55793,0.54534 -7.43806,-0.58999 -8.9342,-1.964c-0.65954,-0.83715 -0.30554,-2.34692 0.28958,-3.32049c0.59513,-0.97357 1.7011,-1.80582 2.82326,-1.77166z" fill="#e5e5e5"/><path d="M443.66476,308.49664c1.41688,1.52382 1.72757,2.82003 1.43184,3.65182c-0.2926,0.72105 -1.04301,1.51992 -1.84645,1.59717c-3.78992,-1.60856 -3.72908,-2.42138 -3.87175,-3.56843c0.03829,-0.72686 1.04469,-1.2828 1.84645,-1.59717c0.80176,-0.31437 1.77021,-0.48606 2.43991,-0.08339z" fill="#cccccc"/></g><g stroke="none" stroke-linecap="round"><path d="M338.57622,322.27962c2.25873,-0.48115 4.74976,-0.34049 6.80777,1.73035c1.65913,1.58076 4.20163,5.25581 2.64018,6.57757c-3.14209,2.59441 -7.3934,5.03811 -11.10629,3.86036c-2.75182,-0.86852 -4.28357,-6.25271 -3.92745,-9.93557c0.22773,-2.64018 3.50424,-2.53748 5.5858,-2.23271z" fill="#b2b2b2" stroke-width="0.89756"/><path d="M337.21661,310.17921c4.2378,-1.37982 9.05756,-2.91816 12.52452,-0.86808c1.40951,0.89275 1.05831,5.35851 -0.41897,6.14643c-4.37489,2.20815 -9.24165,2.69958 -13.88335,2.29423c-1.96021,-0.16667 -6.40989,-1.34834 -5.92238,-3.12602c0.82409,-2.81378 5.05676,-4.01833 7.70018,-4.44656z" fill="#e5e5e5" stroke-width="0.88586"/><path d="M358.80315,313.28481c2.294,1.79811 2.34446,8.64841 0.69727,12.061c-1.82736,2.52564 -5.89715,1.80627 -8.2952,0.92256c-2.56293,-1.0026 -5.39669,-4.48217 -5.6031,-6.60537c0.05526,-1.34555 1.55955,-2.4417 2.672,-2.95645c2.61283,-1.22631 7.69371,-5.55755 10.52903,-3.42174z" fill="#cccccc" stroke-width="0.89242"/></g><g stroke="none" stroke-width="1" stroke-linecap="round"><path d="M188.49427,297.7756c4.03674,1.07282 10.21913,9.21886 9.3774,11.16356c-0.7781,1.78728 -9.37405,-0.53808 -11.72174,-3.85143c-1.62653,-2.41021 0.52022,-8.16615 2.34435,-7.31214z" fill="#b2b2b2"/><path d="M217.09041,296.59115c-3.95938,0.70018 -13.14063,-2.54674 -13.44919,-3.57669c-0.2946,-1.04625 7.18755,-2.45978 10.31178,-1.35068c2.22847,0.31426 4.93463,4.59459 3.13741,4.92737z" fill="#e5e5e5"/><path d="M220.27169,297.68573c2.62288,2.8207 3.77797,4.63522 2.65045,6.75976c-2.08335,3.85534 -6.59454,8.67465 -11.63779,9.05722c-3.97713,-0.13977 -10.13116,-5.202 -9.38476,-8.49123c0.92591,-3.97836 9.38957,-5.37469 13.85566,-7.17136c1.39723,-0.56219 3.27684,-0.8999 4.51644,-0.15439z" fill="#cccccc"/></g><path d="M-9.88225,105.87394h192.0133v200.49761h-192.01329z" fill="#b88f67" stroke="none" stroke-width="1" stroke-linecap="butt"/><path d="M-10.65801,14.72344h200.83263v91.98777h-200.83262z" fill="#32271c" stroke="none" stroke-width="1.01469" stroke-linecap="butt"/><path d="M17.91502,84.7748l33.93724,-54.86891l40.97028,55.92945z" fill="#b88f67" stroke="none" stroke-width="1" stroke-linecap="round"/><path d="M18.36156,84.32826l74.01443,0.55817v41.08192l-75.35406,-0.11164z" fill="#b88f67" stroke="none" stroke-width="1" stroke-linecap="butt"/><path d="M-11.04204,105.98557h193.35293v11.16357h-193.35292z" fill="#7f6347" stroke="none" stroke-width="0.96814" stroke-linecap="round"/><path d="M70.4954,58.1497h7.59122v49.11968h-7.59122z" fill="#7f6347" stroke="none" stroke-width="1" stroke-linecap="butt"/><path d="M35.66509,56.30771h38.8492v10.27047h-38.8492z" fill="#7f6347" stroke="none" stroke-width="1" stroke-linecap="butt"/><path d="M31.19966,58.54042h7.59122v49.11968h-7.59122z" fill="#7f6347" stroke="none" stroke-width="1" stroke-linecap="butt"/><path d="M50.1142,31.98208l7.25688,-5.20569l41.38501,57.69163l-7.25688,5.20568z" fill="#241c14" stroke="none" stroke-width="0.677" stroke-linecap="butt"/><path d="M16.72655,88.27826l-7.25688,-5.20568l41.38501,-57.69162l7.25687,5.20568z" fill="#241c14" stroke="none" stroke-width="0.677" stroke-linecap="butt"/><path d="M-10.98622,183.34907h193.35293v11.16357h-193.35292z" fill="#7f6347" stroke="none" stroke-width="0.96814" stroke-linecap="round"/><path d="M100.08867,114.22908l10.77005,-6.35106l47.09428,79.86179l-10.77005,6.35107z" fill="#7f6347" stroke="none" stroke-width="1.12821" stroke-linecap="butt"/><path d="M89.06588,114.35824h12.50319v74.12607h-12.50319z" fill="#7f6347" stroke="none" stroke-width="0.92734" stroke-linecap="butt"/><path d="M36.55817,65.23856h35.27686v42.42154h-35.27686z" fill="#ffffff" stroke="#483828" stroke-width="2" stroke-linecap="butt"/><path d="M53.30352,105.87393v-39.29575" fill="none" stroke="#483828" stroke-width="2" stroke-linecap="round"/><path d="M35.66509,78.07666h35.7234" fill="none" stroke="#483828" stroke-width="2" stroke-linecap="round"/><path d="M70.04886,92.47766l-33.49069,-0.44655" fill="none" stroke="#483828" stroke-width="2" stroke-linecap="round"/><path d="M42.81591,191.85816l-10.77005,-6.35106l47.09428,-79.86179l10.77005,6.35107z" fill="#7f6347" stroke="none" stroke-width="1.12821" stroke-linecap="butt"/><path d="M14.10255,109.89282h12.50319v74.12607h-12.50319z" fill="#7f6347" stroke="none" stroke-width="0.92734" stroke-linecap="butt"/><path d="M-9.59658,252.28407h191.56676v11.16357h-191.56675z" fill="#7f6347" stroke="none" stroke-width="0.96398" stroke-linecap="round"/><path d="M43.04978,193.84282h73.23298v112.52872h-73.23298z" fill="#7f6347" stroke="none" stroke-width="1.43348" stroke-linecap="butt"/><path d="M52.96481,197.63843h53.13856v106.27713h-53.13856z" fill="#a7825d" stroke="none" stroke-width="1.57061" stroke-linecap="butt"/><path d="M306.60478,25.99863h34.83032v54.03165h-34.83032z" fill="#965a4c" stroke="none" stroke-width="1" stroke-linecap="butt"/><path d="M303.03244,21.03085h42.42154v12.94974h-42.42154z" fill="#77473c" stroke="none" stroke-width="1" stroke-linecap="butt"/><path d="M91.53872,237.60399h8.93085v22.32712h-8.93085z" fill="#432822" stroke="none" stroke-width="1" stroke-linecap="butt"/></g></g></svg>