<svg version="1.1" xmlns="http://www.w3.org/2000/svg" xmlns:xlink="http://www.w3.org/1999/xlink" width="451.03021" height="302.87221" viewBox="0,0,451.03021,302.87221"><g transform="translate(-14.4849,-28.5639)"><g data-paper-data="{&quot;isPaintingLayer&quot;:true}" fill-rule="nonzero" stroke-linejoin="miter" stroke-miterlimit="10" stroke-dasharray="" stroke-dashoffset="0" style="mix-blend-mode: normal"><path d="M15.521,29.6h448.958v300.8h-448.958z" fill="#927369" stroke="#000000" stroke-width="2.0722" stroke-linecap="butt"/><path d="M416.1059,30.8168h47.2v296h-47.2z" fill="#a28075" stroke="none" stroke-width="1.28333" stroke-linecap="butt"/><path d="M17.5823,222.7899l397.5638,-2.2167l47.9862,108.6167h-445.55z" fill="#7a6158" stroke="none" stroke-width="1.53371" stroke-linecap="round"/><path d="M117.1963,204.8597l25.9617,-0.9548l2.0074,-26.0194l35.0618,2.9839l2.9441,55.9774l-65.0383,0.9548z" fill="#52352b" stroke="none" stroke-width="2.53592" stroke-linecap="round"/><path d="M165.9463,151.1097l25.9617,-0.9548l2.0074,-26.0194l35.0618,2.9839l2.9441,55.9774l-65.0383,0.9548z" fill="#52352b" stroke="none" stroke-width="2.53592" stroke-linecap="round"/><path d="M223.9463,94.7597l25.9617,-0.9548l2.0074,-26.0194l35.0618,2.9839l2.9441,55.9774l-65.0383,0.9548z" fill="#52352b" stroke="none" stroke-width="2.53592" stroke-linecap="round"/><path d="M258.5463,69.7597l25.9617,-0.9548l2.0074,-26.0194l35.0618,2.9839l2.9441,55.9774l-65.0383,0.9548z" fill="#52352b" stroke="none" stroke-width="2.53592" stroke-linecap="round"/><path d="M327.1654,29.8l96,1v210h-321z" fill="#6a4438" stroke="none" stroke-width="1" stroke-linecap="round"/><path d="M293.1654,104.8h120v138h-120z" fill="#000000" stroke="none" stroke-width="1" stroke-linecap="butt"/><path d="M301.1654,111.8h106v129h-106z" fill="#55372d" stroke="none" stroke-width="1" stroke-linecap="butt"/><path d="M381.1654,165.8h16v25h-16z" fill="#644135" stroke="none" stroke-width="1" stroke-linecap="butt"/><g stroke="none"><path d="M269.1654,218.4h13.2v40.4h-13.2z" fill="#604633" stroke-width="1" stroke-linecap="butt"/><path d="M177.1654,216.25h13.2v40.4h-13.2z" fill="#604633" stroke-width="1" stroke-linecap="butt"/><path d="M289.3654,241.35h13.2v40.4h-13.2z" fill="#6e513a" stroke-width="1" stroke-linecap="butt"/><path d="M155.5654,241h13.2v40.4h-13.2z" fill="#6e513a" stroke-width="1" stroke-linecap="butt"/><path d="M137.5033,239.4h186.75v6h-186.75z" fill="#604633" stroke-width="0.97017" stroke-linecap="butt"/><path d="M178.5358,215.2977h105.389l40.8895,24.3111l-190.2476,0.2389z" fill="#6e513a" stroke-width="0.64068" stroke-linecap="round"/></g></g></g></svg>