<svg version="1.1" xmlns="http://www.w3.org/2000/svg" xmlns:xlink="http://www.w3.org/1999/xlink" width="451.03021" height="302.87221" viewBox="0,0,451.03021,302.87221"><g transform="translate(-14.88215,-28.5639)"><g data-paper-data="{&quot;isPaintingLayer&quot;:true}" fill-rule="nonzero" stroke-linejoin="miter" stroke-miterlimit="10" stroke-dasharray="" stroke-dashoffset="0" style="mix-blend-mode: normal"><path d="M15.91825,29.6h448.958v300.8h-448.958z" fill="#2b2a2a" stroke="#000000" stroke-width="2.0722" stroke-linecap="butt"/><path d="M16.56265,30.4h447.2v95.2h-447.2z" fill="#000000" stroke="none" stroke-width="1" stroke-linecap="butt"/><path d="M17.06975,58.75h446v95.2h-446z" fill="#1f1f1f" stroke="none" stroke-width="0.99866" stroke-linecap="round"/><path d="M16.87025,279.8l171.4886,-28l276.0074,16.8l-1.2965,61h-446z" fill="#d09d77" stroke="none" stroke-width="0.99866" stroke-linecap="round"/><path d="M275.43615,144.8696h188.8v148.1h-188.8z" fill="#b88f67" stroke="none" stroke-width="1.61317" stroke-linecap="butt"/><path d="M274.16265,144.8h8.8v147.6h-8.8z" fill="#7f6347" stroke="none" stroke-width="1" stroke-linecap="butt"/><g stroke="none" stroke-width="1" stroke-linecap="round"><path d="M277.81265,295c0.579,2.232 -4.943,2.981 -6.3,5.15c-0.267,4.354 -7.165,4.492 -7.7,2.05c-0.672,-3.356 2.718,-8.982 6.4,-11.2c2.296,-1.463 6.957,1.544 7.6,4z" fill="#b2b2b2"/><path d="M291.52825,294.539c-3.5467,0.6272 -11.771,-2.2813 -12.0474,-3.2039c-0.2639,-0.9372 6.4384,-2.2034 9.237,-1.2099c1.9962,0.2815 4.4203,4.1157 2.8104,4.4138z" fill="#e5e5e5"/><path d="M294.37795,295.5195c2.3495,2.5267 3.3842,4.1521 2.3742,6.0552c-1.8662,3.4535 -5.9072,7.7705 -10.4248,8.1132c-3.5626,-0.1252 -9.0752,-4.6598 -8.4066,-7.6062c0.8294,-3.5637 8.4109,-4.8145 12.4115,-6.4239c1.2516,-0.5036 2.9353,-0.8061 4.0457,-0.1383z" fill="#cccccc"/></g><g stroke="none" stroke-width="1" stroke-linecap="round"><path d="M456.21265,292.05c3.636,2.303 5.485,7.05 6.4,11.2c0.457,1.911 1.267,4.526 -0.775,5.892c-3.588,2.413 -7.903,3.458 -12.725,3.458c-4.822,0 -9.125,-1.134 -12.725,-3.458c-1.789,-1.184 -3.815,-2.312 3.025,-5.892c3.213,-2.109 5.829,-5.379 9.2,-7.2c2.487,-1.362 5.387,-5.514 7.6,-4z" fill="#b2b2b2"/><path d="M449.23085,286.8766c0.9868,1.6142 1.5737,4.1176 0.4802,5.5058c-2.4809,2.2783 -3.9402,4.1608 -14.814,3.2566c-1.3875,-1.0752 -1.2429,-3.7702 -0.4802,-5.5058c1.1128,-2.1887 4.1922,-4.5212 10.1327,-6.1942c1.8605,-0.0567 3.6945,1.3233 4.6813,2.9376z" fill="#e5e5e5"/><path d="M436.09305,296.7578c1.3294,0.5213 2.9981,1.443 3.0615,2.6483c-0.2366,1.9019 -0.1356,3.2498 -6.4198,5.9169c-1.3322,-0.1282 -2.5765,-1.4528 -3.0616,-2.6483c-0.4904,-1.3792 0.0247,-3.5285 2.3742,-6.0552c1.1104,-0.6678 2.7162,-0.383 4.0457,0.1383z" fill="#cccccc"/></g><path d="M274.93195,285.0859l64.3527,-79.845l7.7859,6.2752l-64.3527,79.845z" fill="#7f6347" stroke="none" stroke-width="0.80828" stroke-linecap="round"/><path d="M273.76265,287.2h190.4v6.4h-190.4z" fill="#7f6347" stroke="none" stroke-width="1" stroke-linecap="butt"/><path d="M278.96265,243.2h185.2v10h-185.2z" fill="#7f6347" stroke="none" stroke-width="1" stroke-linecap="butt"/><path d="M385.70745,294.4612l-64.3527,-79.8451l7.7859,-6.2752l64.3527,79.845z" fill="#7f6347" stroke="none" stroke-width="0.80828" stroke-linecap="round"/><path d="M301.01265,186.9h66v18h-66z" fill="#7f6347" stroke="none" stroke-width="1" stroke-linecap="butt"/><path d="M298.96265,247.6h66v18h-66z" fill="#7f6347" stroke="none" stroke-width="1" stroke-linecap="butt"/><path d="M279.21265,194.25h185.2v10h-185.2z" fill="#7f6347" stroke="none" stroke-width="1" stroke-linecap="round"/><path d="M310.86265,198.4h44v57.2h-44z" fill="#ffffcc" stroke="#483828" stroke-width="2" stroke-linecap="butt"/><path d="M354.66265,200.1h21.6v52.8h-21.6z" fill="#32271c" stroke="none" stroke-width="1" stroke-linecap="butt"/><path d="M288.46265,200.45h21.6v52.8h-21.6z" fill="#32271c" stroke="none" stroke-width="1" stroke-linecap="butt"/><path d="M324.96265,199.2v55.6" fill="none" stroke="#483828" stroke-width="2" stroke-linecap="round"/><path d="M339.01265,198.4v55.6" fill="none" stroke="#483828" stroke-width="2" stroke-linecap="round"/><path d="M311.33105,219.4333h42.8351v20.1667h-42.8351z" fill="none" stroke="#483828" stroke-width="1.90026" stroke-linecap="round"/><path d="M426.76265,186.8h37.2v100.8h-37.2z" fill="#7f6347" stroke="none" stroke-width="1" stroke-linecap="butt"/><path d="M435.79925,195.2h28.4v95.2h-28.4z" fill="#a7825d" stroke="none" stroke-width="1.09551" stroke-linecap="butt"/><path d="M438.10885,145.4817l-1.7096,147.6401l-9.9993,-0.1158l1.7096,-147.6401z" fill="#7f6347" stroke="none" stroke-width="0.90433" stroke-linecap="round"/><path d="M298.16265,137.6h11.6v58h-11.6z" fill="#7f6347" stroke="none" stroke-width="1" stroke-linecap="butt"/><path d="M362.46265,138.2h11.6v58h-11.6z" fill="#7f6347" stroke="none" stroke-width="1" stroke-linecap="round"/><path d="M271.86265,55.3433h192.4v92.8h-192.4z" fill="#32271c" stroke="none" stroke-width="1.36149" stroke-linecap="butt"/><g stroke="none" stroke-width="1" stroke-linecap="round"><path d="M253.86265,270.7c3.371,1.821 5.987,5.091 9.2,7.2c6.84,3.58 4.814,4.708 3.025,5.892c-3.6,2.324 -7.903,3.458 -12.725,3.458c-4.822,0 -9.137,-1.045 -12.725,-3.458c-2.042,-1.366 -1.232,-3.981 -0.775,-5.892c0.915,-4.15 2.764,-8.897 6.4,-11.2c2.213,-1.514 5.113,2.638 7.6,4z" fill="#b2b2b2"/><path d="M257.92575,258.539c5.9405,1.673 9.0199,4.0055 10.1327,6.1942c0.7627,1.7356 0.9073,4.4306 -0.4802,5.5058c-10.8738,0.9042 -12.3331,-0.9783 -14.814,-3.2566c-1.0935,-1.3882 -0.5066,-3.8916 0.4802,-5.5058c0.9868,-1.6143 2.8208,-2.9943 4.6813,-2.9376z" fill="#e5e5e5"/><path d="M270.42795,271.2195c2.3495,2.5267 2.8646,4.676 2.3742,6.0552c-0.4851,1.1955 -1.7294,2.5201 -3.0616,2.6483c-6.2842,-2.6671 -6.1832,-4.015 -6.4198,-5.9169c0.0634,-1.2053 1.7321,-2.127 3.0615,-2.6483c1.3295,-0.5213 2.9353,-0.8061 4.0457,-0.1383z" fill="#cccccc"/></g><g stroke="none" stroke-linecap="round"><path d="M235.53275,264.5988c-0.7097,-1.8554 4.7546,-2.8755 5.9799,-4.812c0.0086,-3.7163 6.8817,-4.3132 7.56,-2.2765c0.869,2.8035 -2.1797,7.8174 -5.7215,9.9571c-2.2038,1.4022 -7.0315,-0.8275 -7.8184,-2.8686z" fill="#b2b2b2" stroke-width="0.92866"/><path d="M221.90245,265.9418c3.501,-0.7793 11.8776,1.119 12.2079,1.8833c0.3188,0.7776 -6.2923,2.319 -9.143,1.6699c-2.008,-0.1003 -4.6532,-3.188 -3.0649,-3.5532z" fill="#e5e5e5" stroke-width="0.92428"/><path d="M218.97295,265.2688c-2.4933,-1.9825 -3.6218,-3.2911 -2.7269,-4.9775c1.6572,-3.0628 5.4329,-7.0102 9.9193,-7.6154c3.5613,-0.1414 9.3291,3.3265 8.8365,5.8753c-0.6164,3.0843 -8.1056,4.6738 -12.0012,6.3188c-1.2187,0.5147 -2.8805,0.8887 -4.0277,0.3988z" fill="#cccccc" stroke-width="0.92556"/></g><g stroke="none" stroke-width="1" stroke-linecap="round"><path d="M417.61265,311.3c0.579,2.232 -4.943,2.981 -6.3,5.15c-0.267,4.354 -7.165,4.492 -7.7,2.05c-0.672,-3.356 2.718,-8.982 6.4,-11.2c2.296,-1.463 6.957,1.544 7.6,4z" fill="#b2b2b2"/><path d="M431.32825,310.839c-3.5467,0.6272 -11.771,-2.2813 -12.0474,-3.2039c-0.2639,-0.9372 6.4384,-2.2034 9.237,-1.2099c1.9962,0.2815 4.4203,4.1157 2.8104,4.4138z" fill="#e5e5e5"/><path d="M434.17795,311.8195c2.3495,2.5267 3.3842,4.1521 2.3742,6.0552c-1.8662,3.4535 -5.9072,7.7705 -10.4248,8.1132c-3.5626,-0.1252 -9.0752,-4.6598 -8.4066,-7.6062c0.8294,-3.5637 8.4109,-4.8145 12.4115,-6.4239c1.2516,-0.5036 2.9353,-0.8061 4.0457,-0.1383z" fill="#cccccc"/></g><g stroke="none" stroke-width="1" stroke-linecap="round"><path d="M235.46265,301c2.588,-0.431 5.442,-0.305 7.8,1.55c1.901,1.416 4.814,4.708 3.025,5.892c-3.6,2.324 -8.471,4.513 -12.725,3.458c-3.153,-0.778 -4.908,-5.601 -4.5,-8.9c0.261,-2.365 4.015,-2.273 6.4,-2z" fill="#b2b2b2"/><path d="M233.90845,290.2108c4.8554,-1.236 10.3777,-2.614 14.35,-0.7776c1.6149,0.7997 1.2124,4.8 -0.4802,5.5058c-5.0124,1.978 -10.5886,2.4182 -15.9068,2.0551c-2.2459,-0.1493 -7.3442,-1.2078 -6.7856,-2.8002c0.9442,-2.5205 5.7939,-3.5995 8.8226,-3.9831z" fill="#e5e5e5"/><path d="M258.64585,292.9927c2.6284,1.6107 2.6863,7.747 0.7989,10.8039c-2.0936,2.2624 -6.7566,1.618 -9.5042,0.8264c-2.9364,-0.8981 -6.1832,-4.015 -6.4198,-5.9169c0.0634,-1.2053 1.7869,-2.1872 3.0615,-2.6483c2.9936,-1.0985 8.8151,-4.9783 12.0636,-3.0651z" fill="#cccccc"/></g><g stroke="none" stroke-linecap="round"><path d="M209.51705,267.1c0.2936,3.299 -0.9691,8.122 -3.2376,8.9c-3.0607,1.055 -6.5653,-1.134 -9.1554,-3.458c-1.2872,-1.184 0.8087,-4.476 2.1764,-5.892c1.6965,-1.855 3.7499,-1.981 5.6119,-1.55c1.716,-0.273 4.4169,-0.365 4.6047,2z" fill="#b2b2b2" stroke-width="0.87111"/><path d="M212.37465,258.2439c0.4019,1.5924 -3.2663,2.6509 -4.8821,2.8002c-3.8264,0.3631 -7.8383,-0.0771 -11.4447,-2.0551c-1.2178,-0.7058 -1.5074,-4.7061 -0.3454,-5.5058c2.858,-1.8364 6.8312,-0.4584 10.3245,0.7776c2.1791,0.3836 5.6683,1.4626 6.3477,3.9831z" fill="#e5e5e5" stroke-width="0.85049"/><path d="M196.93445,260.1078c0.9171,0.4611 2.1572,1.443 2.2028,2.6483c-0.1702,1.9019 -2.5063,5.0188 -4.619,5.9169c-1.9768,0.7916 -5.3317,1.436 -6.8381,-0.8264c-1.3579,-3.0569 -1.3162,-9.1932 0.5748,-10.8039c2.3373,-1.9132 6.5257,1.9666 8.6795,3.0651z" fill="#cccccc" stroke-width="0.86283"/></g><g stroke="none" stroke-width="0.81013" stroke-linecap="round"><path d="M222.63485,271.0747c0.469,1.8082 -4.0045,2.415 -5.1038,4.1721c-0.2163,3.5273 -5.8046,3.6391 -6.238,1.6608c-0.5444,-2.7188 2.2019,-7.2766 5.1848,-9.0734c1.86,-1.1852 5.636,1.2508 6.157,3.2405z" fill="#b2b2b2"/><path d="M233.74365,270.7961c-2.8733,0.5081 -9.536,-1.8481 -9.7599,-2.5955c-0.2138,-0.7593 5.2159,-1.785 7.4831,-0.9802c1.6172,0.2281 3.581,3.3342 2.2768,3.5757z" fill="#e5e5e5"/><path d="M236.06115,271.5563c1.9033,2.047 2.7416,3.3638 1.9233,4.9055c-1.5118,2.7977 -4.7855,6.295 -8.4454,6.5727c-2.8861,-0.1014 -7.352,-3.7751 -6.8104,-6.162c0.672,-2.887 6.814,-3.9003 10.055,-5.2041c1.0139,-0.408 2.3779,-0.6531 3.2775,-0.1121z" fill="#cccccc"/></g><g stroke="none" stroke-width="0.61299" stroke-linecap="round"><path d="M306.37665,302.8635c1.3992,0.7929 2.7103,1.9538 3.1182,3.7471c0.3594,1.4078 0.4774,4.0998 -0.8316,3.9738c-2.6115,-0.2814 -5.7765,-1.1174 -7.3962,-3.2609c-1.202,-1.5868 -0.1778,-4.5615 1.2891,-5.9758c1.0366,-1.0261 2.7896,0.4658 3.8205,1.5158z" fill="#b2b2b2"/><path d="M309.79555,297.1172c2.7899,1.284 5.9524,2.7576 7.1365,5.1647c0.4609,1.0039 -1.2739,2.7545 -2.3525,2.4378c-3.151,-0.9911 -5.9773,-2.9322 -8.371,-5.1566c-1.0123,-0.9374 -3.0329,-3.4082 -2.1526,-3.9514c1.4221,-0.8366 4.1487,0.52 5.7396,1.5055z" fill="#e5e5e5"/><path d="M320.47825,307.9908c0.6308,1.7812 -1.7085,4.727 -3.7868,5.4553c-1.8701,0.2702 -3.843,-1.8354 -4.8466,-3.2723c-1.0526,-1.5606 -1.3971,-4.2979 -0.7762,-5.2952c0.4951,-0.5498 1.6949,-0.3527 2.48,-0.0808c1.8499,0.6314 6.1199,1.0285 6.9296,3.193z" fill="#cccccc"/></g><g stroke="none" stroke-width="0.54023" stroke-linecap="round"><path d="M411.01265,297.1207c2.7757,-0.2129 5.4579,0.3776 7.4282,1.5937c1.6466,0.9324 2.6006,2.5434 1.6342,3.183c-1.9449,1.2555 -4.2695,1.8681 -6.8745,1.8681c-2.605,0 -4.9361,-0.5645 -6.8744,-1.8681c-1.1031,-0.738 -1.061,-2.3651 -0.4187,-3.183c2.2139,-2.6909 3.5688,-1.8622 5.1052,-1.5937z" fill="#b2b2b2"/><path d="M415.69735,288.263c3.2092,0.9038 4.8728,2.1639 5.4739,3.3463c0.4121,0.9376 0.4902,2.3936 -0.2593,2.9744c-5.8744,0.4885 -6.6628,-0.5285 -8.003,-1.7593c-0.5908,-0.7499 -0.2737,-2.1023 0.2594,-2.9744c0.5331,-0.8721 1.5238,-1.6176 2.529,-1.587z" fill="#e5e5e5"/><path d="M422.43705,295.1036c1.2692,1.365 1.5475,2.5261 1.2826,3.2712c-0.2621,0.6459 -0.9343,1.3615 -1.654,1.4307c-3.3949,-1.4409 -3.3404,-2.169 -3.4682,-3.1965c0.0343,-0.6511 0.9358,-1.1491 1.654,-1.4307c0.7182,-0.2816 1.5857,-0.4354 2.1856,-0.0747z" fill="#cccccc"/></g><g stroke="none" stroke-linecap="round"><path d="M328.30175,307.45c2.0233,-0.431 4.2547,-0.305 6.0982,1.55c1.4862,1.416 3.7637,4.708 2.365,5.892c-2.8146,2.324 -6.6228,4.513 -9.9487,3.458c-2.465,-0.778 -3.8371,-5.601 -3.5181,-8.9c0.204,-2.365 3.139,-2.273 5.0036,-2z" fill="#b2b2b2" stroke-width="0.89757"/><path d="M327.08385,296.6108c3.7961,-1.236 8.1135,-2.614 11.2191,-0.7776c1.2626,0.7997 0.948,4.8 -0.3753,5.5058c-3.9189,1.978 -8.2784,2.4182 -12.4363,2.0551c-1.7559,-0.1493 -5.7418,-1.2078 -5.3051,-2.8002c0.7382,-2.5205 4.5297,-3.5995 6.8976,-3.9831z" fill="#e5e5e5" stroke-width="0.88586"/><path d="M346.42045,299.3927c2.0549,1.6107 2.1001,7.747 0.6246,10.8039c-1.6369,2.2624 -5.2825,1.618 -7.4306,0.8264c-2.2958,-0.8981 -4.8342,-4.015 -5.0191,-5.9169c0.0495,-1.2053 1.397,-2.1872 2.3935,-2.6483c2.3405,-1.0985 6.8918,-4.9783 9.4316,-3.0651z" fill="#cccccc" stroke-width="0.89242"/></g><g stroke="none" stroke-width="1" stroke-linecap="round"><path d="M193.86265,285.5c3.616,0.961 9.154,8.258 8.4,10c-0.697,1.601 -8.397,-0.482 -10.5,-3.45c-1.457,-2.159 0.466,-7.315 2.1,-6.55z" fill="#b2b2b2"/><path d="M219.47825,284.439c-3.5467,0.6272 -11.771,-2.2813 -12.0474,-3.2039c-0.2639,-0.9372 6.4384,-2.2034 9.237,-1.2099c1.9962,0.2815 4.4203,4.1157 2.8104,4.4138z" fill="#e5e5e5"/><path d="M222.32795,285.4195c2.3495,2.5267 3.3842,4.1521 2.3742,6.0552c-1.8662,3.4535 -5.9072,7.7705 -10.4248,8.1132c-3.5626,-0.1252 -9.0752,-4.6598 -8.4066,-7.6062c0.8294,-3.5637 8.4109,-4.8145 12.4115,-6.4239c1.2516,-0.5036 2.9353,-0.8061 4.0457,-0.1383z" fill="#cccccc"/></g><path d="M16.16265,113.6h172v179.6h-172z" fill="#b88f67" stroke="none" stroke-width="1" stroke-linecap="butt"/><path d="M15.46775,31.95h179.9001v82.4h-179.9001z" fill="#32271c" stroke="none" stroke-width="1.01469" stroke-linecap="butt"/><path d="M41.06265,94.7l30.4,-49.15l36.7,50.1z" fill="#b88f67" stroke="none" stroke-width="1" stroke-linecap="round"/><path d="M41.46265,94.3l66.3,0.5v36.8l-67.5,-0.1z" fill="#b88f67" stroke="none" stroke-width="1" stroke-linecap="butt"/><path d="M15.12375,113.7h173.2v10h-173.2z" fill="#7f6347" stroke="none" stroke-width="0.96815" stroke-linecap="round"/><path d="M88.16265,70.85h6.8v44h-6.8z" fill="#7f6347" stroke="none" stroke-width="1" stroke-linecap="butt"/><path d="M56.96265,69.2h34.8v9.2h-34.8z" fill="#7f6347" stroke="none" stroke-width="1" stroke-linecap="butt"/><path d="M52.96265,71.2h6.8v44h-6.8z" fill="#7f6347" stroke="none" stroke-width="1" stroke-linecap="butt"/><path d="M69.90575,47.4098l6.5005,-4.6631l37.0715,51.6785l-6.5005,4.6631z" fill="#241c14" stroke="none" stroke-width="0.677" stroke-linecap="butt"/><path d="M39.99805,97.8383l-6.5005,-4.6631l37.0715,-51.6785l6.5005,4.6631z" fill="#241c14" stroke="none" stroke-width="0.677" stroke-linecap="butt"/><path d="M15.17375,183h173.2v10h-173.2z" fill="#7f6347" stroke="none" stroke-width="0.96815" stroke-linecap="round"/><path d="M114.67145,121.0843l9.6475,-5.6891l42.1857,71.5379l-9.6475,5.6891z" fill="#7f6347" stroke="none" stroke-width="1.1282" stroke-linecap="butt"/><path d="M104.79755,121.2h11.2v66.4h-11.2z" fill="#7f6347" stroke="none" stroke-width="0.92734" stroke-linecap="butt"/><path d="M57.76265,77.2h31.6v38h-31.6z" fill="#ffffcc" stroke="#483828" stroke-width="2" stroke-linecap="butt"/><path d="M72.76265,113.6v-35.2" fill="none" stroke="#483828" stroke-width="2" stroke-linecap="round"/><path d="M56.96265,88.7h32" fill="none" stroke="#483828" stroke-width="2" stroke-linecap="round"/><path d="M87.76265,101.6l-30,-0.4" fill="none" stroke="#483828" stroke-width="2" stroke-linecap="round"/><path d="M63.36815,190.6222l-9.6475,-5.6891l42.1857,-71.5379l9.6475,5.6891z" fill="#7f6347" stroke="none" stroke-width="1.1282" stroke-linecap="butt"/><path d="M37.64755,117.2h11.2v66.4h-11.2z" fill="#7f6347" stroke="none" stroke-width="0.92734" stroke-linecap="butt"/><path d="M16.41855,244.75h171.6v10h-171.6z" fill="#7f6347" stroke="none" stroke-width="0.96398" stroke-linecap="round"/><path d="M63.57765,192.4h65.6v100.8h-65.6z" fill="#7f6347" stroke="none" stroke-width="1.43348" stroke-linecap="butt"/><path d="M72.45925,195.8h47.6v95.2h-47.6z" fill="#a7825d" stroke="none" stroke-width="1.57061" stroke-linecap="butt"/><path d="M299.66265,42.05h31.2v48.4h-31.2z" fill="#965a4c" stroke="none" stroke-width="1" stroke-linecap="butt"/><path d="M296.46265,37.6h38v11.6h-38z" fill="#77473c" stroke="none" stroke-width="1" stroke-linecap="butt"/><path d="M107.06265,231.6h8v20h-8z" fill="#432822" stroke="none" stroke-width="1" stroke-linecap="butt"/></g></g></svg>