<svg version="1.1" xmlns="http://www.w3.org/2000/svg" xmlns:xlink="http://www.w3.org/1999/xlink" width="129.8" height="121.56385" viewBox="0,0,129.8,121.56385"><g transform="translate(-175.01162,-119.2305)"><g data-paper-data="{&quot;isPaintingLayer&quot;:true}" fill-rule="nonzero" stroke-linejoin="miter" stroke-miterlimit="10" stroke-dasharray="" stroke-dashoffset="0" style="mix-blend-mode: normal"><g stroke="#000000" stroke-width="2" stroke-linecap="round"><path d="M217.53192,180.97554c3.2784,3.3689 5.8332,7.4565 8.4678,11.1063c1.5925,2.2111 4.6566,4.1706 4.5745,6.7828c-0.0152,2.054 -2.9421,2.9746 -4.7987,3.1832c-1.0047,0.1223 -1.6157,-1.0078 -2.4964,-1.8783c-1.9213,-1.9098 -4.086,-3.7583 -5.2616,-6.2103c-1.2044,-2.5089 -1.7934,-5.3012 -2.3985,-8.0137c-0.1166,-1.3913 -0.342,-2.9305 0.2523,-4.1685c0.3294,-0.6086 0.8862,-1.5563 1.6606,-0.8015z" fill="#b7b1ab"/><path d="M230.39352,195.54674c1.1252,0.6888 2.0133,1.8204 2.397,3.2312c0.3837,1.4107 0.1929,2.8316 -0.4303,4.0001c-0.6184,1.1558 -1.713,2.3437 -3.0036,2.4263c-1.8536,-0.0027 -3.4214,-0.3069 -6.2156,-3.8021c-0.1445,-2.1049 0.2342,-3.3457 3.4338,-6.4264c1.2312,-0.4685 2.6928,-0.1167 3.8187,0.5709z" fill="#ffd57a"/></g><path d="M204.71162,120.20574c7.229,0.0209 14.84,3.8365 19.5,9.0236c5.152,5.4492 7.398,13.3092 7.75,20.5166c0.349,7.0298 -0.192,15.2412 -5.194,20.5584c-5.289,5.624 -13.448,8.6018 -22.056,8.6018c-8.608,0 -16.659,-3.0709 -22.056,-8.6018c-5.014,-5.1377 -6.266,-13.1126 -5.944,-20.036c0.35,-7.4658 2.964,-15.4891 8.25,-21.039c4.78,-5.2574 12.351,-9.0454 19.75,-9.0236z" fill="#000000" stroke="#000000" stroke-width="1.95049" stroke-linecap="butt"/><g><g><g stroke="#000000" stroke-width="2"><path d="M218.26162,235.19434h-7.6l-0.5,-20.25h-10.8l4.4,-7.5l13.4,-1.6z" fill="#524032" stroke-linecap="butt"/><path d="M218.76162,235.04434l4.55,4.75h-12.4l-0.35,-14.95l7.8,-0.4z" fill="#000000" stroke-linecap="round"/></g><path d="M199.76162,207.34434l9.6,1.2l-0.15,5.7h-11z" fill="#836f60" stroke="none" stroke-width="1" stroke-linecap="round"/></g><g><g stroke="#000000" stroke-width="2"><path d="M193.16162,205.74434l13.4,1.6l1.3,7.3l-7.7,0.2l-0.5,20.25h-7.6z" fill="#524032" stroke-linecap="butt"/><path d="M191.96162,224.34434l7.8,0.4l-0.35,14.95h-12.4l4.55,-4.75z" fill="#000000" stroke-linecap="round"/></g><path d="M212.11162,214.14434h-11l-0.15,-5.7l9.6,-1.2z" fill="#836f60" stroke="none" stroke-width="1" stroke-linecap="round"/></g></g><g stroke="#000000" stroke-width="2" stroke-linecap="round"><path d="M193.40192,182.02704c0.5943,1.238 0.3689,2.7772 0.2523,4.1685c-0.6051,2.7125 -1.1941,5.5048 -2.3985,8.0137c-1.1756,2.452 -3.3403,4.3005 -5.2616,6.2103c-0.8807,0.8705 -1.4917,2.0006 -2.4964,1.8783c-1.8566,-0.2086 -4.7835,-1.1292 -4.7987,-3.1832c-0.0821,-2.6122 2.982,-4.5717 4.5745,-6.7828c2.6346,-3.6498 5.1894,-7.7374 8.4678,-11.1063c0.7744,-0.7548 1.3312,0.1929 1.6606,0.8015z" fill="#b7b1ab"/><path d="M182.69842,195.22584c3.1996,3.0807 3.5783,4.3215 3.4338,6.4264c-2.7942,3.4952 -4.362,3.7994 -6.2156,3.8021c-1.2906,-0.0826 -2.3852,-1.2705 -3.0036,-2.4263c-0.6232,-1.1685 -0.814,-2.5894 -0.4303,-4.0001c0.3837,-1.4108 1.2718,-2.5424 2.397,-3.2312c1.1259,-0.6876 2.5875,-1.0394 3.8187,-0.5709z" fill="#ffd57a"/></g><path d="M198.71162,171.24434l11.95,-0.15l6.3,9.4l4.6,32.25l-33.4,0.6l4.3,-32.6z" fill="#b7b1ab" stroke="#000000" stroke-width="2" stroke-linecap="round"/><path d="M181.11162,149.94434c1.407,0 2.682,0.712 3.605,1.861c0.924,1.15 1.495,2.737 1.495,4.489c0,1.752 -0.571,3.339 -1.495,4.489c-0.923,1.149 -2.198,1.861 -3.605,1.861c-1.407,0 -2.682,-0.712 -3.605,-1.861c-0.924,-1.15 -1.495,-2.737 -1.495,-4.489c0,-1.752 0.571,-3.339 1.495,-4.489c0.923,-1.149 2.198,-1.861 3.605,-1.861z" fill="#ffd57a" stroke="#000000" stroke-width="2" stroke-linecap="butt"/><path d="M204.71162,174.49434c1.242,0 2.367,0.532 3.181,1.392c0.815,0.86 1.319,2.048 1.319,3.358c0,1.31 -0.504,2.498 -1.319,3.358c-0.814,0.86 -1.939,1.392 -3.181,1.392c-1.242,0 -2.367,-0.532 -3.181,-1.392c-0.815,-0.86 -1.319,-2.048 -1.319,-3.358c0,-1.31 0.504,-2.498 1.319,-3.358c0.814,-0.86 1.939,-1.392 3.181,-1.392z" fill="#ffd57a" stroke="#000000" stroke-width="2" stroke-linecap="round"/><path d="M227.71162,150.34434c1.407,0 2.682,0.712 3.605,1.861c0.924,1.15 1.495,2.737 1.495,4.489c0,1.752 -0.571,3.339 -1.495,4.489c-0.923,1.149 -2.198,1.861 -3.605,1.861c-1.407,0 -2.682,-0.712 -3.605,-1.861c-0.924,-1.15 -1.495,-2.737 -1.495,-4.489c0,-1.752 0.571,-3.339 1.495,-4.489c0.923,-1.149 2.198,-1.861 3.605,-1.861z" fill="#ffd57a" stroke="#000000" stroke-width="2" stroke-linecap="butt"/><path d="M204.96162,132.24434c5.757,-0.128 14.392,-3.994 17.25,1c5.974,10.441 4.672,23.719 3.75,35.5c-0.234,3.434 -4.116,5.667 -7,7.25c-4.315,2.366 -9.078,4.796 -14,4.75c-5.618,-0.055 -11.747,-1.986 -16.5,-5.25c-3.43,-2.356 -6.781,-6.495 -7,-10.75c-0.134,-10.664 -0.18,-22.765 6,-31.5c3.371,-4.764 11.66,-1.128 17.5,-1z" fill="#ffd57a" stroke="#000000" stroke-width="2" stroke-linecap="butt"/><g><path d="M192.21162,145.49434c1.586,0 3.024,0.672 4.065,1.758c1.041,1.087 1.685,2.587 1.685,4.242c0,1.655 -0.644,3.155 -1.685,4.242c-1.041,1.086 -2.479,1.758 -4.065,1.758c-1.586,0 -3.024,-0.672 -4.065,-1.758c-1.041,-1.087 -1.685,-2.587 -1.685,-4.242c0,-1.655 0.644,-3.155 1.685,-4.242c1.041,-1.086 2.479,-1.758 4.065,-1.758z" fill="#ffffff" stroke="#000000" stroke-width="2" stroke-linecap="butt"/><path d="M189.83662,145.99434c0.988,-0.107 2.869,-0.49 3.125,0.5c0.498,3.838 0.482,9.417 -1.25,11.5c-1.006,1.166 -3.268,-2.877 -4.438,-4.532c-0.627,-0.889 -1.062,-1.886 -1.062,-3.093c0,-1.207 0.406,-2.301 1.062,-3.093c0.657,-0.792 1.61,-1.18 2.563,-1.282z" fill="#000000" stroke="none" stroke-width="1" stroke-linecap="round"/></g><g><path d="M216.71162,145.49434c1.586,0 3.024,0.672 4.065,1.758c1.041,1.087 1.685,2.587 1.685,4.242c0,1.655 -0.644,3.155 -1.685,4.242c-1.041,1.086 -2.479,1.758 -4.065,1.758c-1.586,0 -3.024,-0.672 -4.065,-1.758c-1.041,-1.087 -1.685,-2.587 -1.685,-4.242c0,-1.655 0.644,-3.155 1.685,-4.242c1.041,-1.086 2.479,-1.758 4.065,-1.758z" fill="#ffffff" stroke="#000000" stroke-width="2" stroke-linecap="butt"/><path d="M214.33662,145.99434c0.988,-0.107 2.869,-0.49 3.125,0.5c0.498,3.838 0.482,9.417 -1.25,11.5c-1.006,1.166 -3.268,-2.877 -4.438,-4.532c-0.627,-0.889 -1.062,-1.886 -1.062,-3.093c0,-1.207 0.406,-2.301 1.062,-3.093c0.657,-0.792 1.61,-1.18 2.563,-1.282z" fill="#000000" stroke="none" stroke-width="1" stroke-linecap="round"/></g><path d="M203.96162,147.49434l-0.25,12.75" fill="none" stroke="#000000" stroke-width="2" stroke-linecap="round"/><path d="M210.21162,168.74434c0,0 -3.138,2.5 -5,2.5c-1.501,0 -3.75,-2.5 -3.75,-2.5" fill="none" stroke="#000000" stroke-width="2" stroke-linecap="round"/><path d="M188.96162,137.49434h9.25v3.75h-9.25z" fill="#000000" stroke="none" stroke-width="1" stroke-linecap="butt"/><path d="M210.36162,137.34434h9.25v3.75h-9.25z" fill="#000000" stroke="none" stroke-width="1" stroke-linecap="round"/><path d="M205.21162,198.24434l-0.5,-14" fill="none" stroke="#000000" stroke-width="2" stroke-linecap="round"/><path d="M200.78552,190.67914c0.3333,0 0.6359,0.1513 0.8543,0.3959c0.2189,0.2445 0.3543,0.5823 0.3543,0.9548c0,0.3726 -0.1354,0.7104 -0.3543,0.9549c-0.2184,0.2446 -0.521,0.3959 -0.8543,0.3959c-0.3332,0 -0.6358,-0.1513 -0.8542,-0.3959c-0.2189,-0.2445 -0.3543,-0.5823 -0.3543,-0.9549c0,-0.3725 0.1354,-0.7103 0.3543,-0.9548c0.2184,-0.2446 0.521,-0.3959 0.8542,-0.3959z" fill="#96918c" stroke="none" stroke-width="0.56872" stroke-linecap="butt"/><path d="M200.78552,187.37914c0.3333,0 0.6359,0.1513 0.8543,0.3959c0.2189,0.2445 0.3543,0.5823 0.3543,0.9548c0,0.3726 -0.1354,0.7104 -0.3543,0.9549c-0.2184,0.2446 -0.521,0.3959 -0.8543,0.3959c-0.3332,0 -0.6358,-0.1513 -0.8542,-0.3959c-0.2189,-0.2445 -0.3543,-0.5823 -0.3543,-0.9549c0,-0.3725 0.1354,-0.7103 0.3543,-0.9548c0.2184,-0.2446 0.521,-0.3959 0.8542,-0.3959z" fill="#96918c" stroke="none" stroke-width="0.56872" stroke-linecap="butt"/><path d="M199.06572,200.74814l-5.1905,9.1121" fill="none" stroke="#96918c" stroke-width="0.92275" stroke-linecap="round"/><path d="M196.41282,210.09094l4.037,-7.9587" fill="none" stroke="#96918c" stroke-width="0.92275" stroke-linecap="round"/><path d="M202.29532,206.51524l-6.8053,-2.6529" fill="none" stroke="#96918c" stroke-width="0.92275" stroke-linecap="round"/><path d="M192.49112,206.16924l7.4973,2.6529" fill="none" stroke="#96918c" stroke-width="0.92275" stroke-linecap="round"/><g stroke="#000000" stroke-width="2" stroke-linecap="round"><path d="M288.53192,180.97555c3.2784,3.3689 5.8332,7.4565 8.4678,11.1063c1.5925,2.2111 4.6566,4.1706 4.5745,6.7828c-0.0152,2.054 -2.9421,2.9746 -4.7987,3.1832c-1.0047,0.1223 -1.6157,-1.0078 -2.4964,-1.8783c-1.9213,-1.9098 -4.086,-3.7583 -5.2616,-6.2103c-1.2044,-2.5089 -1.7934,-5.3012 -2.3985,-8.0137c-0.1166,-1.3913 -0.342,-2.9305 0.2523,-4.1685c0.3294,-0.6086 0.8862,-1.5563 1.6606,-0.8015z" fill="#b7b1ab"/><path d="M301.39352,195.54675c1.1252,0.6888 2.0133,1.8204 2.397,3.2312c0.3837,1.4107 0.1929,2.8316 -0.4303,4.0001c-0.6184,1.1558 -1.713,2.3437 -3.0036,2.4263c-1.8536,-0.0027 -3.4214,-0.3069 -6.2156,-3.8021c-0.1445,-2.1049 0.2342,-3.3457 3.4338,-6.4264c1.2312,-0.4685 2.6928,-0.1167 3.8187,0.5709z" fill="#ffd57a"/></g><path d="M275.71162,120.20575c7.229,0.0209 14.84,3.8365 19.5,9.0236c5.152,5.4492 7.398,13.3092 7.75,20.5166c0.349,7.0298 -0.192,15.2412 -5.194,20.5584c-5.289,5.624 -13.448,8.6018 -22.056,8.6018c-8.608,0 -16.659,-3.0709 -22.056,-8.6018c-5.014,-5.1377 -6.266,-13.1126 -5.944,-20.036c0.35,-7.4658 2.964,-15.4891 8.25,-21.039c4.78,-5.2574 12.351,-9.0454 19.75,-9.0236z" fill="#000000" stroke="#000000" stroke-width="1.95049" stroke-linecap="butt"/><g><g><g stroke="#000000" stroke-width="2"><path d="M289.26162,235.19435h-7.6l-0.5,-20.25h-10.8l4.4,-7.5l13.4,-1.6z" fill="#524032" stroke-linecap="butt"/><path d="M289.76162,235.04435l4.55,4.75h-12.4l-0.35,-14.95l7.8,-0.4z" fill="#000000" stroke-linecap="round"/></g><path d="M270.76162,207.34435l9.6,1.2l-0.15,5.7h-11z" fill="#836f60" stroke="none" stroke-width="1" stroke-linecap="round"/></g><g><g stroke="#000000" stroke-width="2"><path d="M264.16162,205.74435l13.4,1.6l1.3,7.3l-7.7,0.2l-0.5,20.25h-7.6z" fill="#524032" stroke-linecap="butt"/><path d="M262.96162,224.34435l7.8,0.4l-0.35,14.95h-12.4l4.55,-4.75z" fill="#000000" stroke-linecap="round"/></g><path d="M283.11162,214.14435h-11l-0.15,-5.7l9.6,-1.2z" fill="#836f60" stroke="none" stroke-width="1" stroke-linecap="round"/></g></g><g stroke="#000000" stroke-width="2" stroke-linecap="round"><path d="M264.40192,182.02705c0.5943,1.238 0.3689,2.7772 0.2523,4.1685c-0.6051,2.7125 -1.1941,5.5048 -2.3985,8.0137c-1.1756,2.452 -3.3403,4.3005 -5.2616,6.2103c-0.8807,0.8705 -1.4917,2.0006 -2.4964,1.8783c-1.8566,-0.2086 -4.7835,-1.1292 -4.7987,-3.1832c-0.0821,-2.6122 2.982,-4.5717 4.5745,-6.7828c2.6346,-3.6498 5.1894,-7.7374 8.4678,-11.1063c0.7744,-0.7548 1.3312,0.1929 1.6606,0.8015z" fill="#b7b1ab"/><path d="M253.69842,195.22585c3.1996,3.0807 3.5783,4.3215 3.4338,6.4264c-2.7942,3.4952 -4.362,3.7994 -6.2156,3.8021c-1.2906,-0.0826 -2.3852,-1.2705 -3.0036,-2.4263c-0.6232,-1.1685 -0.814,-2.5894 -0.4303,-4.0001c0.3837,-1.4108 1.2718,-2.5424 2.397,-3.2312c1.1259,-0.6876 2.5875,-1.0394 3.8187,-0.5709z" fill="#ffd57a"/></g><path d="M269.71162,171.24435l11.95,-0.15l6.3,9.4l4.6,32.25l-33.4,0.6l4.3,-32.6z" fill="#b7b1ab" stroke="#000000" stroke-width="2" stroke-linecap="round"/><path d="M252.11162,149.94435c1.407,0 2.682,0.712 3.605,1.861c0.924,1.15 1.495,2.737 1.495,4.489c0,1.752 -0.571,3.339 -1.495,4.489c-0.923,1.149 -2.198,1.861 -3.605,1.861c-1.407,0 -2.682,-0.712 -3.605,-1.861c-0.924,-1.15 -1.495,-2.737 -1.495,-4.489c0,-1.752 0.571,-3.339 1.495,-4.489c0.923,-1.149 2.198,-1.861 3.605,-1.861z" fill="#ffd57a" stroke="#000000" stroke-width="2" stroke-linecap="butt"/><path d="M275.71162,174.49435c1.242,0 2.367,0.532 3.181,1.392c0.815,0.86 1.319,2.048 1.319,3.358c0,1.31 -0.504,2.498 -1.319,3.358c-0.814,0.86 -1.939,1.392 -3.181,1.392c-1.242,0 -2.367,-0.532 -3.181,-1.392c-0.815,-0.86 -1.319,-2.048 -1.319,-3.358c0,-1.31 0.504,-2.498 1.319,-3.358c0.814,-0.86 1.939,-1.392 3.181,-1.392z" fill="#ffd57a" stroke="#000000" stroke-width="2" stroke-linecap="round"/><path d="M298.71162,150.34435c1.407,0 2.682,0.712 3.605,1.861c0.924,1.15 1.495,2.737 1.495,4.489c0,1.752 -0.571,3.339 -1.495,4.489c-0.923,1.149 -2.198,1.861 -3.605,1.861c-1.407,0 -2.682,-0.712 -3.605,-1.861c-0.924,-1.15 -1.495,-2.737 -1.495,-4.489c0,-1.752 0.571,-3.339 1.495,-4.489c0.923,-1.149 2.198,-1.861 3.605,-1.861z" fill="#ffd57a" stroke="#000000" stroke-width="2" stroke-linecap="butt"/><path d="M275.96162,132.24435c5.757,-0.128 14.392,-3.994 17.25,1c5.974,10.441 4.672,23.719 3.75,35.5c-0.234,3.434 -4.116,5.667 -7,7.25c-4.315,2.366 -9.078,4.796 -14,4.75c-5.618,-0.055 -11.747,-1.986 -16.5,-5.25c-3.43,-2.356 -6.781,-6.495 -7,-10.75c-0.134,-10.664 -0.18,-22.765 6,-31.5c3.371,-4.764 11.66,-1.128 17.5,-1z" fill="#ffd57a" stroke="#000000" stroke-width="2" stroke-linecap="butt"/><g><path d="M263.21162,145.49435c1.586,0 3.024,0.672 4.065,1.758c1.041,1.087 1.685,2.587 1.685,4.242c0,1.655 -0.644,3.155 -1.685,4.242c-1.041,1.086 -2.479,1.758 -4.065,1.758c-1.586,0 -3.024,-0.672 -4.065,-1.758c-1.041,-1.087 -1.685,-2.587 -1.685,-4.242c0,-1.655 0.644,-3.155 1.685,-4.242c1.041,-1.086 2.479,-1.758 4.065,-1.758z" fill="#ffffff" stroke="#000000" stroke-width="2" stroke-linecap="butt"/><path d="M260.83662,145.99435c0.988,-0.107 2.869,-0.49 3.125,0.5c0.498,3.838 0.482,9.417 -1.25,11.5c-1.006,1.166 -3.268,-2.877 -4.438,-4.532c-0.627,-0.889 -1.062,-1.886 -1.062,-3.093c0,-1.207 0.406,-2.301 1.062,-3.093c0.657,-0.792 1.61,-1.18 2.563,-1.282z" fill="#000000" stroke="none" stroke-width="1" stroke-linecap="round"/></g><g><path d="M287.71162,145.49435c1.586,0 3.024,0.672 4.065,1.758c1.041,1.087 1.685,2.587 1.685,4.242c0,1.655 -0.644,3.155 -1.685,4.242c-1.041,1.086 -2.479,1.758 -4.065,1.758c-1.586,0 -3.024,-0.672 -4.065,-1.758c-1.041,-1.087 -1.685,-2.587 -1.685,-4.242c0,-1.655 0.644,-3.155 1.685,-4.242c1.041,-1.086 2.479,-1.758 4.065,-1.758z" fill="#ffffff" stroke="#000000" stroke-width="2" stroke-linecap="butt"/><path d="M285.33662,145.99435c0.988,-0.107 2.869,-0.49 3.125,0.5c0.498,3.838 0.482,9.417 -1.25,11.5c-1.006,1.166 -3.268,-2.877 -4.438,-4.532c-0.627,-0.889 -1.062,-1.886 -1.062,-3.093c0,-1.207 0.406,-2.301 1.062,-3.093c0.657,-0.792 1.61,-1.18 2.563,-1.282z" fill="#000000" stroke="none" stroke-width="1" stroke-linecap="round"/></g><path d="M274.71162,160.24435l0.25,-12.75" fill="none" stroke="#000000" stroke-width="2" stroke-linecap="round"/><path d="M280.13552,137.70065l2.6444,0.7678l7.0304,-1.3366l0.8542,3.6514l-9.0068,2.1071z" fill="#000000" stroke="none" stroke-width="1" stroke-linecap="round"/><path d="M275.71162,184.24435l0.5,14" fill="none" stroke="#000000" stroke-width="2" stroke-linecap="round"/><path d="M271.78552,190.67915c0.3333,0 0.6359,0.1513 0.8543,0.3959c0.2189,0.2445 0.3543,0.5823 0.3543,0.9548c0,0.3726 -0.1354,0.7104 -0.3543,0.9549c-0.2184,0.2446 -0.521,0.3959 -0.8543,0.3959c-0.3332,0 -0.6358,-0.1513 -0.8542,-0.3959c-0.2189,-0.2445 -0.3543,-0.5823 -0.3543,-0.9549c0,-0.3725 0.1354,-0.7103 0.3543,-0.9548c0.2184,-0.2446 0.521,-0.3959 0.8542,-0.3959z" fill="#96918c" stroke="none" stroke-width="0.56872" stroke-linecap="butt"/><path d="M271.78552,187.37915c0.3333,0 0.6359,0.1513 0.8543,0.3959c0.2189,0.2445 0.3543,0.5823 0.3543,0.9548c0,0.3726 -0.1354,0.7104 -0.3543,0.9549c-0.2184,0.2446 -0.521,0.3959 -0.8543,0.3959c-0.3332,0 -0.6358,-0.1513 -0.8542,-0.3959c-0.2189,-0.2445 -0.3543,-0.5823 -0.3543,-0.9549c0,-0.3725 0.1354,-0.7103 0.3543,-0.9548c0.2184,-0.2446 0.521,-0.3959 0.8542,-0.3959z" fill="#96918c" stroke="none" stroke-width="0.56872" stroke-linecap="butt"/><path d="M270.06572,200.74815l-5.1905,9.1121" fill="none" stroke="#96918c" stroke-width="0.92275" stroke-linecap="round"/><path d="M267.41282,210.09095l4.037,-7.9587" fill="none" stroke="#96918c" stroke-width="0.92275" stroke-linecap="round"/><path d="M273.29532,206.51525l-6.8053,-2.6529" fill="none" stroke="#96918c" stroke-width="0.92275" stroke-linecap="round"/><path d="M270.98842,208.82215l-7.4973,-2.6529" fill="none" stroke="#96918c" stroke-width="0.92275" stroke-linecap="round"/><path d="M275.95922,166.74435c1.9346,0 3.6875,0.49 4.9571,1.282c1.2687,0.792 2.0548,1.886 2.0548,3.093c0,1.207 -0.7861,2.301 -2.0548,3.093c-1.2696,0.792 -3.0225,1.282 -4.9571,1.282c-1.9345,0 -3.6875,-0.49 -4.957,-1.282c-1.2688,-0.792 -2.0549,-1.886 -2.0549,-3.093c0,-1.207 0.7861,-2.301 2.0549,-3.093c1.2695,-0.792 3.0225,-1.282 4.957,-1.282z" fill="#ffffff" stroke="#000000" stroke-width="1.75772" stroke-linecap="butt"/><path d="M275.84672,170.24435c1.7567,0 3.348,0.263 4.5002,0.689c1.1529,0.425 1.8659,1.013 1.8659,1.661c0,0.648 -0.713,1.236 -1.8659,1.661c-1.1522,0.426 -2.7435,0.689 -4.5002,0.689c-1.7567,0 -3.348,-0.263 -4.5002,-0.689c-1.1529,-0.425 -1.8659,-1.013 -1.8659,-1.661c0,-0.648 0.713,-1.236 1.8659,-1.661c1.1522,-0.426 2.7435,-0.689 4.5002,-0.689z" fill="#000000" stroke="none" stroke-width="0.87886" stroke-linecap="round"/><path d="M269.41982,143.12335l-9.0774,-1.7787l0.7211,-3.68l7.0742,1.0804l2.6149,-0.8633z" fill="#000000" stroke="none" stroke-width="1" stroke-linecap="round"/></g></g></svg>