<svg version="1.1" xmlns="http://www.w3.org/2000/svg" xmlns:xlink="http://www.w3.org/1999/xlink" width="160.6289" height="121.56386" viewBox="0,0,160.6289,121.56386"><g transform="translate(-159.58666,-119.23045)"><g data-paper-data="{&quot;isPaintingLayer&quot;:true}" fill-rule="nonzero" stroke-linejoin="miter" stroke-miterlimit="10" stroke-dasharray="" stroke-dashoffset="0" style="mix-blend-mode: normal"><path d="M195.28666,120.20571c8.608,0 16.408,3.2884 22.056,8.6018c5.648,5.3134 9.144,12.651 9.144,20.7484c0,8.0974 -3.496,15.435 -9.144,20.7484c-5.648,5.3134 -13.448,8.6018 -22.056,8.6018c-8.608,0 -16.408,-3.2884 -22.056,-8.6018c-5.648,-5.3134 -9.144,-12.651 -9.144,-20.7484c0,-8.0974 3.496,-15.435 9.144,-20.7484c5.648,-5.3134 13.448,-8.6018 22.056,-8.6018z" fill="#bfab81" stroke="#000000" stroke-width="1.95049" stroke-linecap="butt"/><path d="M209.23746,181.27091c4.1506,2.2068 7.8317,5.319 11.455,7.9898c2.1917,1.6191 5.7078,2.5493 6.4273,5.0618c0.6129,1.9605 -1.8931,3.731 -3.5973,4.4966c-0.9193,0.4233 -1.8462,-0.4663 -2.9507,-1.0262c-2.4127,-1.2319 -5.0386,-2.331 -6.9068,-4.3068c-1.9131,-2.0212 -3.3266,-4.5003 -4.7312,-6.8984c-0.536,-1.2892 -1.2207,-2.6861 -1.0328,-4.0464c0.1278,-0.6801 0.3687,-1.7526 1.3365,-1.2704z" fill="#f1e9d9" stroke="#000000" stroke-width="2" stroke-linecap="round"/><path d="M228.81856,193.74671c1.1252,0.6888 2.0133,1.8204 2.397,3.2312c0.3836,1.4107 0.1928,2.8316 -0.4303,4.0001c-0.6184,1.1558 -1.713,2.3437 -3.0036,2.4263c-1.8517,-0.0032 -3.408,-0.3147 -6.2156,-3.8021c-0.1457,-2.1055 0.2508,-3.3492 3.4338,-6.4264c1.2312,-0.4685 2.6928,-0.1167 3.8187,0.5709z" fill="#ffd57a" stroke="#000000" stroke-width="2" stroke-linecap="round"/><path d="M217.04226,164.56421c1.5424,1.372 4.3306,1.2864 5.2617,2.8834c1.7158,2.9722 3.0697,6.6276 2.7579,9.9495c-0.1906,1.9938 -3.2926,3.1036 -3.4096,4.9734c-0.1156,1.6551 3.3377,3.6478 2.7053,4.2192c-0.6378,0.5708 -3.776,-1.1603 -5.3747,-2.2611c-2.1933,-1.5098 -5.4768,-2.9134 -6.2299,-5.6945c-1.0853,-4.4433 0.284,-9.285 1.2403,-13.9163c0.2522,-1.2198 1.4671,-2.5587 2.6358,-2.6584c0.6763,-0.0501 -0.0924,1.9312 0.4132,2.5048z" fill="#bfab81" stroke="#000000" stroke-width="2" stroke-linecap="round"/><path d="M185.42236,181.09121c0.1879,1.3604 -0.4969,2.7573 -1.0328,4.0465c-1.4046,2.3981 -2.8181,4.8772 -4.7312,6.8984c-1.8682,1.9758 -4.4941,3.0749 -6.9068,4.3067c-1.1045,0.56 -2.0314,1.4495 -2.9507,1.0263c-1.7042,-0.7656 -4.2102,-2.5361 -3.5973,-4.4966c0.7195,-2.5125 4.2356,-3.4427 6.4273,-5.0618c3.6233,-2.6708 7.3044,-5.783 11.455,-7.9898c0.9678,-0.4822 1.2087,0.5902 1.3365,1.2703z" fill="#f1e9d9" stroke="#000000" stroke-width="2" stroke-linecap="round"/><path d="M168.27346,191.67581c3.1996,3.0807 3.5783,4.3215 3.4338,6.4264c-2.7942,3.4952 -4.362,3.7994 -6.2156,3.8021c-1.2906,-0.0826 -2.3852,-1.2705 -3.0036,-2.4263c-0.6232,-1.1685 -0.814,-2.5894 -0.4303,-4.0001c0.3837,-1.4108 1.2718,-2.5424 2.397,-3.2312c1.1259,-0.6876 2.5875,-1.0394 3.8187,-0.5709z" fill="#ffd57a" stroke="#000000" stroke-width="2" stroke-linecap="round"/><g><g><g stroke="#000000" stroke-width="2"><path d="M208.83666,235.19431h-7.6l-0.5,-20.25h-10.8l4.4,-7.5l13.4,-1.6z" fill="#836f60" stroke-linecap="butt"/><path d="M209.33666,235.04431l4.55,4.75h-12.4l-0.35,-14.95l7.8,-0.4z" fill="#433931" stroke-linecap="round"/></g><path d="M190.33666,207.34431l9.6,1.2l-0.15,5.7h-11z" fill="#836f60" stroke="none" stroke-width="1" stroke-linecap="round"/></g><g><g stroke="#000000" stroke-width="2"><path d="M183.73666,205.74431l13.4,1.6l1.3,7.3l-7.7,0.2l-0.5,20.25h-7.6z" fill="#836f60" stroke-linecap="butt"/><path d="M182.53666,224.34431l7.8,0.4l-0.35,14.95h-12.4l4.55,-4.75z" fill="#433931" stroke-linecap="round"/></g><path d="M202.68666,214.14431h-11l-0.15,-5.7l9.6,-1.2z" fill="#836f60" stroke="none" stroke-width="1" stroke-linecap="round"/></g></g><path d="M186.23666,171.69431l15,-0.6l8.7,9.25l2.2,32.4l-33.4,0.6l1.2,-33.4z" fill="#f1e9d9" stroke="#000000" stroke-width="2" stroke-linecap="round"/><path d="M183.93666,176.81861l7.2,7.5074l3.6,10.8208l3.8,-11.1982l7.2,-8.0107l2,37.2015l-24.2,0.2097z" fill="#f1c4b0" stroke="#000000" stroke-width="1.84587" stroke-linecap="butt"/><path d="M165.68666,146.6943c1.407,0 2.682,0.712 3.605,1.861c0.924,1.15 1.495,2.737 1.495,4.489c0,1.752 -0.571,3.339 -1.495,4.489c-0.923,1.149 -2.198,1.861 -3.605,1.861c-1.407,0 -2.682,-0.712 -3.605,-1.861c-0.924,-1.15 -1.495,-2.737 -1.495,-4.489c0,-1.752 0.571,-3.339 1.495,-4.489c0.923,-1.149 2.198,-1.861 3.605,-1.861z" fill="#ffd57a" stroke="#000000" stroke-width="2" stroke-linecap="butt"/><path d="M225.03666,147.84431c1.407,0 2.682,0.712 3.605,1.861c0.924,1.15 1.495,2.737 1.495,4.489c0,1.752 -0.571,3.339 -1.495,4.489c-0.923,1.149 -2.198,1.861 -3.605,1.861c-1.407,0 -2.682,-0.712 -3.605,-1.861c-0.924,-1.15 -1.495,-2.737 -1.495,-4.489c0,-1.752 0.571,-3.339 1.495,-4.489c0.923,-1.149 2.198,-1.861 3.605,-1.861z" fill="#ffd57a" stroke="#000000" stroke-width="2" stroke-linecap="butt"/><path d="M195.53666,124.44431c7.822,0 14.909,3.154 20.041,8.25c5.132,5.096 8.309,12.134 8.309,19.9c0,7.766 -3.177,14.804 -8.309,19.9c-5.132,5.096 -12.219,8.25 -20.041,8.25c-7.822,0 -14.909,-3.154 -20.041,-8.25c-5.132,-5.096 -8.309,-12.134 -8.309,-19.9c0,-7.766 3.177,-14.804 8.309,-19.9c5.132,-5.096 12.219,-8.25 20.041,-8.25z" fill="#ffd57a" stroke="#000000" stroke-width="2" stroke-linecap="butt"/><path d="M194.08666,144.04431l0.1,14.8" fill="none" stroke="#000000" stroke-width="2" stroke-linecap="round"/><path d="M207.68666,144.84431c0.579,0 1.104,0.28 1.485,0.733c0.38,0.452 0.615,1.077 0.615,1.767c0,0.69 -0.235,1.315 -0.615,1.767c-0.381,0.453 -0.906,0.733 -1.485,0.733c-0.579,0 -1.104,-0.28 -1.485,-0.733c-0.38,-0.452 -0.615,-1.077 -0.615,-1.767c0,-0.69 0.235,-1.315 0.615,-1.767c0.381,-0.453 0.906,-0.733 1.485,-0.733z" fill="#000000" stroke="none" stroke-width="1" stroke-linecap="butt"/><path d="M181.18666,145.59431c0.579,0 1.104,0.28 1.485,0.733c0.38,0.452 0.615,1.077 0.615,1.767c0,0.69 -0.235,1.315 -0.615,1.767c-0.381,0.453 -0.906,0.733 -1.485,0.733c-0.579,0 -1.104,-0.28 -1.485,-0.733c-0.38,-0.452 -0.615,-1.077 -0.615,-1.767c0,-0.69 0.235,-1.315 0.615,-1.767c0.381,-0.453 0.906,-0.733 1.485,-0.733z" fill="#000000" stroke="none" stroke-width="1" stroke-linecap="round"/><path d="M199.68666,168.24431c0,0 -0.54,1.172 -1,1.6c-0.502,0.467 -1.124,0.887 -1.8,1c-1.38,0.23 -2.819,0.223 -4.2,0c-0.735,-0.119 -2,-1 -2,-1" fill="none" stroke="#000000" stroke-width="2" stroke-linecap="round"/><path d="M177.13666,139.6943h8v3.2h-8z" fill="#000000" stroke="none" stroke-width="1" stroke-linecap="butt"/><path d="M203.48666,138.6943h8v3.2h-8z" fill="#000000" stroke="none" stroke-width="1" stroke-linecap="butt"/><path d="M211.08666,152.14431c1.628,0 3.103,0.571 4.171,1.495c1.068,0.923 1.729,2.198 1.729,3.605c0,1.407 -0.661,2.682 -1.729,3.605c-1.068,0.924 -2.543,1.495 -4.171,1.495c-1.628,0 -3.103,-0.571 -4.171,-1.495c-1.068,-0.923 -1.729,-2.198 -1.729,-3.605c0,-1.407 0.661,-2.682 1.729,-3.605c1.068,-0.924 2.543,-1.495 4.171,-1.495z" fill="none" stroke="#f1c973" stroke-width="2" stroke-linecap="butt"/><path d="M180.53666,153.34431c1.628,0 3.103,0.571 4.171,1.495c1.068,0.923 1.729,2.198 1.729,3.605c0,1.407 -0.661,2.682 -1.729,3.605c-1.068,0.924 -2.543,1.495 -4.171,1.495c-1.628,0 -3.103,-0.571 -4.171,-1.495c-1.068,-0.923 -1.729,-2.198 -1.729,-3.605c0,-1.407 0.661,-2.682 1.729,-3.605c1.068,-0.924 2.543,-1.495 4.171,-1.495z" fill="none" stroke="#f1c973" stroke-width="2" stroke-linecap="round"/><path d="M283.28666,120.2057c8.608,0 16.408,3.2884 22.056,8.6018c5.648,5.3134 9.144,12.651 9.144,20.7484c0,8.0974 -3.496,15.435 -9.144,20.7484c-5.648,5.3134 -13.448,8.6018 -22.056,8.6018c-8.608,0 -16.408,-3.2884 -22.056,-8.6018c-5.648,-5.3134 -9.144,-12.651 -9.144,-20.7484c0,-8.0974 3.496,-15.435 9.144,-20.7484c5.648,-5.3134 13.448,-8.6018 22.056,-8.6018z" fill="#bfab81" stroke="#000000" stroke-width="1.95049" stroke-linecap="butt"/><path d="M297.23746,181.2709c4.1506,2.2068 7.8317,5.319 11.455,7.9898c2.1917,1.6191 5.7078,2.5493 6.4273,5.0618c0.6129,1.9605 -1.8931,3.731 -3.5973,4.4966c-0.9193,0.4233 -1.8462,-0.4663 -2.9507,-1.0262c-2.4127,-1.2319 -5.0386,-2.331 -6.9068,-4.3068c-1.9131,-2.0212 -3.3266,-4.5003 -4.7312,-6.8984c-0.536,-1.2892 -1.2207,-2.6861 -1.0328,-4.0464c0.1278,-0.6801 0.3687,-1.7526 1.3365,-1.2704z" fill="#f1e9d9" stroke="#000000" stroke-width="2" stroke-linecap="round"/><path d="M316.81856,193.7467c1.1252,0.6888 2.0133,1.8204 2.397,3.2312c0.3836,1.4107 0.1928,2.8316 -0.4303,4.0001c-0.6184,1.1558 -1.713,2.3437 -3.0036,2.4263c-1.8517,-0.0032 -3.408,-0.3147 -6.2156,-3.8021c-0.1457,-2.1055 0.2508,-3.3492 3.4338,-6.4264c1.2312,-0.4685 2.6928,-0.1167 3.8187,0.5709z" fill="#ffd57a" stroke="#000000" stroke-width="2" stroke-linecap="round"/><path d="M305.04226,164.56419c1.5424,1.372 4.3306,1.2864 5.2617,2.8834c1.7158,2.9722 3.0697,6.6276 2.7579,9.9495c-0.1906,1.9938 -3.2926,3.1036 -3.4096,4.9734c-0.1156,1.6551 3.3377,3.6478 2.7053,4.2192c-0.6378,0.5708 -3.776,-1.1603 -5.3747,-2.2611c-2.1933,-1.5098 -5.4768,-2.9134 -6.2299,-5.6945c-1.0853,-4.4433 0.284,-9.285 1.2403,-13.9163c0.2522,-1.2198 1.4671,-2.5587 2.6358,-2.6584c0.6763,-0.0501 -0.0924,1.9312 0.4132,2.5048z" fill="#bfab81" stroke="#000000" stroke-width="2" stroke-linecap="round"/><path d="M273.42236,181.0912c0.1879,1.3604 -0.4969,2.7573 -1.0328,4.0465c-1.4046,2.3981 -2.8181,4.8772 -4.7312,6.8984c-1.8682,1.9758 -4.4941,3.0749 -6.9068,4.3067c-1.1045,0.56 -2.0314,1.4495 -2.9507,1.0263c-1.7042,-0.7656 -4.2102,-2.5361 -3.5973,-4.4966c0.7195,-2.5125 4.2356,-3.4427 6.4273,-5.0618c3.6233,-2.6708 7.3044,-5.783 11.455,-7.9898c0.9678,-0.4822 1.2087,0.5902 1.3365,1.2703z" fill="#f1e9d9" stroke="#000000" stroke-width="2" stroke-linecap="round"/><path d="M256.27346,191.6758c3.1996,3.0807 3.5783,4.3215 3.4338,6.4264c-2.7942,3.4952 -4.362,3.7994 -6.2156,3.8021c-1.2906,-0.0826 -2.3852,-1.2705 -3.0036,-2.4263c-0.6232,-1.1685 -0.814,-2.5894 -0.4303,-4.0001c0.3837,-1.4108 1.2718,-2.5424 2.397,-3.2312c1.1259,-0.6876 2.5875,-1.0394 3.8187,-0.5709z" fill="#ffd57a" stroke="#000000" stroke-width="2" stroke-linecap="round"/><g><g><g stroke="#000000" stroke-width="2"><path d="M296.83666,235.1943h-7.6l-0.5,-20.25h-10.8l4.4,-7.5l13.4,-1.6z" fill="#836f60" stroke-linecap="butt"/><path d="M297.33666,235.0443l4.55,4.75h-12.4l-0.35,-14.95l7.8,-0.4z" fill="#433931" stroke-linecap="round"/></g><path d="M278.33666,207.3443l9.6,1.2l-0.15,5.7h-11z" fill="#836f60" stroke="none" stroke-width="1" stroke-linecap="round"/></g><g><g stroke="#000000" stroke-width="2"><path d="M271.73666,205.7443l13.4,1.6l1.3,7.3l-7.7,0.2l-0.5,20.25h-7.6z" fill="#836f60" stroke-linecap="butt"/><path d="M270.53666,224.3443l7.8,0.4l-0.35,14.95h-12.4l4.55,-4.75z" fill="#433931" stroke-linecap="round"/></g><path d="M290.68666,214.1443h-11l-0.15,-5.7l9.6,-1.2z" fill="#836f60" stroke="none" stroke-width="1" stroke-linecap="round"/></g></g><path d="M274.23666,171.6943l15,-0.6l8.7,9.25l2.2,32.4l-33.4,0.6l1.2,-33.4z" fill="#f1e9d9" stroke="#000000" stroke-width="2" stroke-linecap="round"/><path d="M271.93666,176.8186l7.2,7.5074l3.6,10.8208l3.8,-11.1982l7.2,-8.0107l2,37.2015l-24.2,0.2097z" fill="#f1c4b0" stroke="#000000" stroke-width="1.84587" stroke-linecap="butt"/><path d="M253.68666,146.6943c1.407,0 2.682,0.712 3.605,1.861c0.924,1.15 1.495,2.737 1.495,4.489c0,1.752 -0.571,3.339 -1.495,4.489c-0.923,1.149 -2.198,1.861 -3.605,1.861c-1.407,0 -2.682,-0.712 -3.605,-1.861c-0.924,-1.15 -1.495,-2.737 -1.495,-4.489c0,-1.752 0.571,-3.339 1.495,-4.489c0.923,-1.149 2.198,-1.861 3.605,-1.861z" fill="#ffd57a" stroke="#000000" stroke-width="2" stroke-linecap="butt"/><path d="M313.03666,147.8443c1.407,0 2.682,0.712 3.605,1.861c0.924,1.15 1.495,2.737 1.495,4.489c0,1.752 -0.571,3.339 -1.495,4.489c-0.923,1.149 -2.198,1.861 -3.605,1.861c-1.407,0 -2.682,-0.712 -3.605,-1.861c-0.924,-1.15 -1.495,-2.737 -1.495,-4.489c0,-1.752 0.571,-3.339 1.495,-4.489c0.923,-1.149 2.198,-1.861 3.605,-1.861z" fill="#ffd57a" stroke="#000000" stroke-width="2" stroke-linecap="butt"/><path d="M283.53666,124.4443c7.822,0 14.909,3.154 20.041,8.25c5.132,5.096 8.309,12.134 8.309,19.9c0,7.766 -3.177,14.804 -8.309,19.9c-5.132,5.096 -12.219,8.25 -20.041,8.25c-7.822,0 -14.909,-3.154 -20.041,-8.25c-5.132,-5.096 -8.309,-12.134 -8.309,-19.9c0,-7.766 3.177,-14.804 8.309,-19.9c5.132,-5.096 12.219,-8.25 20.041,-8.25z" fill="#ffd57a" stroke="#000000" stroke-width="2" stroke-linecap="butt"/><path d="M282.08666,144.0443l0.1,14.8" fill="none" stroke="#000000" stroke-width="2" stroke-linecap="round"/><path d="M295.68666,144.8443c0.579,0 1.104,0.28 1.485,0.733c0.38,0.452 0.615,1.077 0.615,1.767c0,0.69 -0.235,1.315 -0.615,1.767c-0.381,0.453 -0.906,0.733 -1.485,0.733c-0.579,0 -1.104,-0.28 -1.485,-0.733c-0.38,-0.452 -0.615,-1.077 -0.615,-1.767c0,-0.69 0.235,-1.315 0.615,-1.767c0.381,-0.453 0.906,-0.733 1.485,-0.733z" fill="#000000" stroke="none" stroke-width="1" stroke-linecap="butt"/><path d="M269.18666,145.5943c0.579,0 1.104,0.28 1.485,0.733c0.38,0.452 0.615,1.077 0.615,1.767c0,0.69 -0.235,1.315 -0.615,1.767c-0.381,0.453 -0.906,0.733 -1.485,0.733c-0.579,0 -1.104,-0.28 -1.485,-0.733c-0.38,-0.452 -0.615,-1.077 -0.615,-1.767c0,-0.69 0.235,-1.315 0.615,-1.767c0.381,-0.453 0.906,-0.733 1.485,-0.733z" fill="#000000" stroke="none" stroke-width="1" stroke-linecap="round"/><path d="M265.13666,139.6943h8v3.2h-8z" fill="#000000" stroke="none" stroke-width="1" stroke-linecap="butt"/><path d="M291.18429,139.29904h8v3.2h-8z" fill="#000000" stroke="none" stroke-width="1" stroke-linecap="butt"/><path d="M299.08666,152.1443c1.628,0 3.103,0.571 4.171,1.495c1.068,0.923 1.729,2.198 1.729,3.605c0,1.407 -0.661,2.682 -1.729,3.605c-1.068,0.924 -2.543,1.495 -4.171,1.495c-1.628,0 -3.103,-0.571 -4.171,-1.495c-1.068,-0.923 -1.729,-2.198 -1.729,-3.605c0,-1.407 0.661,-2.682 1.729,-3.605c1.068,-0.924 2.543,-1.495 4.171,-1.495z" fill="none" stroke="#f1c973" stroke-width="2" stroke-linecap="butt"/><path d="M268.53666,153.3443c1.628,0 3.103,0.571 4.171,1.495c1.068,0.923 1.729,2.198 1.729,3.605c0,1.407 -0.661,2.682 -1.729,3.605c-1.068,0.924 -2.543,1.495 -4.171,1.495c-1.628,0 -3.103,-0.571 -4.171,-1.495c-1.068,-0.923 -1.729,-2.198 -1.729,-3.605c0,-1.407 0.661,-2.682 1.729,-3.605c1.068,-0.924 2.543,-1.495 4.171,-1.495z" fill="none" stroke="#f1c973" stroke-width="2" stroke-linecap="round"/><path d="M288.03666,171.08719h-9.15" fill="none" stroke="#000000" stroke-width="2" stroke-linecap="round"/></g></g></svg>