<svg version="1.1" xmlns="http://www.w3.org/2000/svg" xmlns:xlink="http://www.w3.org/1999/xlink" width="154.55" height="123.7" viewBox="0,0,154.55,123.7"><g transform="translate(-162.725,-118.15)"><g data-paper-data="{&quot;isPaintingLayer&quot;:true}" fill-rule="nonzero" stroke-linejoin="miter" stroke-miterlimit="10" stroke-dasharray="" stroke-dashoffset="0" style="mix-blend-mode: normal"><g stroke="#000000" stroke-width="2"><path d="M208.325,234.2h-7.6v-20.4h7.6z" fill="#000000" stroke-linecap="butt"/><path d="M213.375,238.8h-12.4l-0.55,-4.6l9,-0.6z" fill="#8a4e01" stroke-linecap="round"/></g><g stroke="#000000" stroke-width="2" stroke-linecap="round"><path d="M185.4851,179.1144c0.5204,1.2709 0.2047,2.7942 0.0063,4.1762c-0.7639,2.6721 -1.5164,5.4249 -2.8665,7.8584c-1.3181,2.3785 -3.5879,4.0962 -5.6184,5.8895c-0.9305,0.8171 -1.607,1.9093 -2.6027,1.728c-1.8411,-0.3176 -4.7087,-1.4091 -4.6028,-3.4604c0.072,-2.6125 3.2461,-4.3881 4.9662,-6.5015c2.8451,-3.4882 5.6362,-7.4182 9.1075,-10.5881c0.8175,-0.7078 1.3175,0.271 1.6104,0.8979z" fill="#dc9371"/><path d="M171.5748,193.599c3.8484,2.1887 4.5418,3.2946 4.9244,5.3702c-1.8518,4.0762 -3.2817,4.7651 -5.0745,5.2287c-1.2705,0.2411 -2.6262,-0.6372 -3.5126,-1.6028c-0.8943,-0.9768 -1.4326,-2.3055 -1.4119,-3.7674c0.0207,-1.4618 0.5994,-2.7788 1.5179,-3.7259c0.9195,-0.9461 2.2476,-1.6503 3.5567,-1.5028z" fill="#d9e4ff"/></g><g stroke="#000000" stroke-width="2" stroke-linecap="round"><path d="M209.5753,179.3165c3.4713,3.1699 6.2624,7.0999 9.1075,10.5881c1.7201,2.1134 4.8942,3.889 4.9662,6.5015c0.1059,2.0513 -2.7617,3.1428 -4.6028,3.4604c-0.9957,0.1813 -1.6722,-0.9109 -2.6027,-1.728c-2.0305,-1.7933 -4.3003,-3.511 -5.6184,-5.8895c-1.3501,-2.4335 -2.1026,-5.1863 -2.8665,-7.8584c-0.1984,-1.382 -0.5141,-2.9053 0.0063,-4.1762c0.2929,-0.6269 0.7929,-1.6057 1.6104,-0.8979z" fill="#dc9371"/><path d="M225.4319,196.2018c0.9185,0.9471 1.4972,2.2641 1.5179,3.7259c0.0207,1.4619 -0.5176,2.7906 -1.4119,3.7674c-0.8864,0.9656 -2.2421,1.8439 -3.5126,1.6028c-1.7928,-0.4636 -3.2227,-1.1525 -5.0745,-5.2287c0.3826,-2.0756 1.076,-3.1815 4.9244,-5.3702c1.3091,-0.1475 2.6372,0.5567 3.5567,1.5028z" fill="#d9e4ff"/></g><g stroke="#000000" stroke-width="2"><path d="M184.075,213.85h7.6v20.4h-7.6z" fill="#000000" stroke-linecap="butt"/><path d="M183.025,233.8h8.6l-0.2,5.05h-12.4z" fill="#8a4e01" stroke-linecap="round"/></g><path d="M191.875,172.05l9.7,-1.4l10.1,10.4l1.6,36.5l-33.7,1l1,-37.6z" fill="#dc9371" stroke="#000000" stroke-width="2" stroke-linecap="round"/><path d="M168.825,147.8c1.407,0 2.682,0.712 3.605,1.861c0.924,1.15 1.495,2.737 1.495,4.489c0,1.752 -0.571,3.339 -1.495,4.489c-0.923,1.149 -2.198,1.861 -3.605,1.861c-1.407,0 -2.682,-0.712 -3.605,-1.861c-0.924,-1.15 -1.495,-2.737 -1.495,-4.489c0,-1.752 0.571,-3.339 1.495,-4.489c0.923,-1.149 2.198,-1.861 3.605,-1.861z" fill="#d9e4ff" stroke="#000000" stroke-width="2" stroke-linecap="butt"/><path d="M196.475,173.3c1.379,0 2.629,0.459 3.535,1.202c0.905,0.742 1.465,1.767 1.465,2.898c0,1.131 -0.56,2.156 -1.465,2.898c-0.906,0.743 -2.156,1.202 -3.535,1.202c-1.379,0 -2.629,-0.459 -3.535,-1.202c-0.905,-0.742 -1.465,-1.767 -1.465,-2.898c0,-1.131 0.56,-2.156 1.465,-2.898c0.906,-0.743 2.156,-1.202 3.535,-1.202z" fill="#d9e4ff" stroke="#000000" stroke-width="2" stroke-linecap="butt"/><path d="M224.175,147.95c1.407,0 2.682,0.712 3.605,1.861c0.924,1.15 1.495,2.737 1.495,4.489c0,1.752 -0.571,3.339 -1.495,4.489c-0.923,1.149 -2.198,1.861 -3.605,1.861c-1.407,0 -2.682,-0.712 -3.605,-1.861c-0.924,-1.15 -1.495,-2.737 -1.495,-4.489c0,-1.752 0.571,-3.339 1.495,-4.489c0.923,-1.149 2.198,-1.861 3.605,-1.861z" fill="#d9e4ff" stroke="#000000" stroke-width="2" stroke-linecap="butt"/><path d="M196.425,119.15c7.904,0 15.067,3.098 20.253,8.104c5.187,5.005 8.397,11.918 8.397,19.546c0,7.628 -3.21,14.541 -8.397,19.546c-5.186,5.006 -12.349,8.104 -20.253,8.104c-7.904,0 -15.067,-3.098 -20.253,-8.104c-5.187,-5.005 -8.397,-11.918 -8.397,-19.546c0,-7.628 3.21,-14.541 8.397,-19.546c5.186,-5.006 12.349,-8.104 20.253,-8.104z" fill="#000000" stroke="#000000" stroke-width="2" stroke-linecap="butt"/><path d="M178.425,136.7c2.864,-3.682 4.431,-8.719 8.15,-11.65c2.835,-2.232 6.57,-3.082 10,-3c3.952,0.092 8.196,1.221 11.2,3.5c2.493,1.895 2.886,5.694 4.6,8.2c1.784,2.613 5.703,4.076 6.2,7.2c1.446,9.115 3.845,19.947 -1,28c-3.821,6.455 -13.396,8.437 -20.95,8.75c-7.135,0.296 -15.87,-1.341 -19.75,-7.15c-5.398,-7.72 -4.816,-18.473 -4.25,-27.85c0.167,-2.773 4.094,-3.807 5.8,-6z" fill="#d9e4ff" stroke="#000000" stroke-width="2" stroke-linecap="butt"/><path d="M183.675,148.75c0.441,0 0.841,0.174 1.131,0.454c0.29,0.281 0.469,0.668 0.469,1.096c0,0.428 -0.179,0.815 -0.469,1.096c-0.29,0.28 -0.69,0.454 -1.131,0.454c-0.441,0 -0.841,-0.174 -1.131,-0.454c-0.29,-0.281 -0.469,-0.668 -0.469,-1.096c0,-0.428 0.179,-0.815 0.469,-1.096c0.29,-0.28 0.69,-0.454 1.131,-0.454z" fill="#000000" stroke="none" stroke-width="1" stroke-linecap="butt"/><path d="M209.325,148.75c0.441,0 0.841,0.174 1.131,0.454c0.29,0.281 0.469,0.668 0.469,1.096c0,0.428 -0.179,0.815 -0.469,1.096c-0.29,0.28 -0.69,0.454 -1.131,0.454c-0.441,0 -0.841,-0.174 -1.131,-0.454c-0.29,-0.281 -0.469,-0.668 -0.469,-1.096c0,-0.428 0.179,-0.815 0.469,-1.096c0.29,-0.28 0.69,-0.454 1.131,-0.454z" fill="#000000" stroke="none" stroke-width="1" stroke-linecap="round"/><path d="M195.375,144.35v12.2" fill="none" stroke="#000000" stroke-width="2" stroke-linecap="round"/><path d="M194.175,169.85l9.9,0.4" fill="none" stroke="#000000" stroke-width="2" stroke-linecap="round"/><path d="M211.075,142.75h-4.3" fill="none" stroke="#000000" stroke-width="2" stroke-linecap="round"/><path d="M187.775,143.05l-7.4,0.5" fill="none" stroke="#000000" stroke-width="2" stroke-linecap="round"/><path d="M194.625,181.9h3.7v21.8h-3.7z" fill="none" stroke="#000000" stroke-width="2" stroke-linecap="butt"/><g stroke="#000000" stroke-width="2"><path d="M295.325,236.2h-7.6v-20.4h7.6z" fill="#000000" stroke-linecap="butt"/><path d="M300.375,240.8h-12.4l-0.55,-4.6l9,-0.6z" fill="#8a4e01" stroke-linecap="round"/></g><g stroke="#000000" stroke-width="2" stroke-linecap="round"><path d="M272.4851,181.1144c0.5204,1.2709 0.2047,2.7942 0.0063,4.1762c-0.7639,2.6721 -1.5164,5.4249 -2.8665,7.8584c-1.3181,2.3785 -3.5879,4.0962 -5.6184,5.8895c-0.9305,0.8171 -1.607,1.9093 -2.6027,1.728c-1.8411,-0.3176 -4.7087,-1.4091 -4.6028,-3.4604c0.072,-2.6125 3.2461,-4.3881 4.9662,-6.5015c2.8451,-3.4882 5.6362,-7.4182 9.1075,-10.5881c0.8175,-0.7078 1.3175,0.271 1.6104,0.8979z" fill="#dc9371"/><path d="M258.5748,195.599c3.8484,2.1887 4.5418,3.2946 4.9244,5.3702c-1.8518,4.0762 -3.2817,4.7651 -5.0745,5.2287c-1.2705,0.2411 -2.6262,-0.6372 -3.5126,-1.6028c-0.8943,-0.9768 -1.4326,-2.3055 -1.4119,-3.7674c0.0207,-1.4618 0.5994,-2.7788 1.5179,-3.7259c0.9195,-0.9461 2.2476,-1.6503 3.5567,-1.5028z" fill="#d9e4ff"/></g><g stroke="#000000" stroke-width="2" stroke-linecap="round"><path d="M296.5753,181.3165c3.4713,3.1699 6.2624,7.0999 9.1075,10.5881c1.7201,2.1134 4.8942,3.889 4.9662,6.5015c0.1059,2.0513 -2.7617,3.1428 -4.6028,3.4604c-0.9957,0.1813 -1.6722,-0.9109 -2.6027,-1.728c-2.0305,-1.7933 -4.3003,-3.511 -5.6184,-5.8895c-1.3501,-2.4335 -2.1026,-5.1863 -2.8665,-7.8584c-0.1984,-1.382 -0.5141,-2.9053 0.0063,-4.1762c0.2929,-0.6269 0.7929,-1.6057 1.6104,-0.8979z" fill="#dc9371"/><path d="M312.4319,198.2018c0.9185,0.9471 1.4972,2.2641 1.5179,3.7259c0.0207,1.4619 -0.5176,2.7906 -1.4119,3.7674c-0.8864,0.9656 -2.2421,1.8439 -3.5126,1.6028c-1.7928,-0.4636 -3.2227,-1.1525 -5.0745,-5.2287c0.3826,-2.0756 1.076,-3.1815 4.9244,-5.3702c1.3091,-0.1475 2.6372,0.5567 3.5567,1.5028z" fill="#d9e4ff"/></g><g stroke="#000000" stroke-width="2"><path d="M271.075,215.85h7.6v20.4h-7.6z" fill="#000000" stroke-linecap="butt"/><path d="M270.025,235.8h8.6l-0.2,5.05h-12.4z" fill="#8a4e01" stroke-linecap="round"/></g><path d="M278.875,174.05l9.7,-1.4l10.1,10.4l1.6,36.5l-33.7,1l1,-37.6z" fill="#dc9371" stroke="#000000" stroke-width="2" stroke-linecap="round"/><path d="M255.825,149.8c1.407,0 2.682,0.712 3.605,1.861c0.924,1.15 1.495,2.737 1.495,4.489c0,1.752 -0.571,3.339 -1.495,4.489c-0.923,1.149 -2.198,1.861 -3.605,1.861c-1.407,0 -2.682,-0.712 -3.605,-1.861c-0.924,-1.15 -1.495,-2.737 -1.495,-4.489c0,-1.752 0.571,-3.339 1.495,-4.489c0.923,-1.149 2.198,-1.861 3.605,-1.861z" fill="#d9e4ff" stroke="#000000" stroke-width="2" stroke-linecap="butt"/><path d="M283.475,175.3c1.379,0 2.629,0.459 3.535,1.202c0.905,0.742 1.465,1.767 1.465,2.898c0,1.131 -0.56,2.156 -1.465,2.898c-0.906,0.743 -2.156,1.202 -3.535,1.202c-1.379,0 -2.629,-0.459 -3.535,-1.202c-0.905,-0.742 -1.465,-1.767 -1.465,-2.898c0,-1.131 0.56,-2.156 1.465,-2.898c0.906,-0.743 2.156,-1.202 3.535,-1.202z" fill="#d9e4ff" stroke="#000000" stroke-width="2" stroke-linecap="butt"/><path d="M311.175,149.95c1.407,0 2.682,0.712 3.605,1.861c0.924,1.15 1.495,2.737 1.495,4.489c0,1.752 -0.571,3.339 -1.495,4.489c-0.923,1.149 -2.198,1.861 -3.605,1.861c-1.407,0 -2.682,-0.712 -3.605,-1.861c-0.924,-1.15 -1.495,-2.737 -1.495,-4.489c0,-1.752 0.571,-3.339 1.495,-4.489c0.923,-1.149 2.198,-1.861 3.605,-1.861z" fill="#d9e4ff" stroke="#000000" stroke-width="2" stroke-linecap="butt"/><path d="M283.425,121.15c7.904,0 15.067,3.098 20.253,8.104c5.187,5.005 8.397,11.918 8.397,19.546c0,7.628 -3.21,14.541 -8.397,19.546c-5.186,5.006 -12.349,8.104 -20.253,8.104c-7.904,0 -15.067,-3.098 -20.253,-8.104c-5.187,-5.005 -8.397,-11.918 -8.397,-19.546c0,-7.628 3.21,-14.541 8.397,-19.546c5.186,-5.006 12.349,-8.104 20.253,-8.104z" fill="#000000" stroke="#000000" stroke-width="2" stroke-linecap="butt"/><path d="M265.425,138.7c2.864,-3.682 4.431,-8.719 8.15,-11.65c2.835,-2.232 6.57,-3.082 10,-3c3.952,0.092 8.196,1.221 11.2,3.5c2.493,1.895 2.886,5.694 4.6,8.2c1.784,2.613 5.703,4.076 6.2,7.2c1.446,9.115 3.845,19.947 -1,28c-3.821,6.455 -13.396,8.437 -20.95,8.75c-7.135,0.296 -15.87,-1.341 -19.75,-7.15c-5.398,-7.72 -4.816,-18.473 -4.25,-27.85c0.167,-2.773 4.094,-3.807 5.8,-6z" fill="#d9e4ff" stroke="#000000" stroke-width="2" stroke-linecap="butt"/><path d="M270.675,150.75c0.441,0 0.841,0.174 1.131,0.454c0.29,0.281 0.469,0.668 0.469,1.096c0,0.428 -0.179,0.815 -0.469,1.096c-0.29,0.28 -0.69,0.454 -1.131,0.454c-0.441,0 -0.841,-0.174 -1.131,-0.454c-0.29,-0.281 -0.469,-0.668 -0.469,-1.096c0,-0.428 0.179,-0.815 0.469,-1.096c0.29,-0.28 0.69,-0.454 1.131,-0.454z" fill="#000000" stroke="none" stroke-width="1" stroke-linecap="butt"/><path d="M296.325,150.75c0.441,0 0.841,0.174 1.131,0.454c0.29,0.281 0.469,0.668 0.469,1.096c0,0.428 -0.179,0.815 -0.469,1.096c-0.29,0.28 -0.69,0.454 -1.131,0.454c-0.441,0 -0.841,-0.174 -1.131,-0.454c-0.29,-0.281 -0.469,-0.668 -0.469,-1.096c0,-0.428 0.179,-0.815 0.469,-1.096c0.29,-0.28 0.69,-0.454 1.131,-0.454z" fill="#000000" stroke="none" stroke-width="1" stroke-linecap="round"/><path d="M282.375,146.35v12.2" fill="none" stroke="#000000" stroke-width="2" stroke-linecap="round"/><path d="M298.075,144.75h-4.3" fill="none" stroke="#000000" stroke-width="2" stroke-linecap="round"/><path d="M274.775,145.05l-7.4,0.5" fill="none" stroke="#000000" stroke-width="2" stroke-linecap="round"/><path d="M281.625,183.9h3.7v21.8h-3.7z" fill="none" stroke="#000000" stroke-width="2" stroke-linecap="butt"/><path d="M288.26552,164.05021c0,0 -2.754,4.334 -5,4.6c-2.434,0.29 -6.05,-3.65 -6.05,-3.65" fill="none" stroke="#000000" stroke-width="2" stroke-linecap="round"/></g></g></svg>