<svg version="1.1" xmlns="http://www.w3.org/2000/svg" xmlns:xlink="http://www.w3.org/1999/xlink" width="49.53666" height="165.9215" viewBox="0,0,49.53666,165.9215"><defs><linearGradient x1="225.2119" y1="147.43085" x2="225.2119" y2="200.88425" gradientUnits="userSpaceOnUse" id="color-1"><stop offset="0" stop-color="#7f7f7f"/><stop offset="1" stop-color="#e5e5e5"/></linearGradient></defs><g transform="translate(-215.19525,-97.07373)"><g data-paper-data="{&quot;isPaintingLayer&quot;:true}" fill-rule="nonzero" stroke-linejoin="miter" stroke-miterlimit="10" stroke-dasharray="" stroke-dashoffset="0" style="mix-blend-mode: normal"><g stroke="#000000"><path d="M250.4876,201.78105c0.936,-1.0686 2.1158,-1.6654 3.3169,-1.5365c1.2011,0.1288 2.1973,0.959 2.8366,2.1966c0.6393,1.2386 0.9218,2.8835 0.6958,4.6408c-0.226,1.7572 -0.9183,3.2975 -1.8544,4.3672c-0.936,1.0685 -2.1157,1.6653 -3.3168,1.5365c-1.2011,-0.1289 -2.1973,-0.9591 -2.8367,-2.1966c-0.6392,-1.2387 -0.9218,-2.8836 -0.6958,-4.6408c0.226,-1.7572 0.9183,-3.2976 1.8544,-4.3672z" fill="#c0f6d1" stroke-width="2.16459" stroke-linecap="butt"/><path d="M255.6304,178.69645l1.9388,25.541l-7.2006,-1.3547l-2.2951,-24.3395l-3.7417,-22.1233l1.0858,-3.3331l5.4432,2.2195z" fill="#bab5a5" stroke-width="2.16484" stroke-linecap="round"/></g><path d="M229.4874,99.17865l22.0846,-0.9888l8.5152,6.8121l-0.1648,9.5041l-3.1864,25.6005l-24.282,4.9443l-12.6354,-29.9405z" fill="#f5d77e" stroke="#000000" stroke-width="2.19747" stroke-linecap="round"/><path d="M234.1116,147.43085l11.2071,2.6919l6.3727,11.9762l2.0876,38.7853h-28.5671l2.3073,-45.2679z" fill="url(#color-1)" stroke="#000000" stroke-width="2.19747" stroke-linecap="round"/><path d="M229.3253,133.38725l-3.3512,-13.899l9.614,-13.2946l16.5909,6.043l8.1306,-4.1203l3.2962,31.5337l-3.516,7.0319l-16.1513,2.4722l-2.1975,5.9331l-8.1307,-7.0319z" fill="#c0f6d1" stroke="#000000" stroke-width="2.19747" stroke-linecap="round"/><g fill="#c0f6d1" stroke-linecap="butt"><path d="M222.779,130.25685c0.9642,-0.764 2.2627,-0.9207 3.5818,-0.5568c1.3185,0.3644 2.6575,1.2494 3.7029,2.5686c1.0454,1.3192 1.601,2.8251 1.6545,4.1919c0.0529,1.3674 -0.3964,2.5957 -1.3606,3.3598c-0.9642,0.7641 -2.2627,0.9208 -3.5818,0.5569c-1.3184,-0.3645 -2.6575,-1.2495 -3.7029,-2.5687c-1.0454,-1.3191 -1.601,-2.825 -1.6545,-4.1919c-0.0528,-1.3673 0.3964,-2.5957 1.3606,-3.3598z" stroke="#000000" stroke-width="1.73961"/><path d="M231.5881,130.30345c0.8188,0 1.5604,0.5044 2.0974,1.3207c0.5369,0.8153 0.8692,1.9415 0.8692,3.1841c0,1.2427 -0.3323,2.3689 -0.8692,3.1842c-0.537,0.8163 -1.2786,1.3207 -2.0974,1.3207c-0.8188,0 -1.5604,-0.5044 -2.0974,-1.3207c-0.5369,-0.8153 -0.8692,-1.9415 -0.8692,-3.1842c0,-1.2426 0.3323,-2.3688 0.8692,-3.1841c0.537,-0.8163 1.2786,-1.3207 2.0974,-1.3207z" stroke="none" stroke-width="0.93735"/></g><path d="M225.3014,199.88775h28.7868v12.5256h-28.7868z" fill="#000000" stroke="none" stroke-width="1.09874" stroke-linecap="butt"/><path d="M225.0816,201.20625h10.9874l-5.1092,43.1253l-11.6465,1.5383z" fill="#000000" stroke="none" stroke-width="1.09874" stroke-linecap="round"/><path d="M241.3189,204.50245h11.8663v39.7742h-11.8663z" fill="#000000" stroke="none" stroke-width="0.98656" stroke-linecap="butt"/><path d="M250.3395,254.97575l7.9109,4.8344l-20.6562,-0.4395l2.1974,-24.6116l15.1626,-3.2962z" fill="#883a17" stroke="#000000" stroke-width="2.19747" stroke-linecap="round"/><path d="M229.1395,256.97575l7.9109,4.8344l-20.6562,-0.4395l2.1974,-24.6116l15.1626,-3.2962z" fill="#883a17" stroke="#000000" stroke-width="2.19747" stroke-linecap="round"/><path d="M223.7631,189.55965h12.3059v17.5798h-12.3059z" fill="#7f7f7f" stroke="#000000" stroke-width="2.19747" stroke-linecap="butt"/><path d="M235.8631,189.35965h12.3059v17.5798h-12.3059z" fill="#7f7f7f" stroke="#000000" stroke-width="2.19747" stroke-linecap="butt"/><path d="M248.1798,189.35965h6.1063v17.5798h-6.1063z" fill="#7f7f7f" stroke="#000000" stroke-width="1.73463" stroke-linecap="round"/><g stroke="#000000"><path d="M230.0211,207.09455c0.274,1.7504 0.0365,3.4024 -0.5686,4.658c-0.6053,1.2546 -1.5784,2.1118 -2.7756,2.2734c-1.1971,0.1616 -2.3927,-0.4027 -3.3576,-1.4453c-0.965,-1.0436 -1.6991,-2.5645 -1.9731,-4.3149c-0.274,-1.7504 -0.0365,-3.4024 0.5687,-4.658c0.6053,-1.2546 1.5784,-2.1117 2.7755,-2.2734c1.1972,-0.1616 2.3928,0.4027 3.3576,1.4453c0.9651,1.0437 1.6992,2.5645 1.9731,4.3149z" fill="#c0f6d1" stroke-width="2.16459" stroke-linecap="butt"/><path d="M226.3845,156.34495l5.3805,-2.3675l1.1766,3.3022l-3.1356,22.2173l-1.6288,24.3932l-7.1609,1.551l1.2398,-25.5845z" fill="#bab5a5" stroke-width="2.16484" stroke-linecap="round"/></g><path d="M239.8677,125.06855c0.303,0 0.578,0.112 0.778,0.293c0.199,0.181 0.322,0.431 0.322,0.707c0,0.276 -0.123,0.526 -0.322,0.707c-0.2,0.181 -0.475,0.293 -0.778,0.293c-0.303,0 -0.578,-0.112 -0.778,-0.293c-0.199,-0.181 -0.322,-0.431 -0.322,-0.707c0,-0.276 0.123,-0.526 0.322,-0.707c0.2,-0.181 0.475,-0.293 0.778,-0.293z" fill="#000000" stroke="none" stroke-width="1" stroke-linecap="butt"/><path d="M256.1677,124.91855c0.303,0 0.578,0.112 0.778,0.293c0.199,0.181 0.322,0.431 0.322,0.707c0,0.276 -0.123,0.526 -0.322,0.707c-0.2,0.181 -0.475,0.293 -0.778,0.293c-0.303,0 -0.578,-0.112 -0.778,-0.293c-0.199,-0.181 -0.322,-0.431 -0.322,-0.707c0,-0.276 0.123,-0.526 0.322,-0.707c0.2,-0.181 0.475,-0.293 0.778,-0.293z" fill="#000000" stroke="none" stroke-width="1" stroke-linecap="butt"/><path d="M248.6177,130.81855l-1,-12.6" fill="none" stroke="#000000" stroke-width="2" stroke-linecap="round"/><path d="M252.1193,119.36855l8.6694,-2.4l0.1806,4.3h-8.5249z" fill="#000000" stroke="none" stroke-width="0.87234" stroke-linecap="round"/><path d="M242.1409,121.76855l-10.3671,0.15l2.0229,-4.45l8.6694,2.4z" fill="#000000" stroke="none" stroke-width="0.87234" stroke-linecap="round"/><path d="M249.8677,139.61855l-6.2,-0.8" fill="none" stroke="#000000" stroke-width="2" stroke-linecap="round"/><path d="M250.0177,102.81855c1.6,0 3.05,0.28 4.1,0.733c1.05,0.452 1.7,1.077 1.7,1.767c0,0.69 -0.65,1.315 -1.7,1.767c-1.05,0.453 -2.5,0.733 -4.1,0.733c-1.6,0 -3.05,-0.28 -4.1,-0.733c-1.05,-0.452 -1.7,-1.077 -1.7,-1.767c0,-0.69 0.65,-1.315 1.7,-1.767c1.05,-0.453 2.5,-0.733 4.1,-0.733z" fill="#e5c463" stroke="none" stroke-width="1" stroke-linecap="butt"/></g></g></svg>