<svg version="1.1" xmlns="http://www.w3.org/2000/svg" xmlns:xlink="http://www.w3.org/1999/xlink" width="59.19835" height="173.57056" viewBox="0,0,59.19835,173.57056"><defs><linearGradient x1="221.7903" y1="151.27395" x2="221.7903" y2="204.72735" gradientUnits="userSpaceOnUse" id="color-1"><stop offset="0" stop-color="#7f7f7f"/><stop offset="1" stop-color="#e5e5e5"/></linearGradient></defs><g transform="translate(-211.09402,-93.21777)"><g data-paper-data="{&quot;isPaintingLayer&quot;:true}" fill-rule="nonzero" stroke-linejoin="miter" stroke-miterlimit="10" stroke-dasharray="" stroke-dashoffset="0" style="mix-blend-mode: normal"><g stroke="#000000"><path d="M247.266,205.62415c0.936,-1.0686 2.1158,-1.6654 3.3169,-1.5365c1.2011,0.1288 2.1973,0.959 2.8366,2.1966c0.6393,1.2386 0.9218,2.8835 0.6958,4.6408c-0.226,1.7572 -0.9183,3.2975 -1.8544,4.3672c-0.936,1.0685 -2.1157,1.6653 -3.3168,1.5365c-1.2011,-0.1289 -2.1973,-0.9591 -2.8367,-2.1966c-0.6392,-1.2387 -0.9218,-2.8836 -0.6958,-4.6408c0.226,-1.7572 0.9183,-3.2976 1.8544,-4.3672z" fill="#ffcccc" stroke-width="2.16459" stroke-linecap="butt"/><path d="M252.4088,182.53955l1.9388,25.541l-7.2006,-1.3547l-2.2951,-24.3395l-3.7417,-22.1233l1.0858,-3.3331l5.4432,2.2195z" fill="#ffffff" stroke-width="2.16484" stroke-linecap="round"/></g><path d="M221.761,94.39675l45.9271,5.0541l-8.7899,7.6912l-2.1974,11.2071l-3.1864,25.6005l-24.282,4.9443l-16.9205,-33.841z" fill="#8f5b18" stroke="#000000" stroke-width="2.19747" stroke-linecap="round"/><g><path d="M230.69,151.27395l11.2071,2.6919l6.3727,11.9762l2.0876,38.7853h-28.5671l2.3073,-45.2679z" fill="url(#color-1)" stroke="#000000" stroke-width="2.19747" stroke-linecap="round"/><path d="M221.1193,113.93725l27.0288,-8.7899l8.7899,6.8121l3.2962,31.5337l-3.516,7.0319l-16.1513,2.4722l-2.1975,5.9331l-8.1307,-7.0319z" fill="#ffcccc" stroke="#000000" stroke-width="2.19747" stroke-linecap="round"/><g><path d="M233.9597,125.19135c1.1764,0.4365 2.1213,1.1584 2.6981,1.9716c0.5759,0.8136 0.7837,1.7185 0.4858,2.5212c-0.2979,0.8027 -1.0458,1.353 -2.013,1.5939c-0.9677,0.2399 -2.1548,0.1705 -3.3311,-0.266c-1.1763,-0.4366 -2.1213,-1.1585 -2.6981,-1.9717c-0.5759,-0.8136 -0.7837,-1.7185 -0.4858,-2.5212c0.2979,-0.8027 1.0458,-1.353 2.0131,-1.5939c0.9676,-0.2399 2.1547,-0.1705 3.331,0.2661z" fill="#ffffff" stroke="#000000" stroke-width="1.44387" stroke-linecap="butt"/><path d="M232.1527,125.40905c0.5682,0.0043 1.5739,-0.8685 1.6244,-0.3249c0.1581,1.7478 -0.0946,3.6508 -0.8663,5.1258c-0.5639,0.6454 -1.8352,0.4771 -2.4423,0.1285c-0.9248,-0.5429 -1.6403,-1.4836 -2.0337,-2.5109c-0.1863,-0.7725 -0.2282,-1.9254 0.4331,-2.4546c0.8664,-0.6411 2.2178,0.0332 3.2848,0.0361z" fill="#000000" stroke="none" stroke-width="0.72194" stroke-linecap="round"/></g><g><path d="M254.1135,123.12525c0.9673,0.2409 1.7152,0.7912 2.0131,1.5939c0.2979,0.8027 0.0901,1.7076 -0.4858,2.5212c-0.5768,0.8132 -1.5218,1.5351 -2.6981,1.9717c-1.1763,0.4365 -2.3634,0.5059 -3.3311,0.266c-0.9672,-0.2409 -1.7151,-0.7912 -2.013,-1.5939c-0.2979,-0.8027 -0.0901,-1.7076 0.4858,-2.5212c0.5768,-0.8132 1.5217,-1.5351 2.6981,-1.9716c1.1763,-0.4366 2.3634,-0.506 3.331,-0.2661z" fill="#ffffff" stroke="#000000" stroke-width="1.44387" stroke-linecap="butt"/><path d="M250.5872,124.39445c0.5869,-0.2813 0.8703,-1.6688 0.9976,-1.3293c0.7066,0.6538 0.9549,2.2535 0.6564,3.2841c-0.2494,1.2334 -0.636,3.0088 -1.6657,3.2544c-1.0241,0.2238 -2.0299,-0.8781 -2.7324,-1.7246c-0.4245,-0.6718 -0.8345,-1.7502 -0.3782,-2.4637c0.6145,-0.8854 2.1473,-0.54 3.1223,-1.0209z" fill="#000000" stroke="none" stroke-width="0.72194" stroke-linecap="round"/></g><path d="M242.1582,124.74205l2.4173,11.4268" fill="none" stroke="#000000" stroke-width="2.19747" stroke-linecap="round"/><path d="M252.1169,143.15405l-10.7676,1.5382" fill="none" stroke="#000000" stroke-width="2.19747" stroke-linecap="round"/><path d="M227.4352,120.09325l8.7899,0.4395" fill="none" stroke="#000000" stroke-width="2.19747" stroke-linecap="round"/><path d="M252.7061,117.67605l-6.5924,2.1975" fill="none" stroke="#000000" stroke-width="2.19747" stroke-linecap="round"/><g fill="#ffcccc" stroke-linecap="butt"><path d="M219.4074,134.09995c0.9642,-0.764 2.2627,-0.9207 3.5818,-0.5568c1.3185,0.3644 2.6575,1.2494 3.7029,2.5686c1.0454,1.3192 1.601,2.8251 1.6545,4.1919c0.0529,1.3674 -0.3964,2.5957 -1.3606,3.3598c-0.9642,0.7641 -2.2627,0.9208 -3.5818,0.5569c-1.3184,-0.3645 -2.6575,-1.2495 -3.7029,-2.5687c-1.0454,-1.3191 -1.601,-2.825 -1.6545,-4.1919c-0.0528,-1.3673 0.3964,-2.5957 1.3606,-3.3598z" stroke="#000000" stroke-width="1.73961"/><path d="M228.1665,134.14655c0.8188,0 1.5604,0.5044 2.0974,1.3207c0.5369,0.8153 0.8692,1.9415 0.8692,3.1841c0,1.2427 -0.3323,2.3689 -0.8692,3.1842c-0.537,0.8163 -1.2786,1.3207 -2.0974,1.3207c-0.8188,0 -1.5604,-0.5044 -2.0974,-1.3207c-0.5369,-0.8153 -0.8692,-1.9415 -0.8692,-3.1842c0,-1.2426 0.3323,-2.3688 0.8692,-3.1841c0.537,-0.8163 1.2786,-1.3207 2.0974,-1.3207z" stroke="none" stroke-width="0.93735"/></g></g><path d="M222.0798,203.73085h28.7868v12.5256h-28.7868z" fill="#000000" stroke="none" stroke-width="1.09874" stroke-linecap="butt"/><path d="M221.86,205.04935h10.9874l-5.1092,43.1253l-11.6465,1.5383z" fill="#000000" stroke="none" stroke-width="1.09874" stroke-linecap="round"/><path d="M238.0973,208.34555h11.8663v39.7742h-11.8663z" fill="#000000" stroke="none" stroke-width="0.98656" stroke-linecap="butt"/><path d="M247.1179,258.76885l7.9109,4.8344l-20.6562,-0.4395l2.1974,-24.6116l15.1626,-3.2962z" fill="#433931" stroke="#000000" stroke-width="2.19747" stroke-linecap="round"/><path d="M225.9179,260.76885l7.9109,4.8344l-20.6562,-0.4395l2.1974,-24.6116l15.1626,-3.2962z" fill="#433931" stroke="#000000" stroke-width="2.19747" stroke-linecap="round"/><path d="M220.5415,193.40275h12.3059v17.5798h-12.3059z" fill="#7f7f7f" stroke="#000000" stroke-width="2.19747" stroke-linecap="butt"/><path d="M232.6415,193.20275h12.3059v17.5798h-12.3059z" fill="#7f7f7f" stroke="#000000" stroke-width="2.19747" stroke-linecap="butt"/><path d="M244.9582,193.20275h6.1063v17.5798h-6.1063z" fill="#7f7f7f" stroke="#000000" stroke-width="1.73463" stroke-linecap="round"/><g stroke="#000000"><path d="M226.7995,210.93765c0.274,1.7504 0.0365,3.4024 -0.5686,4.658c-0.6053,1.2546 -1.5784,2.1118 -2.7756,2.2734c-1.1971,0.1616 -2.3927,-0.4027 -3.3576,-1.4453c-0.965,-1.0436 -1.6991,-2.5645 -1.9731,-4.3149c-0.274,-1.7504 -0.0365,-3.4024 0.5687,-4.658c0.6053,-1.2546 1.5784,-2.1117 2.7755,-2.2734c1.1972,-0.1616 2.3928,0.4027 3.3576,1.4453c0.9651,1.0437 1.6992,2.5645 1.9731,4.3149z" fill="#ffcccc" stroke-width="2.16459" stroke-linecap="butt"/><path d="M223.1629,160.18805l5.3805,-2.3675l1.1766,3.3022l-3.1356,22.2173l-1.6288,24.3932l-7.1609,1.551l1.2398,-25.5845z" fill="#ffffff" stroke-width="2.16484" stroke-linecap="round"/></g></g></g></svg>