<svg version="1.1" xmlns="http://www.w3.org/2000/svg" xmlns:xlink="http://www.w3.org/1999/xlink" width="140.4495" height="124.15" viewBox="0,0,140.4495,124.15"><g transform="translate(-169.7753,-117.925)"><g data-paper-data="{&quot;isPaintingLayer&quot;:true}" fill-rule="nonzero" stroke-linejoin="miter" stroke-miterlimit="10" stroke-dasharray="" stroke-dashoffset="0" style="mix-blend-mode: normal"><path d="M278.4,118.925c7.863,0 14.988,3.967 20.147,10.375c5.159,6.408 7.73,16.261 8.353,25.025c0.767,10.763 2.665,23.998 -4.2,32.6c-5.092,6.251 -16.161,2.578 -24.3,2.8c-7.717,0.211 -18.156,3.913 -23.1,-2c-6.929,-8.834 -5.874,-22.281 -5.4,-33.4c0.372,-8.781 3.194,-18.617 8.353,-25.025c5.159,-6.408 12.284,-10.375 20.147,-10.375z" fill="#ffcc77" stroke="#000000" stroke-width="2" stroke-linecap="round"/><g stroke="#000000" stroke-width="2"><path d="M290.6,235.425h-7.6v-20.4h7.6z" fill="#000000" stroke-linecap="butt"/><path d="M295.65,240.025h-12.4l-0.55,-4.6l9,-0.6z" fill="#8a6e57" stroke-linecap="round"/></g><g stroke="#000000" stroke-width="2" stroke-linecap="round"><path d="M267.7601,180.3394c0.5204,1.2709 0.2047,2.7942 0.0063,4.1762c-0.7639,2.6721 -1.5164,5.4249 -2.8665,7.8584c-1.3181,2.3785 -3.5879,4.0962 -5.6184,5.8895c-0.9305,0.8171 -1.607,1.9093 -2.6027,1.728c-1.8411,-0.3176 -4.7087,-1.4091 -4.6028,-3.4604c0.072,-2.6125 3.2461,-4.3881 4.9662,-6.5015c2.8451,-3.4882 5.6362,-7.4182 9.1075,-10.5881c0.8175,-0.7078 1.3175,0.271 1.6104,0.8979z" fill="#e1b38f"/><path d="M253.8498,194.824c3.8484,2.1887 4.5418,3.2946 4.9244,5.3702c-1.8518,4.0762 -3.2817,4.7651 -5.0745,5.2287c-1.2705,0.2411 -2.6262,-0.6372 -3.5126,-1.6028c-0.8943,-0.9768 -1.4326,-2.3055 -1.4119,-3.7674c0.0207,-1.4618 0.5994,-2.7788 1.5179,-3.7259c0.9195,-0.9461 2.2476,-1.6503 3.5567,-1.5028z" fill="#d9e4ff"/></g><g stroke="#000000" stroke-width="2" stroke-linecap="round"><path d="M291.8503,180.5415c3.4713,3.1699 6.2624,7.0999 9.1075,10.5881c1.7201,2.1134 4.8942,3.889 4.9662,6.5015c0.1059,2.0513 -2.7617,3.1428 -4.6028,3.4604c-0.9957,0.1813 -1.6722,-0.9109 -2.6027,-1.728c-2.0305,-1.7933 -4.3003,-3.511 -5.6184,-5.8895c-1.3501,-2.4335 -2.1026,-5.1863 -2.8665,-7.8584c-0.1984,-1.382 -0.5141,-2.9053 0.0063,-4.1762c0.2929,-0.6269 0.7929,-1.6057 1.6104,-0.8979z" fill="#e1b38f"/><path d="M307.7069,197.4268c0.9185,0.9471 1.4972,2.2641 1.5179,3.7259c0.0207,1.4619 -0.5176,2.7906 -1.4119,3.7674c-0.8864,0.9656 -2.2421,1.8439 -3.5126,1.6028c-1.7928,-0.4636 -3.2227,-1.1525 -5.0745,-5.2287c0.3826,-2.0756 1.076,-3.1815 4.9244,-5.3702c1.3091,-0.1475 2.6372,0.5567 3.5567,1.5028z" fill="#d9e4ff"/></g><g stroke="#000000" stroke-width="2"><path d="M266.35,215.075h7.6v20.4h-7.6z" fill="#000000" stroke-linecap="butt"/><path d="M265.3,235.025h8.6l-0.2,5.05h-12.4z" fill="#8a6e57" stroke-linecap="round"/></g><path d="M269.4,172.025l15,-0.6l8,9.55l10.4,39.6h-46.4l8.6,-40z" fill="#e1b38f" stroke="#000000" stroke-width="2" stroke-linecap="round"/><path d="M254.1,152.025c1.407,0 2.682,0.712 3.605,1.861c0.924,1.15 1.495,2.737 1.495,4.489c0,1.752 -0.571,3.339 -1.495,4.489c-0.923,1.149 -2.198,1.861 -3.605,1.861c-1.407,0 -2.682,-0.712 -3.605,-1.861c-0.924,-1.15 -1.495,-2.737 -1.495,-4.489c0,-1.752 0.571,-3.339 1.495,-4.489c0.923,-1.149 2.198,-1.861 3.605,-1.861z" fill="#d9e4ff" stroke="#000000" stroke-width="2" stroke-linecap="butt"/><path d="M278.75,174.525c1.379,0 2.629,0.459 3.535,1.202c0.905,0.742 1.465,1.767 1.465,2.898c0,1.131 -0.56,2.156 -1.465,2.898c-0.906,0.743 -2.156,1.202 -3.535,1.202c-1.379,0 -2.629,-0.459 -3.535,-1.202c-0.905,-0.742 -1.465,-1.767 -1.465,-2.898c0,-1.131 0.56,-2.156 1.465,-2.898c0.906,-0.743 2.156,-1.202 3.535,-1.202z" fill="#d9e4ff" stroke="#000000" stroke-width="2" stroke-linecap="butt"/><path d="M303.45,151.175c1.407,0 2.682,0.712 3.605,1.861c0.924,1.15 1.495,2.737 1.495,4.489c0,1.752 -0.571,3.339 -1.495,4.489c-0.923,1.149 -2.198,1.861 -3.605,1.861c-1.407,0 -2.682,-0.712 -3.605,-1.861c-0.924,-1.15 -1.495,-2.737 -1.495,-4.489c0,-1.752 0.571,-3.339 1.495,-4.489c0.923,-1.149 2.198,-1.861 3.605,-1.861z" fill="#d9e4ff" stroke="#000000" stroke-width="2" stroke-linecap="butt"/><path d="M260.7,137.925c2.584,-2.443 4.737,-5.789 8,-7.35c6.046,-2.889 12.663,-6.072 19.25,-5.5c4.52,0.334 9.441,3.696 10.791,7.95c3.484,11.038 7.258,23.654 2.709,34.05c-3.338,7.851 -14.07,11.677 -22.55,11.85c-8.119,0.164 -17.276,-4.492 -21.95,-11.35c-4.455,-6.454 -3.003,-15.664 -2.05,-23.65c0.33,-2.759 3.781,-4.092 5.8,-6z" fill="#d9e4ff" stroke="#000000" stroke-width="2" stroke-linecap="butt"/><g><path d="M266,145.125c2.124,0 4.049,0.84 5.443,2.198c1.394,1.358 2.257,3.233 2.257,5.302c0,2.069 -0.863,3.944 -2.257,5.302c-1.394,1.358 -3.319,2.198 -5.443,2.198c-2.124,0 -4.049,-0.84 -5.443,-2.198c-1.394,-1.358 -2.257,-3.233 -2.257,-5.302c0,-2.069 0.863,-3.944 2.257,-5.302c1.394,-1.358 3.319,-2.198 5.443,-2.198z" fill="#ffffff" stroke="#000000" stroke-width="2" stroke-linecap="butt"/><path d="M267.65,144.425c0.47,8.795 1.626,12.483 -0.4,15.6c-1.267,1.61 -4.622,-0.739 -6.231,-2.152c-1.42,-1.247 -2.041,-3.327 -2.169,-5.248c0.128,-1.677 0.959,-3.448 2.169,-4.648c1.698,-1.672 5.078,-4.727 6.631,-3.552z" fill="#000000" stroke="none" stroke-width="1" stroke-linecap="round"/></g><g><path d="M291.05,144.175c2.124,0 4.049,0.84 5.443,2.198c1.394,1.358 2.257,3.233 2.257,5.302c0,2.069 -0.863,3.944 -2.257,5.302c-1.394,1.358 -3.319,2.198 -5.443,2.198c-2.124,0 -4.049,-0.84 -5.443,-2.198c-1.394,-1.358 -2.257,-3.233 -2.257,-5.302c0,-2.069 0.863,-3.944 2.257,-5.302c1.394,-1.358 3.319,-2.198 5.443,-2.198z" fill="#ffffff" stroke="#000000" stroke-width="2" stroke-linecap="butt"/><path d="M292.7,143.475c0.47,8.795 1.626,12.483 -0.4,15.6c-1.267,1.61 -4.622,-0.739 -6.231,-2.152c-1.42,-1.247 -2.041,-3.327 -2.169,-5.248c0.128,-1.677 0.959,-3.448 2.169,-4.648c1.698,-1.672 5.078,-4.727 6.631,-3.552z" fill="#000000" stroke="none" stroke-width="1" stroke-linecap="round"/></g><path d="M278.177,148.9185l-0.033,12.0598" fill="none" stroke="#000000" stroke-width="2" stroke-linecap="round"/><path d="M261.75,193.475h34v1.4h-34z" fill="none" stroke="#000000" stroke-width="2" stroke-linecap="butt"/><path d="M294.7,137.075c0,0 -2.197,1.75 -3.5,1.75c-1.454,0 -4,-1.75 -4,-1.75" data-paper-data="{&quot;index&quot;:null}" fill="none" stroke="#000000" stroke-width="2" stroke-linecap="round"/><path d="M268.15,137.075c0,0 -2.197,1.75 -3.5,1.75c-1.454,0 -4,-1.75 -4,-1.75" data-paper-data="{&quot;index&quot;:null}" fill="none" stroke="#000000" stroke-width="2" stroke-linecap="round"/><path d="M293.2,162.575c1.104,0 2.104,0.322 2.828,0.843c0.724,0.52 1.172,1.239 1.172,2.032c0,0.793 -0.448,1.512 -1.172,2.032c-0.724,0.521 -1.724,0.843 -2.828,0.843c-1.104,0 -2.104,-0.322 -2.828,-0.843c-0.724,-0.52 -1.172,-1.239 -1.172,-2.032c0,-0.793 0.448,-1.512 1.172,-2.032c0.724,-0.521 1.724,-0.843 2.828,-0.843z" fill="none" stroke="#bbd0ff" stroke-width="2" stroke-linecap="butt"/><path d="M264.2,163.825c1.104,0 2.104,0.322 2.828,0.843c0.724,0.52 1.172,1.239 1.172,2.032c0,0.793 -0.448,1.512 -1.172,2.032c-0.724,0.521 -1.724,0.843 -2.828,0.843c-1.104,0 -2.104,-0.322 -2.828,-0.843c-0.724,-0.52 -1.172,-1.239 -1.172,-2.032c0,-0.793 0.448,-1.512 1.172,-2.032c0.724,-0.521 1.724,-0.843 2.828,-0.843z" fill="none" stroke="#bbd0ff" stroke-width="2" stroke-linecap="round"/><g fill="none" stroke="#ab886c" stroke-width="1.02083" stroke-linecap="round"><path d="M289.4406,212.8953l2.9349,-6.5078"/><path d="M294.4172,207.5359l-4.5938,9.698"/><path d="M291.6099,214.8094l-2.9349,-7.7839"/><path d="M290.2063,206.0047l3.7005,7.2734"/></g><path d="M274.05,171.41789h9.15" fill="none" stroke="#000000" stroke-width="2" stroke-linecap="round"/><path d="M200.4,119.925c7.863,0 14.988,3.967 20.147,10.375c5.159,6.408 7.73,16.261 8.353,25.025c0.767,10.763 2.665,23.998 -4.2,32.6c-5.092,6.251 -16.161,2.578 -24.3,2.8c-7.717,0.211 -18.156,3.913 -23.1,-2c-6.929,-8.834 -5.874,-22.281 -5.4,-33.4c0.372,-8.781 3.194,-18.617 8.353,-25.025c5.159,-6.408 12.284,-10.375 20.147,-10.375z" fill="#ffcc77" stroke="#000000" stroke-width="2" stroke-linecap="round"/><g stroke="#000000" stroke-width="2"><path d="M212.6,236.425h-7.6v-20.4h7.6z" fill="#000000" stroke-linecap="butt"/><path d="M217.65,241.025h-12.4l-0.55,-4.6l9,-0.6z" fill="#8a6e57" stroke-linecap="round"/></g><g stroke="#000000" stroke-width="2" stroke-linecap="round"><path d="M189.7601,181.3394c0.5204,1.2709 0.2047,2.7942 0.0063,4.1762c-0.7639,2.6721 -1.5164,5.4249 -2.8665,7.8584c-1.3181,2.3785 -3.5879,4.0962 -5.6184,5.8895c-0.9305,0.8171 -1.607,1.9093 -2.6027,1.728c-1.8411,-0.3176 -4.7087,-1.4091 -4.6028,-3.4604c0.072,-2.6125 3.2461,-4.3881 4.9662,-6.5015c2.8451,-3.4882 5.6362,-7.4182 9.1075,-10.5881c0.8175,-0.7078 1.3175,0.271 1.6104,0.8979z" fill="#e1b38f"/><path d="M175.8498,195.824c3.8484,2.1887 4.5418,3.2946 4.9244,5.3702c-1.8518,4.0762 -3.2817,4.7651 -5.0745,5.2287c-1.2705,0.2411 -2.6262,-0.6372 -3.5126,-1.6028c-0.8943,-0.9768 -1.4326,-2.3055 -1.4119,-3.7674c0.0207,-1.4618 0.5994,-2.7788 1.5179,-3.7259c0.9195,-0.9461 2.2476,-1.6503 3.5567,-1.5028z" fill="#d9e4ff"/></g><g stroke="#000000" stroke-width="2" stroke-linecap="round"><path d="M213.8503,181.5415c3.4713,3.1699 6.2624,7.0999 9.1075,10.5881c1.7201,2.1134 4.8942,3.889 4.9662,6.5015c0.1059,2.0513 -2.7617,3.1428 -4.6028,3.4604c-0.9957,0.1813 -1.6722,-0.9109 -2.6027,-1.728c-2.0305,-1.7933 -4.3003,-3.511 -5.6184,-5.8895c-1.3501,-2.4335 -2.1026,-5.1863 -2.8665,-7.8584c-0.1984,-1.382 -0.5141,-2.9053 0.0063,-4.1762c0.2929,-0.6269 0.7929,-1.6057 1.6104,-0.8979z" fill="#e1b38f"/><path d="M229.7069,198.4268c0.9185,0.9471 1.4972,2.2641 1.5179,3.7259c0.0207,1.4619 -0.5176,2.7906 -1.4119,3.7674c-0.8864,0.9656 -2.2421,1.8439 -3.5126,1.6028c-1.7928,-0.4636 -3.2227,-1.1525 -5.0745,-5.2287c0.3826,-2.0756 1.076,-3.1815 4.9244,-5.3702c1.3091,-0.1475 2.6372,0.5567 3.5567,1.5028z" fill="#d9e4ff"/></g><g stroke="#000000" stroke-width="2"><path d="M188.35,216.075h7.6v20.4h-7.6z" fill="#000000" stroke-linecap="butt"/><path d="M187.3,236.025h8.6l-0.2,5.05h-12.4z" fill="#8a6e57" stroke-linecap="round"/></g><path d="M191.4,173.025l15,-0.6l8,9.55l10.4,39.6h-46.4l8.6,-40z" fill="#e1b38f" stroke="#000000" stroke-width="2" stroke-linecap="round"/><path d="M176.1,153.025c1.407,0 2.682,0.712 3.605,1.861c0.924,1.15 1.495,2.737 1.495,4.489c0,1.752 -0.571,3.339 -1.495,4.489c-0.923,1.149 -2.198,1.861 -3.605,1.861c-1.407,0 -2.682,-0.712 -3.605,-1.861c-0.924,-1.15 -1.495,-2.737 -1.495,-4.489c0,-1.752 0.571,-3.339 1.495,-4.489c0.923,-1.149 2.198,-1.861 3.605,-1.861z" fill="#d9e4ff" stroke="#000000" stroke-width="2" stroke-linecap="butt"/><path d="M200.75,175.525c1.379,0 2.629,0.459 3.535,1.202c0.905,0.742 1.465,1.767 1.465,2.898c0,1.131 -0.56,2.156 -1.465,2.898c-0.906,0.743 -2.156,1.202 -3.535,1.202c-1.379,0 -2.629,-0.459 -3.535,-1.202c-0.905,-0.742 -1.465,-1.767 -1.465,-2.898c0,-1.131 0.56,-2.156 1.465,-2.898c0.906,-0.743 2.156,-1.202 3.535,-1.202z" fill="#d9e4ff" stroke="#000000" stroke-width="2" stroke-linecap="butt"/><path d="M225.45,152.175c1.407,0 2.682,0.712 3.605,1.861c0.924,1.15 1.495,2.737 1.495,4.489c0,1.752 -0.571,3.339 -1.495,4.489c-0.923,1.149 -2.198,1.861 -3.605,1.861c-1.407,0 -2.682,-0.712 -3.605,-1.861c-0.924,-1.15 -1.495,-2.737 -1.495,-4.489c0,-1.752 0.571,-3.339 1.495,-4.489c0.923,-1.149 2.198,-1.861 3.605,-1.861z" fill="#d9e4ff" stroke="#000000" stroke-width="2" stroke-linecap="butt"/><path d="M182.7,138.925c2.584,-2.443 4.737,-5.789 8,-7.35c6.046,-2.889 12.663,-6.072 19.25,-5.5c4.52,0.334 9.441,3.696 10.791,7.95c3.484,11.038 7.258,23.654 2.709,34.05c-3.338,7.851 -14.07,11.677 -22.55,11.85c-8.119,0.164 -17.276,-4.492 -21.95,-11.35c-4.455,-6.454 -3.003,-15.664 -2.05,-23.65c0.33,-2.759 3.781,-4.092 5.8,-6z" fill="#d9e4ff" stroke="#000000" stroke-width="2" stroke-linecap="butt"/><g><path d="M188,146.125c2.124,0 4.049,0.84 5.443,2.198c1.394,1.358 2.257,3.233 2.257,5.302c0,2.069 -0.863,3.944 -2.257,5.302c-1.394,1.358 -3.319,2.198 -5.443,2.198c-2.124,0 -4.049,-0.84 -5.443,-2.198c-1.394,-1.358 -2.257,-3.233 -2.257,-5.302c0,-2.069 0.863,-3.944 2.257,-5.302c1.394,-1.358 3.319,-2.198 5.443,-2.198z" fill="#ffffff" stroke="#000000" stroke-width="2" stroke-linecap="butt"/><path d="M189.65,145.425c0.47,8.795 1.626,12.483 -0.4,15.6c-1.267,1.61 -4.622,-0.739 -6.231,-2.152c-1.42,-1.247 -2.041,-3.327 -2.169,-5.248c0.128,-1.677 0.959,-3.448 2.169,-4.648c1.698,-1.672 5.078,-4.727 6.631,-3.552z" fill="#000000" stroke="none" stroke-width="1" stroke-linecap="round"/></g><g><path d="M213.05,145.175c2.124,0 4.049,0.84 5.443,2.198c1.394,1.358 2.257,3.233 2.257,5.302c0,2.069 -0.863,3.944 -2.257,5.302c-1.394,1.358 -3.319,2.198 -5.443,2.198c-2.124,0 -4.049,-0.84 -5.443,-2.198c-1.394,-1.358 -2.257,-3.233 -2.257,-5.302c0,-2.069 0.863,-3.944 2.257,-5.302c1.394,-1.358 3.319,-2.198 5.443,-2.198z" fill="#ffffff" stroke="#000000" stroke-width="2" stroke-linecap="butt"/><path d="M214.7,144.475c0.47,8.795 1.626,12.483 -0.4,15.6c-1.267,1.61 -4.622,-0.739 -6.231,-2.152c-1.42,-1.247 -2.041,-3.327 -2.169,-5.248c0.128,-1.677 0.959,-3.448 2.169,-4.648c1.698,-1.672 5.078,-4.727 6.631,-3.552z" fill="#000000" stroke="none" stroke-width="1" stroke-linecap="round"/></g><path d="M200.177,149.9185l-0.033,12.0598" fill="none" stroke="#000000" stroke-width="2" stroke-linecap="round"/><path d="M183.75,194.475h34v1.4h-34z" fill="none" stroke="#000000" stroke-width="2" stroke-linecap="butt"/><path d="M209.2,139.825c0,0 2.546,-1.75 4,-1.75c1.303,0 3.5,1.75 3.5,1.75" fill="none" stroke="#000000" stroke-width="2" stroke-linecap="round"/><path d="M182.65,139.825c0,0 2.546,-1.75 4,-1.75c1.303,0 3.5,1.75 3.5,1.75" fill="none" stroke="#000000" stroke-width="2" stroke-linecap="round"/><path d="M206.2,168.575c0,0 -2.094,4.677 -4.25,5c-2.553,0.363 -7.25,-3.5 -7.25,-3.5" fill="none" stroke="#000000" stroke-width="2" stroke-linecap="round"/><path d="M215.2,163.575c1.104,0 2.104,0.322 2.828,0.843c0.724,0.52 1.172,1.239 1.172,2.032c0,0.793 -0.448,1.512 -1.172,2.032c-0.724,0.521 -1.724,0.843 -2.828,0.843c-1.104,0 -2.104,-0.322 -2.828,-0.843c-0.724,-0.52 -1.172,-1.239 -1.172,-2.032c0,-0.793 0.448,-1.512 1.172,-2.032c0.724,-0.521 1.724,-0.843 2.828,-0.843z" fill="none" stroke="#bbd0ff" stroke-width="2" stroke-linecap="butt"/><path d="M186.2,164.825c1.104,0 2.104,0.322 2.828,0.843c0.724,0.52 1.172,1.239 1.172,2.032c0,0.793 -0.448,1.512 -1.172,2.032c-0.724,0.521 -1.724,0.843 -2.828,0.843c-1.104,0 -2.104,-0.322 -2.828,-0.843c-0.724,-0.52 -1.172,-1.239 -1.172,-2.032c0,-0.793 0.448,-1.512 1.172,-2.032c0.724,-0.521 1.724,-0.843 2.828,-0.843z" fill="none" stroke="#bbd0ff" stroke-width="2" stroke-linecap="round"/><g fill="none" stroke="#ab886c" stroke-width="1.02084" stroke-linecap="round"><path d="M211.4406,213.8953l2.9349,-6.5078"/><path d="M216.4172,208.5359l-4.5938,9.698"/><path d="M210.675,208.0255l2.9349,7.7839"/><path d="M212.2063,207.0047l3.7005,7.2734"/></g></g></g></svg>