<svg version="1.1" xmlns="http://www.w3.org/2000/svg" xmlns:xlink="http://www.w3.org/1999/xlink" width="168.2" height="121.9286" viewBox="0,0,168.2,121.9286"><defs><radialGradient cx="197.989" cy="214.5208" r="7.7561" gradientUnits="userSpaceOnUse" id="color-1"><stop offset="0" stop-color="#cc7700"/><stop offset="1" stop-color="#cc7700" stop-opacity="0"/></radialGradient><radialGradient cx="291.989" cy="214.5208" r="7.7561" gradientUnits="userSpaceOnUse" id="color-2"><stop offset="0" stop-color="#cc7700"/><stop offset="1" stop-color="#cc7700" stop-opacity="0"/></radialGradient></defs><g transform="translate(-155.4,-119.5357)"><g data-paper-data="{&quot;isPaintingLayer&quot;:true}" fill-rule="nonzero" stroke-linejoin="miter" stroke-miterlimit="10" stroke-dasharray="" stroke-dashoffset="0" style="mix-blend-mode: normal"><path d="M191.4,119.5357c9.408,0 17.933,3.5633 24.106,9.3195c6.173,5.7572 9.994,13.7072 9.994,22.4805c0,8.7733 -3.821,16.7233 -9.994,22.4804c-6.173,5.7562 -14.698,9.3196 -24.106,9.3196c-9.408,0 -17.933,-3.5634 -24.106,-9.3196c-6.173,-5.7571 -9.994,-13.7071 -9.994,-22.4804c0,-8.7733 3.821,-16.7233 9.994,-22.4805c6.173,-5.7562 14.698,-9.3195 24.106,-9.3195z" fill="#000000" stroke="none" stroke-width="0.93783" stroke-linecap="butt"/><path d="M205.0508,181.9909c4.1506,2.2068 7.8317,5.319 11.455,7.9898c2.1917,1.6191 5.7078,2.5493 6.4273,5.0618c0.6129,1.9605 -1.8931,3.731 -3.5973,4.4966c-0.9193,0.4233 -1.8462,-0.4663 -2.9507,-1.0262c-2.4127,-1.2319 -5.0386,-2.331 -6.9068,-4.3068c-1.9131,-2.0212 -3.3266,-4.5003 -4.7312,-6.8984c-0.536,-1.2892 -1.2207,-2.6861 -1.0328,-4.0464c0.1278,-0.6801 0.3687,-1.7526 1.3365,-1.2704z" fill="#c49c76" stroke="#000000" stroke-width="2" stroke-linecap="round"/><path d="M224.6319,194.4167c1.1252,0.6888 2.0133,1.8204 2.397,3.2312c0.3836,1.4107 0.1928,2.8316 -0.4303,4.0001c-0.6184,1.1558 -1.713,2.3437 -3.0036,2.4263c-1.8517,-0.0032 -3.408,-0.3147 -6.2156,-3.8021c-0.1457,-2.1055 0.2508,-3.3492 3.4338,-6.4264c1.2312,-0.4685 2.6928,-0.1167 3.8187,0.5709z" fill="#ffcccc" stroke="#000000" stroke-width="2" stroke-linecap="round"/><path d="M181.2357,181.8112c0.1879,1.3604 -0.4969,2.7573 -1.0328,4.0465c-1.4046,2.3981 -2.8181,4.8772 -4.7312,6.8984c-1.8682,1.9758 -4.4941,3.0749 -6.9068,4.3067c-1.1045,0.56 -2.0314,1.4495 -2.9507,1.0263c-1.7042,-0.7656 -4.2102,-2.5361 -3.5973,-4.4966c0.7195,-2.5125 4.2356,-3.4427 6.4273,-5.0618c3.6233,-2.6708 7.3044,-5.783 11.455,-7.9898c0.9678,-0.4822 1.2087,0.5902 1.3365,1.2703z" fill="#c49c76" stroke="#000000" stroke-width="2" stroke-linecap="round"/><g stroke="#000000" stroke-width="2"><path d="M203.25,235.8143h-7.6v-20.4h7.6z" fill="#000000" stroke-linecap="butt"/><path d="M208.3,240.4143h-12.4v-9.2l7.25,0.15z" fill="#ffffff" stroke-linecap="round"/></g><path d="M164.0868,192.3958c3.1996,3.0807 3.5783,4.3215 3.4338,6.4264c-2.7942,3.4952 -4.362,3.7994 -6.2156,3.8021c-1.2906,-0.0826 -2.3852,-1.2705 -3.0036,-2.4263c-0.6232,-1.1685 -0.814,-2.5894 -0.4303,-4.0001c0.3837,-1.4108 1.2718,-2.5424 2.397,-3.2312c1.1259,-0.6876 2.5875,-1.0394 3.8187,-0.5709z" fill="#ffcccc" stroke="#000000" stroke-width="2" stroke-linecap="round"/><g stroke="#000000" stroke-width="2"><path d="M179,215.4643h7.6v20.4h-7.6z" fill="#000000" stroke-linecap="butt"/><path d="M179.1,231.4143l7.25,-0.15v9.2h-12.4z" fill="#ffffff" stroke-linecap="round"/></g><path d="M182.1,172.3643l15,-0.6l8,9.55l10.4,39.6h-46.4l8.6,-40z" fill="#c49c76" stroke="#000000" stroke-width="2" stroke-linecap="round"/><path d="M181.8,180.9143l5.35,7.45l6.4,0.6l6.45,-8.05l-0.4,16l9.55,26h-35.6l7.65,-25.6z" fill="#f6f6f6" stroke="#000000" stroke-width="2" stroke-linecap="round"/><path d="M174.6,193.8643h34.2v3.8h-34.2z" fill="#f6f6f6" stroke="#000000" stroke-width="2" stroke-linecap="butt"/><g><path d="M161.5,147.4143c1.407,0 2.682,0.712 3.605,1.861c0.924,1.15 1.495,2.737 1.495,4.489c0,1.752 -0.571,3.339 -1.495,4.489c-0.923,1.149 -2.198,1.861 -3.605,1.861c-1.407,0 -2.682,-0.712 -3.605,-1.861c-0.924,-1.15 -1.495,-2.737 -1.495,-4.489c0,-1.752 0.571,-3.339 1.495,-4.489c0.923,-1.149 2.198,-1.861 3.605,-1.861z" fill="#ffcccc" stroke="#000000" stroke-width="2" stroke-linecap="butt"/><path d="M221.05,150.1643c1.407,0 2.682,0.712 3.605,1.861c0.924,1.15 1.495,2.737 1.495,4.489c0,1.752 -0.571,3.339 -1.495,4.489c-0.923,1.149 -2.198,1.861 -3.605,1.861c-1.407,0 -2.682,-0.712 -3.605,-1.861c-0.924,-1.15 -1.495,-2.737 -1.495,-4.489c0,-1.752 0.571,-3.339 1.495,-4.489c0.923,-1.149 2.198,-1.861 3.605,-1.861z" fill="#ffcccc" stroke="#000000" stroke-width="2" stroke-linecap="butt"/><path d="M191.35,125.1643c7.822,0 14.909,3.154 20.041,8.25c5.132,5.096 8.309,12.134 8.309,19.9c0,7.766 -3.177,14.804 -8.309,19.9c-5.132,5.096 -12.219,8.25 -20.041,8.25c-7.822,0 -14.909,-3.154 -20.041,-8.25c-5.132,-5.096 -8.309,-12.134 -8.309,-19.9c0,-7.766 3.177,-14.804 8.309,-19.9c5.132,-5.096 12.219,-8.25 20.041,-8.25z" fill="#ffcccc" stroke="#000000" stroke-width="2" stroke-linecap="butt"/><path d="M176.1,142.9143c2.028,0 3.865,0.801 5.196,2.096c1.33,1.294 2.154,3.081 2.154,5.054c0,1.973 -0.824,3.76 -2.154,5.054c-1.331,1.295 -3.168,2.096 -5.196,2.096c-2.028,0 -3.865,-0.801 -5.196,-2.096c-1.33,-1.294 -2.154,-3.081 -2.154,-5.054c0,-1.973 0.824,-3.76 2.154,-5.054c1.331,-1.295 3.168,-2.096 5.196,-2.096z" fill="#ffffff" stroke="#000000" stroke-width="2" stroke-linecap="butt"/><path d="M174.75,144.4643l0.9,11.4" fill="none" stroke="#000000" stroke-width="2" stroke-linecap="round"/><path d="M203.7,142.0643c2.028,0 3.865,0.801 5.196,2.096c1.33,1.294 2.154,3.081 2.154,5.054c0,1.973 -0.824,3.76 -2.154,5.054c-1.331,1.295 -3.168,2.096 -5.196,2.096c-2.028,0 -3.865,-0.801 -5.196,-2.096c-1.33,-1.294 -2.154,-3.081 -2.154,-5.054c0,-1.973 0.824,-3.76 2.154,-5.054c1.331,-1.295 3.168,-2.096 5.196,-2.096z" fill="#ffffff" stroke="#000000" stroke-width="2" stroke-linecap="butt"/><path d="M202.35,143.3643l0.9,11.4" fill="none" stroke="#000000" stroke-width="2" stroke-linecap="round"/><path d="M190,159.5643l-0.1,-14.8" fill="none" stroke="#000000" stroke-width="2" stroke-linecap="round"/><path d="M196.8625,168.8471l-5.3828,2.9674l-4.8635,-2.7361" fill="none" stroke="#000000" stroke-width="2" stroke-linecap="round"/><path d="M176.55,159.9143c1.752,0 3.339,0.644 4.489,1.685c1.149,1.041 1.861,2.479 1.861,4.065c0,1.586 -0.712,3.024 -1.861,4.065c-1.15,1.041 -2.737,1.685 -4.489,1.685c-1.752,0 -3.339,-0.644 -4.489,-1.685c-1.149,-1.041 -1.861,-2.479 -1.861,-4.065c0,-1.586 0.712,-3.024 1.861,-4.065c1.15,-1.041 2.737,-1.685 4.489,-1.685z" fill="none" stroke="#ff9999" stroke-width="2" stroke-linecap="butt"/><path d="M171.35,140.0643c0,0 1.581,-2.715 2.9,-2.9c1.68,-0.399 4.8,1.4 4.8,1.4" fill="none" stroke="#000000" stroke-width="2" stroke-linecap="round"/><path d="M199.75,137.6643c0,0 3.12,-1.799 4.8,-1.4c1.319,0.185 2.9,2.9 2.9,2.9" fill="none" stroke="#000000" stroke-width="2" stroke-linecap="round"/><path d="M206.25,159.1643c1.752,0 3.339,0.644 4.489,1.685c1.149,1.041 1.861,2.479 1.861,4.065c0,1.586 -0.712,3.024 -1.861,4.065c-1.15,1.041 -2.737,1.685 -4.489,1.685c-1.752,0 -3.339,-0.644 -4.489,-1.685c-1.149,-1.041 -1.861,-2.479 -1.861,-4.065c0,-1.586 0.712,-3.024 1.861,-4.065c1.15,-1.041 2.737,-1.685 4.489,-1.685z" fill="none" stroke="#ff9999" stroke-width="2" stroke-linecap="round"/><path d="M172.7,144.1084c0.897,0 1.709,0.7455 2.297,1.9492c0.589,1.2037 0.953,2.8656 0.953,4.7008c0,1.8352 -0.364,3.4971 -0.953,4.7008c-0.588,1.2037 -1.4,1.9492 -2.297,1.9492c-0.897,0 -1.709,-0.7455 -2.297,-1.9492c-0.589,-1.2037 -0.953,-2.8656 -0.953,-4.7008c0,-1.8352 0.364,-3.4971 0.953,-4.7008c0.588,-1.2037 1.4,-1.9492 2.297,-1.9492z" fill="#000000" stroke="none" stroke-width="1.06045" stroke-linecap="butt"/><path d="M200.5092,142.7471c1.0074,0 2.1283,1.0214 2.5797,2.0957c0.611,1.4576 0.1595,3.1893 0.1157,4.7539c0.0438,1.8049 0.5413,3.7228 -0.1157,5.3546c-0.3346,0.8352 -1.4689,0.435 -2.1866,0.2932c-1.0332,0.1418 -2.3708,0.6309 -2.9728,-0.2932c-0.9108,-1.3639 -1.0703,-3.0811 -1.0703,-5.0542c0,-1.9732 0.4088,-3.7601 1.0703,-5.0543c0.6604,-1.2942 1.5723,-2.0957 2.5797,-2.0957z" fill="#000000" stroke="none" stroke-width="1.16305" stroke-linecap="round"/></g><path d="M198.7,209.5643c0.969,-0.599 2.748,0.807 3.2,2c0.419,1.073 -1.055,1.999 -0.8,3.4c0.334,1.707 3.199,3.676 2.6,4.6c-0.593,0.89 -3.287,-1.16 -5,-1.6c-1.028,-0.031 -2.371,0.996 -3.114,0.204c-1.067,-1.124 -1.962,-3.155 -1.436,-4.454c0.401,-0.987 2.838,1.105 3.75,0.25c1.17,-1.113 -0.231,-3.798 0.8,-4.4z" fill="url(#color-1)" stroke="none" stroke-width="1" stroke-linecap="round"/><path d="M220.4,169.5643c2.538,0 4.838,0.952 6.504,2.491c1.665,1.539 2.696,3.664 2.696,6.009c0,2.345 -1.031,4.47 -2.696,6.009c-1.666,1.539 -3.966,2.491 -6.504,2.491c-2.538,0 -4.838,-0.952 -6.504,-2.491c-1.665,-1.539 -2.696,-3.664 -2.696,-6.009c0,-2.345 1.031,-4.47 2.696,-6.009c1.666,-1.539 3.966,-2.491 6.504,-2.491z" fill="#000000" stroke="none" stroke-width="1" stroke-linecap="round"/><path d="M285.45,119.5357c9.408,0 17.933,3.5633 24.106,9.3195c6.173,5.7572 9.994,13.7072 9.994,22.4805c0,8.7733 -3.821,16.7233 -9.994,22.4804c-6.173,5.7562 -14.698,9.3196 -24.106,9.3196c-9.408,0 -17.933,-3.5634 -24.106,-9.3196c-6.173,-5.7571 -9.994,-13.7071 -9.994,-22.4804c0,-8.7733 3.821,-16.7233 9.994,-22.4805c6.173,-5.7562 14.698,-9.3195 24.106,-9.3195z" fill="#000000" stroke="none" stroke-width="0.93783" stroke-linecap="butt"/><path d="M299.0508,181.9909c4.1506,2.2068 7.8317,5.319 11.455,7.9898c2.1917,1.6191 5.7078,2.5493 6.4273,5.0618c0.6129,1.9605 -1.8931,3.731 -3.5973,4.4966c-0.9193,0.4233 -1.8462,-0.4663 -2.9507,-1.0262c-2.4127,-1.2319 -5.0386,-2.331 -6.9068,-4.3068c-1.9131,-2.0212 -3.3266,-4.5003 -4.7312,-6.8984c-0.536,-1.2892 -1.2207,-2.6861 -1.0328,-4.0464c0.1278,-0.6801 0.3687,-1.7526 1.3365,-1.2704z" fill="#c49c76" stroke="#000000" stroke-width="2" stroke-linecap="round"/><path d="M318.6319,194.4667c1.1252,0.6888 2.0133,1.8204 2.397,3.2312c0.3836,1.4107 0.1928,2.8316 -0.4303,4.0001c-0.6184,1.1558 -1.713,2.3437 -3.0036,2.4263c-1.8517,-0.0032 -3.408,-0.3147 -6.2156,-3.8021c-0.1457,-2.1055 0.2508,-3.3492 3.4338,-6.4264c1.2312,-0.4685 2.6928,-0.1167 3.8187,0.5709z" fill="#ffcccc" stroke="#000000" stroke-width="2" stroke-linecap="round"/><path d="M275.2357,181.8112c0.1879,1.3604 -0.4969,2.7573 -1.0328,4.0465c-1.4046,2.3981 -2.8181,4.8772 -4.7312,6.8984c-1.8682,1.9758 -4.4941,3.0749 -6.9068,4.3067c-1.1045,0.56 -2.0314,1.4495 -2.9507,1.0263c-1.7042,-0.7656 -4.2102,-2.5361 -3.5973,-4.4966c0.7195,-2.5125 4.2356,-3.4427 6.4273,-5.0618c3.6233,-2.6708 7.3044,-5.783 11.455,-7.9898c0.9678,-0.4822 1.2087,0.5902 1.3365,1.2703z" fill="#c49c76" stroke="#000000" stroke-width="2" stroke-linecap="round"/><g stroke="#000000" stroke-width="2"><path d="M297.25,235.8143h-7.6v-20.4h7.6z" fill="#000000" stroke-linecap="butt"/><path d="M302.3,240.4143h-12.4v-9.2l7.25,0.15z" fill="#ffffff" stroke-linecap="round"/></g><path d="M258.0868,192.3958c3.1996,3.0807 3.5783,4.3215 3.4338,6.4264c-2.7942,3.4952 -4.362,3.7994 -6.2156,3.8021c-1.2906,-0.0826 -2.3852,-1.2705 -3.0036,-2.4263c-0.6232,-1.1685 -0.814,-2.5894 -0.4303,-4.0001c0.3837,-1.4108 1.2718,-2.5424 2.397,-3.2312c1.1259,-0.6876 2.5875,-1.0394 3.8187,-0.5709z" fill="#ffcccc" stroke="#000000" stroke-width="2" stroke-linecap="round"/><g stroke="#000000" stroke-width="2"><path d="M273,215.4643h7.6v20.4h-7.6z" fill="#000000" stroke-linecap="butt"/><path d="M273.1,231.4143l7.25,-0.15v9.2h-12.4z" fill="#ffffff" stroke-linecap="round"/></g><path d="M276.05,172.4143l15,-0.6l8,9.55l10.4,39.6h-46.4l8.6,-40z" fill="#c49c76" stroke="#000000" stroke-width="2" stroke-linecap="round"/><path d="M275.85,180.9643l5.35,7.45l6.4,0.6l6.45,-8.05l-0.4,16l9.55,26h-35.6l7.65,-25.6z" fill="#f6f6f6" stroke="#000000" stroke-width="2" stroke-linecap="round"/><path d="M268.6,193.8643h34.2v3.8h-34.2z" fill="#f6f6f6" stroke="#000000" stroke-width="2" stroke-linecap="butt"/><path d="M255.5,147.4143c1.407,0 2.682,0.712 3.605,1.861c0.924,1.15 1.495,2.737 1.495,4.489c0,1.752 -0.571,3.339 -1.495,4.489c-0.923,1.149 -2.198,1.861 -3.605,1.861c-1.407,0 -2.682,-0.712 -3.605,-1.861c-0.924,-1.15 -1.495,-2.737 -1.495,-4.489c0,-1.752 0.571,-3.339 1.495,-4.489c0.923,-1.149 2.198,-1.861 3.605,-1.861z" fill="#ffcccc" stroke="#000000" stroke-width="2" stroke-linecap="butt"/><path d="M315.05,150.1643c1.407,0 2.682,0.712 3.605,1.861c0.924,1.15 1.495,2.737 1.495,4.489c0,1.752 -0.571,3.339 -1.495,4.489c-0.923,1.149 -2.198,1.861 -3.605,1.861c-1.407,0 -2.682,-0.712 -3.605,-1.861c-0.924,-1.15 -1.495,-2.737 -1.495,-4.489c0,-1.752 0.571,-3.339 1.495,-4.489c0.923,-1.149 2.198,-1.861 3.605,-1.861z" fill="#ffcccc" stroke="#000000" stroke-width="2" stroke-linecap="butt"/><path d="M285.35,125.1643c7.822,0 14.909,3.154 20.041,8.25c5.132,5.096 8.309,12.134 8.309,19.9c0,7.766 -3.177,14.804 -8.309,19.9c-5.132,5.096 -12.219,8.25 -20.041,8.25c-7.822,0 -14.909,-3.154 -20.041,-8.25c-5.132,-5.096 -8.309,-12.134 -8.309,-19.9c0,-7.766 3.177,-14.804 8.309,-19.9c5.132,-5.096 12.219,-8.25 20.041,-8.25z" fill="#ffcccc" stroke="#000000" stroke-width="2" stroke-linecap="butt"/><path d="M270.15,142.9643c2.028,0 3.865,0.801 5.196,2.096c1.33,1.294 2.154,3.081 2.154,5.054c0,1.973 -0.824,3.76 -2.154,5.054c-1.331,1.295 -3.168,2.096 -5.196,2.096c-2.028,0 -3.865,-0.801 -5.196,-2.096c-1.33,-1.294 -2.154,-3.081 -2.154,-5.054c0,-1.973 0.824,-3.76 2.154,-5.054c1.331,-1.295 3.168,-2.096 5.196,-2.096z" fill="#ffffff" stroke="#000000" stroke-width="2" stroke-linecap="butt"/><path d="M268.8,144.5143l0.9,11.4" fill="none" stroke="#000000" stroke-width="2" stroke-linecap="round"/><path d="M297.7,142.0643c2.028,0 3.865,0.801 5.196,2.096c1.33,1.294 2.154,3.081 2.154,5.054c0,1.973 -0.824,3.76 -2.154,5.054c-1.331,1.295 -3.168,2.096 -5.196,2.096c-2.028,0 -3.865,-0.801 -5.196,-2.096c-1.33,-1.294 -2.154,-3.081 -2.154,-5.054c0,-1.973 0.824,-3.76 2.154,-5.054c1.331,-1.295 3.168,-2.096 5.196,-2.096z" fill="#ffffff" stroke="#000000" stroke-width="2" stroke-linecap="butt"/><path d="M296.35,143.3643l0.9,11.4" fill="none" stroke="#000000" stroke-width="2" stroke-linecap="round"/><path d="M284,159.5643l-0.1,-14.8" fill="none" stroke="#000000" stroke-width="2" stroke-linecap="round"/><path d="M270.6,159.9143c1.752,0 3.339,0.644 4.489,1.685c1.149,1.041 1.861,2.479 1.861,4.065c0,1.586 -0.712,3.024 -1.861,4.065c-1.15,1.041 -2.737,1.685 -4.489,1.685c-1.752,0 -3.339,-0.644 -4.489,-1.685c-1.149,-1.041 -1.861,-2.479 -1.861,-4.065c0,-1.586 0.712,-3.024 1.861,-4.065c1.15,-1.041 2.737,-1.685 4.489,-1.685z" fill="none" stroke="#ff9999" stroke-width="2" stroke-linecap="butt"/><path d="M275.4122,137.4453c0,0 -2.4833,2.6084 -4.2076,2.7012c-1.3174,0.1959 -3.6022,-1.9607 -3.6022,-1.9607" fill="none" stroke="#000000" stroke-width="2" stroke-linecap="round"/><path d="M301.4,136.1643c0,0 -1.581,2.715 -2.9,2.9c-1.68,0.399 -4.8,-1.4 -4.8,-1.4" fill="none" stroke="#000000" stroke-width="2" stroke-linecap="round"/><path d="M300.2,159.1643c1.752,0 3.339,0.644 4.489,1.685c1.149,1.041 1.861,2.479 1.861,4.065c0,1.586 -0.712,3.024 -1.861,4.065c-1.15,1.041 -2.737,1.685 -4.489,1.685c-1.752,0 -3.339,-0.644 -4.489,-1.685c-1.149,-1.041 -1.861,-2.479 -1.861,-4.065c0,-1.586 0.712,-3.024 1.861,-4.065c1.15,-1.041 2.737,-1.685 4.489,-1.685z" fill="none" stroke="#ff9999" stroke-width="2" stroke-linecap="round"/><path d="M266.75,144.1084c0.897,0 1.709,0.7455 2.297,1.9492c0.589,1.2037 0.953,2.8656 0.953,4.7008c0,1.8352 -0.364,3.4971 -0.953,4.7008c-0.588,1.2037 -1.4,1.9492 -2.297,1.9492c-0.897,0 -1.709,-0.7455 -2.297,-1.9492c-0.589,-1.2037 -0.953,-2.8656 -0.953,-4.7008c0,-1.8352 0.364,-3.4971 0.953,-4.7008c0.588,-1.2037 1.4,-1.9492 2.297,-1.9492z" fill="#000000" stroke="none" stroke-width="1.06045" stroke-linecap="butt"/><path d="M294.5592,142.7471c1.0074,0 2.1283,1.0214 2.5797,2.0957c0.611,1.4576 0.1595,3.1893 0.1157,4.7539c0.0438,1.8049 0.5413,3.7228 -0.1157,5.3546c-0.3346,0.8352 -1.4689,0.435 -2.1866,0.2932c-1.0332,0.1418 -2.3708,0.6309 -2.9728,-0.2932c-0.9108,-1.3639 -1.0703,-3.0811 -1.0703,-5.0542c0,-1.9732 0.4088,-3.7601 1.0703,-5.0543c0.6604,-1.2942 1.5723,-2.0957 2.5797,-2.0957z" fill="#000000" stroke="none" stroke-width="1.16305" stroke-linecap="round"/><path d="M292.7,209.5643c0.969,-0.599 2.748,0.807 3.2,2c0.419,1.073 -1.055,1.999 -0.8,3.4c0.334,1.707 3.199,3.676 2.6,4.6c-0.593,0.89 -3.287,-1.16 -5,-1.6c-1.028,-0.031 -2.371,0.996 -3.114,0.204c-1.067,-1.124 -1.962,-3.155 -1.436,-4.454c0.401,-0.987 2.838,1.105 3.75,0.25c1.17,-1.113 -0.231,-3.798 0.8,-4.4z" fill="url(#color-2)" stroke="none" stroke-width="1" stroke-linecap="round"/><path d="M314.4,169.5643c2.538,0 4.838,0.952 6.504,2.491c1.665,1.539 2.696,3.664 2.696,6.009c0,2.345 -1.031,4.47 -2.696,6.009c-1.666,1.539 -3.966,2.491 -6.504,2.491c-2.538,0 -4.838,-0.952 -6.504,-2.491c-1.665,-1.539 -2.696,-3.664 -2.696,-6.009c0,-2.345 1.031,-4.47 2.696,-6.009c1.666,-1.539 3.966,-2.491 6.504,-2.491z" fill="#000000" stroke="none" stroke-width="1" stroke-linecap="round"/><path d="M280.7,172.7143h9.15" fill="none" stroke="#000000" stroke-width="2" stroke-linecap="round"/></g></g></svg>