<svg version="1.1" xmlns="http://www.w3.org/2000/svg" xmlns:xlink="http://www.w3.org/1999/xlink" width="165.4" height="123.02774" viewBox="0,0,165.4,123.02774"><defs><radialGradient cx="190.5753" cy="214.69115" r="6.2135" gradientUnits="userSpaceOnUse" id="color-1"><stop offset="0" stop-color="#ba8b76"/><stop offset="1" stop-color="#ba8b76" stop-opacity="0"/></radialGradient><radialGradient cx="280.5753" cy="213.69115" r="6.2135" gradientUnits="userSpaceOnUse" id="color-2"><stop offset="0" stop-color="#ba8b76"/><stop offset="1" stop-color="#ba8b76" stop-opacity="0"/></radialGradient></defs><g transform="translate(-157.3,-118.50031)"><g data-paper-data="{&quot;isPaintingLayer&quot;:true}" fill-rule="nonzero" stroke-linejoin="miter" stroke-miterlimit="10" stroke-dasharray="" stroke-dashoffset="0" style="mix-blend-mode: normal"><path d="M206.65,169.92805c2.014,0 3.839,0.818 5.161,2.139c1.321,1.322 2.139,3.147 2.139,5.161c0,2.014 -0.818,3.839 -2.139,5.161c-1.322,1.321 -3.147,2.139 -5.161,2.139c-2.014,0 -3.839,-0.818 -5.161,-2.139c-1.321,-1.322 -2.139,-3.147 -2.139,-5.161c0,-2.014 0.818,-3.839 2.139,-5.161c1.322,-1.321 3.147,-2.139 5.161,-2.139z" fill="#663b00" stroke="#000000" stroke-width="2" stroke-linecap="butt"/><path d="M208.3008,182.05465c4.1506,2.2068 7.8317,5.319 11.455,7.9898c2.1917,1.6191 5.7078,2.5493 6.4273,5.0618c0.6129,1.9605 -1.8931,3.731 -3.5973,4.4966c-0.9193,0.4233 -1.8462,-0.4663 -2.9507,-1.0262c-2.4127,-1.2319 -5.0386,-2.331 -6.9068,-4.3068c-1.9131,-2.0212 -3.3266,-4.5003 -4.7312,-6.8984c-0.536,-1.2892 -1.2207,-2.6861 -1.0328,-4.0464c0.1278,-0.6801 0.3687,-1.7526 1.3365,-1.2704z" fill="#ba9d60" stroke="#000000" stroke-width="2" stroke-linecap="round"/><path d="M227.8819,194.53045c1.1252,0.6888 2.0133,1.8204 2.397,3.2312c0.3836,1.4107 0.1928,2.8316 -0.4303,4.0001c-0.6184,1.1558 -1.713,2.3437 -3.0036,2.4263c-1.8517,-0.0032 -3.408,-0.3147 -6.2156,-3.8021c-0.1457,-2.1055 0.2508,-3.3492 3.4338,-6.4264c1.2312,-0.4685 2.6928,-0.1167 3.8187,0.5709z" fill="#ceefff" stroke="#000000" stroke-width="2" stroke-linecap="round"/><path d="M184.4857,181.87495c0.1879,1.3604 -0.4969,2.7573 -1.0328,4.0465c-1.4046,2.3981 -2.8181,4.8772 -4.7312,6.8984c-1.8682,1.9758 -4.4941,3.0749 -6.9068,4.3067c-1.1045,0.56 -2.0314,1.4495 -2.9507,1.0263c-1.7042,-0.7656 -4.2102,-2.5361 -3.5973,-4.4966c0.7195,-2.5125 4.2356,-3.4427 6.4273,-5.0618c3.6233,-2.6708 7.3044,-5.783 11.455,-7.9898c0.9678,-0.4822 1.2087,0.5902 1.3365,1.2703z" fill="#ba9d60" stroke="#000000" stroke-width="2" stroke-linecap="round"/><g stroke="#000000" stroke-width="2"><path d="M206.5,235.87805h-7.6v-20.4h7.6z" fill="#000000" stroke-linecap="butt"/><path d="M211.55,240.47805h-12.4v-9.2l7.25,0.15z" fill="#ffffff" stroke-linecap="round"/></g><path d="M167.3368,192.45955c3.1996,3.0807 3.5783,4.3215 3.4338,6.4264c-2.7942,3.4952 -4.362,3.7994 -6.2156,3.8021c-1.2906,-0.0826 -2.3852,-1.2705 -3.0036,-2.4263c-0.6232,-1.1685 -0.814,-2.5894 -0.4303,-4.0001c0.3837,-1.4108 1.2718,-2.5424 2.397,-3.2312c1.1259,-0.6876 2.5875,-1.0394 3.8187,-0.5709z" fill="#ceefff" stroke="#000000" stroke-width="2" stroke-linecap="round"/><path d="M194.85,120.47195c8.856,0 16.881,3.3796 22.692,8.839c5.811,5.4586 9.408,12.998 9.408,21.3186c0,8.3207 -3.597,15.8601 -9.408,21.3186c-5.811,5.4595 -13.836,8.839 -22.692,8.839c-8.856,0 -16.881,-3.3795 -22.692,-8.839c-5.811,-5.4585 -9.408,-12.9979 -9.408,-21.3186c0,-8.3206 3.597,-15.86 9.408,-21.3186c5.811,-5.4594 13.836,-8.839 22.692,-8.839z" fill="#663b00" stroke="#000000" stroke-width="1.94328" stroke-linecap="butt"/><g stroke="#000000" stroke-width="2"><path d="M182.25,215.52805h7.6v20.4h-7.6z" fill="#000000" stroke-linecap="butt"/><path d="M182.35,231.47805l7.25,-0.15v9.2h-12.4z" fill="#ffffff" stroke-linecap="round"/></g><path d="M185.3,172.47805l15,-0.6l8,9.55l10.4,39.6h-46.4l8.6,-40z" fill="#ba9d60" stroke="#000000" stroke-width="2" stroke-linecap="round"/><path d="M165.8,148.12805c2.069,0 3.944,0.908 5.302,2.374c1.358,1.466 2.198,3.491 2.198,5.726c0,2.235 -0.84,4.26 -2.198,5.726c-1.358,1.466 -3.233,2.374 -5.302,2.374c-2.069,0 -3.944,-0.908 -5.302,-2.374c-1.358,-1.466 -2.198,-3.491 -2.198,-5.726c0,-2.235 0.84,-4.26 2.198,-5.726c1.358,-1.466 3.233,-2.374 5.302,-2.374z" fill="#ceefff" stroke="#000000" stroke-width="2" stroke-linecap="butt"/><path d="M185.1,181.02805l5.35,7.45l6.4,0.6l6.45,-8.05l-0.4,16l9.55,26h-35.6l7.65,-25.6z" fill="#f6f6f6" stroke="#000000" stroke-width="2" stroke-linecap="round"/><path d="M224.2,149.17805c2.069,0 3.944,0.908 5.302,2.374c1.358,1.466 2.198,3.491 2.198,5.726c0,2.235 -0.84,4.26 -2.198,5.726c-1.358,1.466 -3.233,2.374 -5.302,2.374c-2.069,0 -3.944,-0.908 -5.302,-2.374c-1.358,-1.466 -2.198,-3.491 -2.198,-5.726c0,-2.235 0.84,-4.26 2.198,-5.726c1.358,-1.466 3.233,-2.374 5.302,-2.374z" fill="#ceefff" stroke="#000000" stroke-width="2" stroke-linecap="butt"/><path d="M177.85,193.92805h34.2v3.8h-34.2z" fill="#f6f6f6" stroke="#000000" stroke-width="2" stroke-linecap="butt"/><path d="M198.2,127.12805c5.413,2.559 10.412,6.307 14.4,10.8c4.388,4.391 10.069,9.138 10.35,15.45c0.323,7.181 -3.177,14.804 -8.309,19.9c-5.132,5.096 -12.219,8.25 -20.041,8.25c-7.822,0 -15.315,-2.797 -20.041,-8.25c-5.531,-6.393 -10.867,-16.632 -7.959,-24.8c3.602,-10.084 15.9,-15.257 25,-21.35c2.329,-1.555 4.617,-0.939 6.6,0z" fill="#ceefff" stroke="#000000" stroke-width="2" stroke-linecap="butt"/><g><g><path d="M208.85,150.62805c2.042,0 3.892,0.392 5.231,1.026c1.34,0.633 2.169,1.508 2.169,2.474c0,0.966 -0.829,1.841 -2.169,2.474c-1.339,0.634 -3.189,1.026 -5.231,1.026c-2.042,0 -3.892,-0.392 -5.231,-1.026c-1.34,-0.633 -2.169,-1.508 -2.169,-2.474c0,-0.966 0.829,-1.841 2.169,-2.474c1.339,-0.634 3.189,-1.026 5.231,-1.026z" fill="#ffffff" stroke="#000000" stroke-width="2" stroke-linecap="butt"/><path d="M212.15,151.12805c0.831,0.335 1.893,0.336 2.545,0.879c0.652,0.543 1.055,1.293 1.055,2.121c0,0.828 -0.403,1.578 -1.055,2.121c-0.652,0.543 -1.653,0.756 -2.545,0.879c-0.915,0.128 -2.288,0.647 -3.25,0c-0.607,-0.661 -0.378,-1.995 -0.35,-3c0.044,-1.523 -0.714,-3.654 0.15,-4.4c0.932,-0.752 2.421,0.979 3.45,1.4z" fill="#000000" stroke="none" stroke-width="1" stroke-linecap="round"/></g><path d="M209.35,149.92805l-0.8,-3z" fill="none" stroke="#000000" stroke-width="2" stroke-linecap="round"/><path d="M213.35,147.12805l-1,3.6z" fill="none" stroke="#000000" stroke-width="2" stroke-linecap="round"/><path d="M217.3,149.12805l-2.95,2z" fill="none" stroke="#000000" stroke-width="2" stroke-linecap="round"/></g><g><g><path d="M179.05,150.52805c2.042,0 3.892,0.392 5.231,1.026c1.34,0.633 2.169,1.508 2.169,2.474c0,0.966 -0.829,1.841 -2.169,2.474c-1.339,0.634 -3.189,1.026 -5.231,1.026c-2.042,0 -3.892,-0.392 -5.231,-1.026c-1.34,-0.633 -2.169,-1.508 -2.169,-2.474c0,-0.966 0.829,-1.841 2.169,-2.474c1.339,-0.634 3.189,-1.026 5.231,-1.026z" fill="#ffffff" stroke="#000000" stroke-width="2" stroke-linecap="butt"/><path d="M182.35,151.02805c0.831,0.335 1.893,0.336 2.545,0.879c0.652,0.543 1.055,1.293 1.055,2.121c0,0.828 -0.403,1.578 -1.055,2.121c-0.652,0.543 -1.653,0.756 -2.545,0.879c-0.915,0.128 -2.288,0.647 -3.25,0c-0.607,-0.661 -0.378,-1.995 -0.35,-3c0.044,-1.523 -0.714,-3.654 0.15,-4.4c0.932,-0.752 2.421,0.979 3.45,1.4z" fill="#000000" stroke="none" stroke-width="1" stroke-linecap="round"/></g><path d="M179.55,149.82805l-0.8,-3z" fill="none" stroke="#000000" stroke-width="2" stroke-linecap="round"/><path d="M182.55,150.62805l1,-3.6z" fill="none" stroke="#000000" stroke-width="2" stroke-linecap="round"/><path d="M187.5,149.02805l-2.95,2z" fill="none" stroke="#000000" stroke-width="2" stroke-linecap="round"/></g><path d="M194.25,162.52805l-0.6,-12" fill="none" stroke="#000000" stroke-width="2" stroke-linecap="round"/><path d="M199.5719,170.78685l-5.5037,2.4478l-5.1445,-3.396" fill="none" stroke="#000000" stroke-width="1.72088" stroke-linecap="round"/><path d="M208.3,140.92805l8.45,3.4h-16.8z" fill="#000000" stroke="none" stroke-width="1" stroke-linecap="round"/><path d="M179.75,140.97805l8.45,3.4h-16.8z" fill="#000000" stroke="none" stroke-width="1" stroke-linecap="round"/><path d="M189.6896,210.35195c1.3919,-0.5887 3.2081,0.527 4.6127,1.2684c0.7939,0.4106 1.4887,1.4 1.2684,2.191c-0.3148,1.0875 -2.3022,1.024 -3.3441,1.8451c-0.4838,0.9398 -0.3091,2.9411 -0.9514,3.1135c-0.6613,0.173 -0.3298,-1.9679 -0.8937,-2.5369c-1.3693,-0.8257 -4.4586,-0.5835 -4.3819,-1.2685c0.1504,-0.8078 3.1636,-0.4595 4.036,-1.6144c0.6988,-0.9335 -1.1878,-2.6448 -0.346,-2.9982z" fill="url(#color-1)" stroke="none" stroke-width="0.57657" stroke-linecap="butt"/><path d="M296.65,168.92805c2.014,0 3.839,0.818 5.161,2.139c1.321,1.322 2.139,3.147 2.139,5.161c0,2.014 -0.818,3.839 -2.139,5.161c-1.322,1.321 -3.147,2.139 -5.161,2.139c-2.014,0 -3.839,-0.818 -5.161,-2.139c-1.321,-1.322 -2.139,-3.147 -2.139,-5.161c0,-2.014 0.818,-3.839 2.139,-5.161c1.322,-1.321 3.147,-2.139 5.161,-2.139z" fill="#663b00" stroke="#000000" stroke-width="2" stroke-linecap="butt"/><path d="M298.3008,181.05465c4.1506,2.2068 7.8317,5.319 11.455,7.9898c2.1917,1.6191 5.7078,2.5493 6.4273,5.0618c0.6129,1.9605 -1.8931,3.731 -3.5973,4.4966c-0.9193,0.4233 -1.8462,-0.4663 -2.9507,-1.0262c-2.4127,-1.2319 -5.0386,-2.331 -6.9068,-4.3068c-1.9131,-2.0212 -3.3266,-4.5003 -4.7312,-6.8984c-0.536,-1.2892 -1.2207,-2.6861 -1.0328,-4.0464c0.1278,-0.6801 0.3687,-1.7526 1.3365,-1.2704z" fill="#ba9d60" stroke="#000000" stroke-width="2" stroke-linecap="round"/><path d="M317.8819,193.53045c1.1252,0.6888 2.0133,1.8204 2.397,3.2312c0.3836,1.4107 0.1928,2.8316 -0.4303,4.0001c-0.6184,1.1558 -1.713,2.3437 -3.0036,2.4263c-1.8517,-0.0032 -3.408,-0.3147 -6.2156,-3.8021c-0.1457,-2.1055 0.2508,-3.3492 3.4338,-6.4264c1.2312,-0.4685 2.6928,-0.1167 3.8187,0.5709z" fill="#ceefff" stroke="#000000" stroke-width="2" stroke-linecap="round"/><path d="M274.4857,180.87495c0.1879,1.3604 -0.4969,2.7573 -1.0328,4.0465c-1.4046,2.3981 -2.8181,4.8772 -4.7312,6.8984c-1.8682,1.9758 -4.4941,3.0749 -6.9068,4.3067c-1.1045,0.56 -2.0314,1.4495 -2.9507,1.0263c-1.7042,-0.7656 -4.2102,-2.5361 -3.5973,-4.4966c0.7195,-2.5125 4.2356,-3.4427 6.4273,-5.0618c3.6233,-2.6708 7.3044,-5.783 11.455,-7.9898c0.9678,-0.4822 1.2087,0.5902 1.3365,1.2703z" fill="#ba9d60" stroke="#000000" stroke-width="2" stroke-linecap="round"/><g stroke="#000000" stroke-width="2"><path d="M296.5,234.87805h-7.6v-20.4h7.6z" fill="#000000" stroke-linecap="butt"/><path d="M301.55,239.47805h-12.4v-9.2l7.25,0.15z" fill="#ffffff" stroke-linecap="round"/></g><path d="M257.3368,191.45955c3.1996,3.0807 3.5783,4.3215 3.4338,6.4264c-2.7942,3.4952 -4.362,3.7994 -6.2156,3.8021c-1.2906,-0.0826 -2.3852,-1.2705 -3.0036,-2.4263c-0.6232,-1.1685 -0.814,-2.5894 -0.4303,-4.0001c0.3837,-1.4108 1.2718,-2.5424 2.397,-3.2312c1.1259,-0.6876 2.5875,-1.0394 3.8187,-0.5709z" fill="#ceefff" stroke="#000000" stroke-width="2" stroke-linecap="round"/><path d="M284.85,119.47195c8.856,0 16.881,3.3796 22.692,8.839c5.811,5.4586 9.408,12.998 9.408,21.3186c0,8.3207 -3.597,15.8601 -9.408,21.3186c-5.811,5.4595 -13.836,8.839 -22.692,8.839c-8.856,0 -16.881,-3.3795 -22.692,-8.839c-5.811,-5.4585 -9.408,-12.9979 -9.408,-21.3186c0,-8.3206 3.597,-15.86 9.408,-21.3186c5.811,-5.4594 13.836,-8.839 22.692,-8.839z" fill="#663b00" stroke="#000000" stroke-width="1.94328" stroke-linecap="butt"/><g stroke="#000000" stroke-width="2"><path d="M272.25,214.52805h7.6v20.4h-7.6z" fill="#000000" stroke-linecap="butt"/><path d="M272.35,230.47805l7.25,-0.15v9.2h-12.4z" fill="#ffffff" stroke-linecap="round"/></g><path d="M275.3,171.47805l15,-0.6l8,9.55l10.4,39.6h-46.4l8.6,-40z" fill="#ba9d60" stroke="#000000" stroke-width="2" stroke-linecap="round"/><path d="M255.8,147.12805c2.069,0 3.944,0.908 5.302,2.374c1.358,1.466 2.198,3.491 2.198,5.726c0,2.235 -0.84,4.26 -2.198,5.726c-1.358,1.466 -3.233,2.374 -5.302,2.374c-2.069,0 -3.944,-0.908 -5.302,-2.374c-1.358,-1.466 -2.198,-3.491 -2.198,-5.726c0,-2.235 0.84,-4.26 2.198,-5.726c1.358,-1.466 3.233,-2.374 5.302,-2.374z" fill="#ceefff" stroke="#000000" stroke-width="2" stroke-linecap="butt"/><path d="M275.1,180.02805l5.35,7.45l6.4,0.6l6.45,-8.05l-0.4,16l9.55,26h-35.6l7.65,-25.6z" fill="#f6f6f6" stroke="#000000" stroke-width="2" stroke-linecap="round"/><path d="M314.2,148.17805c2.069,0 3.944,0.908 5.302,2.374c1.358,1.466 2.198,3.491 2.198,5.726c0,2.235 -0.84,4.26 -2.198,5.726c-1.358,1.466 -3.233,2.374 -5.302,2.374c-2.069,0 -3.944,-0.908 -5.302,-2.374c-1.358,-1.466 -2.198,-3.491 -2.198,-5.726c0,-2.235 0.84,-4.26 2.198,-5.726c1.358,-1.466 3.233,-2.374 5.302,-2.374z" fill="#ceefff" stroke="#000000" stroke-width="2" stroke-linecap="butt"/><path d="M267.85,192.92805h34.2v3.8h-34.2z" fill="#f6f6f6" stroke="#000000" stroke-width="2" stroke-linecap="butt"/><path d="M288.2,126.12805c5.413,2.559 10.412,6.307 14.4,10.8c4.388,4.391 10.069,9.138 10.35,15.45c0.323,7.181 -3.177,14.804 -8.309,19.9c-5.132,5.096 -12.219,8.25 -20.041,8.25c-7.822,0 -15.315,-2.797 -20.041,-8.25c-5.531,-6.393 -10.867,-16.632 -7.959,-24.8c3.602,-10.084 15.9,-15.257 25,-21.35c2.329,-1.555 4.617,-0.939 6.6,0z" fill="#ceefff" stroke="#000000" stroke-width="2" stroke-linecap="butt"/><g><g><path d="M298.85,149.62805c2.042,0 3.892,0.392 5.231,1.026c1.34,0.633 2.169,1.508 2.169,2.474c0,0.966 -0.829,1.841 -2.169,2.474c-1.339,0.634 -3.189,1.026 -5.231,1.026c-2.042,0 -3.892,-0.392 -5.231,-1.026c-1.34,-0.633 -2.169,-1.508 -2.169,-2.474c0,-0.966 0.829,-1.841 2.169,-2.474c1.339,-0.634 3.189,-1.026 5.231,-1.026z" fill="#ffffff" stroke="#000000" stroke-width="2" stroke-linecap="butt"/><path d="M302.15,150.12805c0.831,0.335 1.893,0.336 2.545,0.879c0.652,0.543 1.055,1.293 1.055,2.121c0,0.828 -0.403,1.578 -1.055,2.121c-0.652,0.543 -1.653,0.756 -2.545,0.879c-0.915,0.128 -2.288,0.647 -3.25,0c-0.607,-0.661 -0.378,-1.995 -0.35,-3c0.044,-1.523 -0.714,-3.654 0.15,-4.4c0.932,-0.752 2.421,0.979 3.45,1.4z" fill="#000000" stroke="none" stroke-width="1" stroke-linecap="round"/></g><path d="M299.35,148.92805l-0.8,-3z" fill="none" stroke="#000000" stroke-width="2" stroke-linecap="round"/><path d="M303.35,146.12805l-1,3.6z" fill="none" stroke="#000000" stroke-width="2" stroke-linecap="round"/><path d="M307.3,148.12805l-2.95,2z" fill="none" stroke="#000000" stroke-width="2" stroke-linecap="round"/></g><g><g><path d="M269.05,149.52805c2.042,0 3.892,0.392 5.231,1.026c1.34,0.633 2.169,1.508 2.169,2.474c0,0.966 -0.829,1.841 -2.169,2.474c-1.339,0.634 -3.189,1.026 -5.231,1.026c-2.042,0 -3.892,-0.392 -5.231,-1.026c-1.34,-0.633 -2.169,-1.508 -2.169,-2.474c0,-0.966 0.829,-1.841 2.169,-2.474c1.339,-0.634 3.189,-1.026 5.231,-1.026z" fill="#ffffff" stroke="#000000" stroke-width="2" stroke-linecap="butt"/><path d="M272.35,150.02805c0.831,0.335 1.893,0.336 2.545,0.879c0.652,0.543 1.055,1.293 1.055,2.121c0,0.828 -0.403,1.578 -1.055,2.121c-0.652,0.543 -1.653,0.756 -2.545,0.879c-0.915,0.128 -2.288,0.647 -3.25,0c-0.607,-0.661 -0.378,-1.995 -0.35,-3c0.044,-1.523 -0.714,-3.654 0.15,-4.4c0.932,-0.752 2.421,0.979 3.45,1.4z" fill="#000000" stroke="none" stroke-width="1" stroke-linecap="round"/></g><path d="M269.55,148.82805l-0.8,-3z" fill="none" stroke="#000000" stroke-width="2" stroke-linecap="round"/><path d="M272.55,149.62805l1,-3.6z" fill="none" stroke="#000000" stroke-width="2" stroke-linecap="round"/><path d="M277.5,148.02805l-2.95,2z" fill="none" stroke="#000000" stroke-width="2" stroke-linecap="round"/></g><path d="M284.25,161.52805l-0.6,-12" fill="none" stroke="#000000" stroke-width="2" stroke-linecap="round"/><path d="M298.3,137.81145l8.45,3.4h-16.8z" fill="#000000" stroke="none" stroke-width="1" stroke-linecap="round"/><path d="M269.75,137.55908l8.45,3.4h-16.8z" fill="#000000" stroke="none" stroke-width="1" stroke-linecap="round"/><path d="M279.6896,209.35195c1.3919,-0.5887 3.2081,0.527 4.6127,1.2684c0.7939,0.4106 1.4887,1.4 1.2684,2.191c-0.3148,1.0875 -2.3022,1.024 -3.3441,1.8451c-0.4838,0.9398 -0.3091,2.9411 -0.9514,3.1135c-0.6613,0.173 -0.3298,-1.9679 -0.8937,-2.5369c-1.3693,-0.8257 -4.4586,-0.5835 -4.3819,-1.2685c0.1504,-0.8078 3.1636,-0.4595 4.036,-1.6144c0.6988,-0.9335 -1.1878,-2.6448 -0.346,-2.9982z" fill="url(#color-2)" stroke="none" stroke-width="0.57658" stroke-linecap="butt"/><path d="M279.95,170.87094h9.15" fill="none" stroke="#000000" stroke-width="2" stroke-linecap="round"/></g></g></svg>