<svg version="1.1" xmlns="http://www.w3.org/2000/svg" xmlns:xlink="http://www.w3.org/1999/xlink" width="159.6289" height="122.02774" viewBox="0,0,159.6289,122.02774"><defs><radialGradient cx="188.97336" cy="208.79575" r="7.4197" gradientUnits="userSpaceOnUse" id="color-1"><stop offset="0" stop-color="#555454"/><stop offset="1" stop-color="#555454" stop-opacity="0"/></radialGradient><radialGradient cx="194.43666" cy="210.79905" r="2.6215" gradientUnits="userSpaceOnUse" id="color-2"><stop offset="0" stop-color="#555454"/><stop offset="1" stop-color="#555454" stop-opacity="0"/></radialGradient><radialGradient cx="275.97336" cy="208.79575" r="7.4197" gradientUnits="userSpaceOnUse" id="color-3"><stop offset="0" stop-color="#555454"/><stop offset="1" stop-color="#555454" stop-opacity="0"/></radialGradient><radialGradient cx="281.43666" cy="210.79905" r="2.6215" gradientUnits="userSpaceOnUse" id="color-4"><stop offset="0" stop-color="#555454"/><stop offset="1" stop-color="#555454" stop-opacity="0"/></radialGradient></defs><g transform="translate(-160.08666,-119.00031)"><g data-paper-data="{&quot;isPaintingLayer&quot;:true}" fill-rule="nonzero" stroke-linejoin="miter" stroke-miterlimit="10" stroke-dasharray="" stroke-dashoffset="0" style="mix-blend-mode: normal"><path d="M209.73746,181.55465c4.1506,2.2068 7.8317,5.319 11.455,7.9898c2.1917,1.6191 5.7078,2.5493 6.4273,5.0618c0.6129,1.9605 -1.8931,3.731 -3.5973,4.4966c-0.9193,0.4233 -1.8462,-0.4663 -2.9507,-1.0262c-2.4127,-1.2319 -5.0386,-2.331 -6.9068,-4.3068c-1.9131,-2.0212 -3.3266,-4.5003 -4.7312,-6.8984c-0.536,-1.2892 -1.2207,-2.6861 -1.0328,-4.0464c0.1278,-0.6801 0.3687,-1.7526 1.3365,-1.2704z" fill="#d99a85" stroke="#000000" stroke-width="2" stroke-linecap="round"/><path d="M168.68666,159.47805c2.014,0 3.839,0.818 5.161,2.139c1.321,1.322 2.139,3.147 2.139,5.161c0,2.014 -0.818,3.839 -2.139,5.161c-1.322,1.321 -3.147,2.139 -5.161,2.139c-2.014,0 -3.839,-0.818 -5.161,-2.139c-1.321,-1.322 -2.139,-3.147 -2.139,-5.161c0,-2.014 0.818,-3.839 2.139,-5.161c1.322,-1.321 3.147,-2.139 5.161,-2.139z" fill="#663b00" stroke="#000000" stroke-width="2" stroke-linecap="butt"/><path d="M229.31856,194.03045c1.1252,0.6888 2.0133,1.8204 2.397,3.2312c0.3836,1.4107 0.1928,2.8316 -0.4303,4.0001c-0.6184,1.1558 -1.713,2.3437 -3.0036,2.4263c-1.8517,-0.0032 -3.408,-0.3147 -6.2156,-3.8021c-0.1457,-2.1055 0.2508,-3.3492 3.4338,-6.4264c1.2312,-0.4685 2.6928,-0.1167 3.8187,0.5709z" fill="#c0f6d1" stroke="#000000" stroke-width="2" stroke-linecap="round"/><path d="M185.92236,181.37495c0.1879,1.3604 -0.4969,2.7573 -1.0328,4.0465c-1.4046,2.3981 -2.8181,4.8772 -4.7312,6.8984c-1.8682,1.9758 -4.4941,3.0749 -6.9068,4.3067c-1.1045,0.56 -2.0314,1.4495 -2.9507,1.0263c-1.7042,-0.7656 -4.2102,-2.5361 -3.5973,-4.4966c0.7195,-2.5125 4.2356,-3.4427 6.4273,-5.0618c3.6233,-2.6708 7.3044,-5.783 11.455,-7.9898c0.9678,-0.4822 1.2087,0.5902 1.3365,1.2703z" fill="#d99a85" stroke="#000000" stroke-width="2" stroke-linecap="round"/><g stroke="#000000" stroke-width="2"><path d="M207.93666,235.37805h-7.6v-20.4h7.6z" fill="#000000" stroke-linecap="butt"/><path d="M212.98666,239.97805h-12.4v-9.2l7.25,0.15z" fill="#ffffff" stroke-linecap="round"/></g><path d="M168.77346,191.95955c3.1996,3.0807 3.5783,4.3215 3.4338,6.4264c-2.7942,3.4952 -4.362,3.7994 -6.2156,3.8021c-1.2906,-0.0826 -2.3852,-1.2705 -3.0036,-2.4263c-0.6232,-1.1685 -0.814,-2.5894 -0.4303,-4.0001c0.3837,-1.4108 1.2718,-2.5424 2.397,-3.2312c1.1259,-0.6876 2.5875,-1.0394 3.8187,-0.5709z" fill="#c0f6d1" stroke="#000000" stroke-width="2" stroke-linecap="round"/><path d="M196.28666,119.97195c8.856,0 16.881,3.3796 22.692,8.839c5.811,5.4586 9.408,12.998 9.408,21.3186c0,8.3207 -3.597,15.8601 -9.408,21.3186c-5.811,5.4595 -13.836,8.839 -22.692,8.839c-8.856,0 -16.881,-3.3795 -22.692,-8.839c-5.811,-5.4585 -9.408,-12.9979 -9.408,-21.3186c0,-8.3206 3.597,-15.86 9.408,-21.3186c5.811,-5.4594 13.836,-8.839 22.692,-8.839z" fill="#663b00" stroke="#000000" stroke-width="1.94328" stroke-linecap="butt"/><g stroke="#000000" stroke-width="2"><path d="M183.68666,215.02805h7.6v20.4h-7.6z" fill="#000000" stroke-linecap="butt"/><path d="M183.78666,230.97805l7.25,-0.15v9.2h-12.4z" fill="#ffffff" stroke-linecap="round"/></g><path d="M186.73666,171.97805l15,-0.6l8,9.55l10.4,39.6h-46.4l8.6,-40z" fill="#d99a85" stroke="#000000" stroke-width="2" stroke-linecap="round"/><path d="M186.53666,180.52805l5.35,7.45l6.4,0.6l6.45,-8.05l-0.4,16l9.55,26h-35.6l7.65,-25.6z" fill="#f6f6f6" stroke="#000000" stroke-width="2" stroke-linecap="round"/><path d="M179.28666,193.42805h34.2v3.8h-34.2z" fill="#f6f6f6" stroke="#000000" stroke-width="2" stroke-linecap="butt"/><path d="M166.18666,146.97805c1.407,0 2.682,0.712 3.605,1.861c0.924,1.15 1.495,2.737 1.495,4.489c0,1.752 -0.571,3.339 -1.495,4.489c-0.923,1.149 -2.198,1.861 -3.605,1.861c-1.407,0 -2.682,-0.712 -3.605,-1.861c-0.924,-1.15 -1.495,-2.737 -1.495,-4.489c0,-1.752 0.571,-3.339 1.495,-4.489c0.923,-1.149 2.198,-1.861 3.605,-1.861z" fill="#c0f6d1" stroke="#000000" stroke-width="2" stroke-linecap="butt"/><path d="M226.38666,147.72805c1.407,0 2.682,0.712 3.605,1.861c0.924,1.15 1.495,2.737 1.495,4.489c0,1.752 -0.571,3.339 -1.495,4.489c-0.923,1.149 -2.198,1.861 -3.605,1.861c-1.407,0 -2.682,-0.712 -3.605,-1.861c-0.924,-1.15 -1.495,-2.737 -1.495,-4.489c0,-1.752 0.571,-3.339 1.495,-4.489c0.923,-1.149 2.198,-1.861 3.605,-1.861z" fill="#c0f6d1" stroke="#000000" stroke-width="2" stroke-linecap="butt"/><path d="M203.03666,125.77805c4.833,-0.035 9.741,3.091 13.041,7.2c4.491,5.603 8.309,12.134 8.309,19.9c0,7.766 -3.177,14.804 -8.309,19.9c-5.132,5.096 -12.219,8.25 -20.041,8.25c-7.822,0 -15.315,-2.797 -20.041,-8.25c-5.531,-6.393 -9.844,-16.246 -7.959,-24.8c1.684,-7.397 10.601,-11.352 17,-15.6c5.174,-3.427 11.457,-6.854 18,-6.6z" fill="#c0f6d1" stroke="#000000" stroke-width="2" stroke-linecap="butt"/><g stroke-linecap="round"><path d="M209.78666,142.62805c2.569,-0.132 5.436,2.134 6.2,4.6c0.554,1.825 -1.902,3.483 -3.4,4.8c-1.222,0.923 -2.787,1.634 -4.45,1.65c-1.682,0.015 -3.415,-0.599 -4.595,-1.7c-1.091,-1.016 -2.048,-2.765 -1.355,-3.95c1.704,-2.801 4.48,-5.228 7.6,-5.4z" fill="#ffffff" stroke="#000000" stroke-width="2"/><path d="M209.28666,142.42805l0.2,9.4" fill="none" stroke="#000000" stroke-width="2"/><path d="M212.58666,143.42805c0.78,0.19 1.525,0.493 2.05,1.29c0.525,0.796 0.85,1.896 0.85,3.11c0,1.214 -0.325,2.314 -0.85,3.11c-0.525,0.797 -1.265,1.147 -2.05,1.29c-0.776,0.14 -1.897,0.593 -2.35,0.15c-0.783,-1.431 -0.569,-3.042 -0.55,-4.55c0.015,-1.417 -0.366,-3.178 0.35,-4.45c0.549,-0.647 1.808,-0.133 2.55,0.05z" fill="#000000" stroke="none" stroke-width="1"/></g><path d="M188.63666,148.77805c0.693,1.185 -0.264,2.934 -1.355,3.95c-1.18,1.101 -2.913,1.715 -4.595,1.7c-1.663,-0.016 -3.228,-0.727 -4.45,-1.65c-1.498,-1.317 -3.954,-2.975 -3.4,-4.8c0.764,-2.466 3.631,-4.732 6.2,-4.6c3.12,0.172 5.896,2.599 7.6,5.4z" fill="#ffffff" stroke="#000000" stroke-width="2" stroke-linecap="round"/><path d="M182.53666,144.17805l-0.2,9.4" fill="none" stroke="#000000" stroke-width="2" stroke-linecap="round"/><path d="M185.68666,145.17805c0.78,0.19 1.525,0.493 2.05,1.29c0.525,0.796 0.85,1.896 0.85,3.11c0,1.214 -0.325,2.314 -0.85,3.11c-0.525,0.797 -1.265,1.147 -2.05,1.29c-0.776,0.14 -1.897,0.593 -2.35,0.15c-0.783,-1.431 -0.569,-3.042 -0.55,-4.55c0.015,-1.417 -0.366,-3.178 0.35,-4.45c0.549,-0.647 1.808,-0.133 2.55,0.05z" fill="#000000" stroke="none" stroke-width="1" stroke-linecap="round"/><path d="M194.28666,156.82805v-12.6" fill="none" stroke="#000000" stroke-width="2" stroke-linecap="round"/><path d="M202.03666,165.82805l-5.8,3l-6.2,-2.2" fill="none" stroke="#000000" stroke-width="2" stroke-linecap="round"/><path d="M202.88666,136.22805h10.6v2.8h-10.6z" fill="#000000" stroke="none" stroke-width="1" stroke-linecap="butt"/><path d="M177.43666,136.42805h10.6v2.8h-10.6z" fill="#000000" stroke="none" stroke-width="1" stroke-linecap="round"/><path d="M173.73666,157.22805c0.248,0 0.473,0.112 0.636,0.293c0.163,0.181 0.264,0.431 0.264,0.707c0,0.276 -0.101,0.526 -0.264,0.707c-0.163,0.181 -0.388,0.293 -0.636,0.293c-0.248,0 -0.473,-0.112 -0.636,-0.293c-0.163,-0.181 -0.264,-0.431 -0.264,-0.707c0,-0.276 0.101,-0.526 0.264,-0.707c0.163,-0.181 0.388,-0.293 0.636,-0.293z" fill="#000000" stroke="none" stroke-width="1" stroke-linecap="butt"/><path d="M189.03666,204.92805c1.091,-0.338 2.629,-3.085 2.6,-2.4c0.029,1.876 -2.318,4.962 -2.6,7.6c-0.091,1.008 0.987,1.579 1,2.4c0.149,0.612 -0.083,1.795 -0.55,1.55c-1.254,-0.755 -1.766,-2.945 -2.85,-4.55c-0.446,-0.265 -1.612,-0.042 -1.65,-0.95c-0.07,-1.392 0.367,-2.931 1.319,-3.888c0.689,-0.705 1.864,0.495 2.731,0.238z" fill="url(#color-1)" stroke="none" stroke-width="1" stroke-linecap="round"/><path d="M194.43666,208.22805c0.331,0 0.631,0.28 0.848,0.733c0.218,0.452 0.352,1.077 0.352,1.767c0,0.69 -0.134,1.315 -0.352,1.767c-0.217,0.453 -0.517,0.733 -0.848,0.733c-0.331,0 -0.631,-0.28 -0.848,-0.733c-0.218,-0.452 -0.352,-1.077 -0.352,-1.767c0,-0.69 0.134,-1.315 0.352,-1.767c0.217,-0.453 0.517,-0.733 0.848,-0.733z" fill="url(#color-2)" stroke="none" stroke-width="1" stroke-linecap="butt"/><path d="M296.73746,181.55465c4.1506,2.2068 7.8317,5.319 11.455,7.9898c2.1917,1.6191 5.7078,2.5493 6.4273,5.0618c0.6129,1.9605 -1.8931,3.731 -3.5973,4.4966c-0.9193,0.4233 -1.8462,-0.4663 -2.9507,-1.0262c-2.4127,-1.2319 -5.0386,-2.331 -6.9068,-4.3068c-1.9131,-2.0212 -3.3266,-4.5003 -4.7312,-6.8984c-0.536,-1.2892 -1.2207,-2.6861 -1.0328,-4.0464c0.1278,-0.6801 0.3687,-1.7526 1.3365,-1.2704z" fill="#d99a85" stroke="#000000" stroke-width="2" stroke-linecap="round"/><path d="M255.68666,159.47805c2.014,0 3.839,0.818 5.161,2.139c1.321,1.322 2.139,3.147 2.139,5.161c0,2.014 -0.818,3.839 -2.139,5.161c-1.322,1.321 -3.147,2.139 -5.161,2.139c-2.014,0 -3.839,-0.818 -5.161,-2.139c-1.321,-1.322 -2.139,-3.147 -2.139,-5.161c0,-2.014 0.818,-3.839 2.139,-5.161c1.322,-1.321 3.147,-2.139 5.161,-2.139z" fill="#663b00" stroke="#000000" stroke-width="2" stroke-linecap="butt"/><path d="M316.31856,194.03045c1.1252,0.6888 2.0133,1.8204 2.397,3.2312c0.3836,1.4107 0.1928,2.8316 -0.4303,4.0001c-0.6184,1.1558 -1.713,2.3437 -3.0036,2.4263c-1.8517,-0.0032 -3.408,-0.3147 -6.2156,-3.8021c-0.1457,-2.1055 0.2508,-3.3492 3.4338,-6.4264c1.2312,-0.4685 2.6928,-0.1167 3.8187,0.5709z" fill="#c0f6d1" stroke="#000000" stroke-width="2" stroke-linecap="round"/><path d="M272.92236,181.37495c0.1879,1.3604 -0.4969,2.7573 -1.0328,4.0465c-1.4046,2.3981 -2.8181,4.8772 -4.7312,6.8984c-1.8682,1.9758 -4.4941,3.0749 -6.9068,4.3067c-1.1045,0.56 -2.0314,1.4495 -2.9507,1.0263c-1.7042,-0.7656 -4.2102,-2.5361 -3.5973,-4.4966c0.7195,-2.5125 4.2356,-3.4427 6.4273,-5.0618c3.6233,-2.6708 7.3044,-5.783 11.455,-7.9898c0.9678,-0.4822 1.2087,0.5902 1.3365,1.2703z" fill="#d99a85" stroke="#000000" stroke-width="2" stroke-linecap="round"/><g stroke="#000000" stroke-width="2"><path d="M294.93666,235.37805h-7.6v-20.4h7.6z" fill="#000000" stroke-linecap="butt"/><path d="M299.98666,239.97805h-12.4v-9.2l7.25,0.15z" fill="#ffffff" stroke-linecap="round"/></g><path d="M255.77346,191.95955c3.1996,3.0807 3.5783,4.3215 3.4338,6.4264c-2.7942,3.4952 -4.362,3.7994 -6.2156,3.8021c-1.2906,-0.0826 -2.3852,-1.2705 -3.0036,-2.4263c-0.6232,-1.1685 -0.814,-2.5894 -0.4303,-4.0001c0.3837,-1.4108 1.2718,-2.5424 2.397,-3.2312c1.1259,-0.6876 2.5875,-1.0394 3.8187,-0.5709z" fill="#c0f6d1" stroke="#000000" stroke-width="2" stroke-linecap="round"/><path d="M283.28666,119.97195c8.856,0 16.881,3.3796 22.692,8.839c5.811,5.4586 9.408,12.998 9.408,21.3186c0,8.3207 -3.597,15.8601 -9.408,21.3186c-5.811,5.4595 -13.836,8.839 -22.692,8.839c-8.856,0 -16.881,-3.3795 -22.692,-8.839c-5.811,-5.4585 -9.408,-12.9979 -9.408,-21.3186c0,-8.3206 3.597,-15.86 9.408,-21.3186c5.811,-5.4594 13.836,-8.839 22.692,-8.839z" fill="#663b00" stroke="#000000" stroke-width="1.94328" stroke-linecap="butt"/><g stroke="#000000" stroke-width="2"><path d="M270.68666,215.02805h7.6v20.4h-7.6z" fill="#000000" stroke-linecap="butt"/><path d="M270.78666,230.97805l7.25,-0.15v9.2h-12.4z" fill="#ffffff" stroke-linecap="round"/></g><path d="M273.73666,171.97805l15,-0.6l8,9.55l10.4,39.6h-46.4l8.6,-40z" fill="#d99a85" stroke="#000000" stroke-width="2" stroke-linecap="round"/><path d="M273.53666,180.52805l5.35,7.45l6.4,0.6l6.45,-8.05l-0.4,16l9.55,26h-35.6l7.65,-25.6z" fill="#f6f6f6" stroke="#000000" stroke-width="2" stroke-linecap="round"/><path d="M266.28666,193.42805h34.2v3.8h-34.2z" fill="#f6f6f6" stroke="#000000" stroke-width="2" stroke-linecap="butt"/><path d="M253.18666,146.97805c1.407,0 2.682,0.712 3.605,1.861c0.924,1.15 1.495,2.737 1.495,4.489c0,1.752 -0.571,3.339 -1.495,4.489c-0.923,1.149 -2.198,1.861 -3.605,1.861c-1.407,0 -2.682,-0.712 -3.605,-1.861c-0.924,-1.15 -1.495,-2.737 -1.495,-4.489c0,-1.752 0.571,-3.339 1.495,-4.489c0.923,-1.149 2.198,-1.861 3.605,-1.861z" fill="#c0f6d1" stroke="#000000" stroke-width="2" stroke-linecap="butt"/><path d="M313.38666,147.72805c1.407,0 2.682,0.712 3.605,1.861c0.924,1.15 1.495,2.737 1.495,4.489c0,1.752 -0.571,3.339 -1.495,4.489c-0.923,1.149 -2.198,1.861 -3.605,1.861c-1.407,0 -2.682,-0.712 -3.605,-1.861c-0.924,-1.15 -1.495,-2.737 -1.495,-4.489c0,-1.752 0.571,-3.339 1.495,-4.489c0.923,-1.149 2.198,-1.861 3.605,-1.861z" fill="#c0f6d1" stroke="#000000" stroke-width="2" stroke-linecap="butt"/><path d="M290.03666,125.77805c4.833,-0.035 9.741,3.091 13.041,7.2c4.491,5.603 8.309,12.134 8.309,19.9c0,7.766 -3.177,14.804 -8.309,19.9c-5.132,5.096 -12.219,8.25 -20.041,8.25c-7.822,0 -15.315,-2.797 -20.041,-8.25c-5.531,-6.393 -9.844,-16.246 -7.959,-24.8c1.684,-7.397 10.601,-11.352 17,-15.6c5.174,-3.427 11.457,-6.854 18,-6.6z" fill="#c0f6d1" stroke="#000000" stroke-width="2" stroke-linecap="butt"/><g stroke-linecap="round"><path d="M296.78666,142.62805c2.569,-0.132 5.436,2.134 6.2,4.6c0.554,1.825 -1.902,3.483 -3.4,4.8c-1.222,0.923 -2.787,1.634 -4.45,1.65c-1.682,0.015 -3.415,-0.599 -4.595,-1.7c-1.091,-1.016 -2.048,-2.765 -1.355,-3.95c1.704,-2.801 4.48,-5.228 7.6,-5.4z" fill="#ffffff" stroke="#000000" stroke-width="2"/><path d="M296.48666,151.82805l-0.2,-9.4" fill="none" stroke="#000000" stroke-width="2"/><path d="M299.58666,143.42805c0.78,0.19 1.525,0.493 2.05,1.29c0.525,0.796 0.85,1.896 0.85,3.11c0,1.214 -0.325,2.314 -0.85,3.11c-0.525,0.797 -1.265,1.147 -2.05,1.29c-0.776,0.14 -1.897,0.593 -2.35,0.15c-0.783,-1.431 -0.569,-3.042 -0.55,-4.55c0.015,-1.417 -0.366,-3.178 0.35,-4.45c0.549,-0.647 1.808,-0.133 2.55,0.05z" fill="#000000" stroke="none" stroke-width="1"/></g><path d="M275.63666,148.77805c0.693,1.185 -0.264,2.934 -1.355,3.95c-1.18,1.101 -2.913,1.715 -4.595,1.7c-1.663,-0.016 -3.228,-0.727 -4.45,-1.65c-1.498,-1.317 -3.954,-2.975 -3.4,-4.8c0.764,-2.466 3.631,-4.732 6.2,-4.6c3.12,0.172 5.896,2.599 7.6,5.4z" fill="#ffffff" stroke="#000000" stroke-width="2" stroke-linecap="round"/><path d="M269.53666,144.17805l-0.2,9.4" fill="none" stroke="#000000" stroke-width="2" stroke-linecap="round"/><path d="M272.68666,145.17805c0.78,0.19 1.525,0.493 2.05,1.29c0.525,0.796 0.85,1.896 0.85,3.11c0,1.214 -0.325,2.314 -0.85,3.11c-0.525,0.797 -1.265,1.147 -2.05,1.29c-0.776,0.14 -1.897,0.593 -2.35,0.15c-0.783,-1.431 -0.569,-3.042 -0.55,-4.55c0.015,-1.417 -0.366,-3.178 0.35,-4.45c0.549,-0.647 1.808,-0.133 2.55,0.05z" fill="#000000" stroke="none" stroke-width="1" stroke-linecap="round"/><path d="M281.28666,156.82805v-12.6" fill="none" stroke="#000000" stroke-width="2" stroke-linecap="round"/><path d="M289.88666,136.22805h10.6v2.8h-10.6z" fill="#000000" stroke="none" stroke-width="1" stroke-linecap="butt"/><path d="M264.43666,136.42805h10.6v2.8h-10.6z" fill="#000000" stroke="none" stroke-width="1" stroke-linecap="round"/><path d="M260.73666,157.22805c0.248,0 0.473,0.112 0.636,0.293c0.163,0.181 0.264,0.431 0.264,0.707c0,0.276 -0.101,0.526 -0.264,0.707c-0.163,0.181 -0.388,0.293 -0.636,0.293c-0.248,0 -0.473,-0.112 -0.636,-0.293c-0.163,-0.181 -0.264,-0.431 -0.264,-0.707c0,-0.276 0.101,-0.526 0.264,-0.707c0.163,-0.181 0.388,-0.293 0.636,-0.293z" fill="#000000" stroke="none" stroke-width="1" stroke-linecap="butt"/><path d="M276.03666,204.92805c1.091,-0.338 2.629,-3.085 2.6,-2.4c0.029,1.876 -2.318,4.962 -2.6,7.6c-0.091,1.008 0.987,1.579 1,2.4c0.149,0.612 -0.083,1.795 -0.55,1.55c-1.254,-0.755 -1.766,-2.945 -2.85,-4.55c-0.446,-0.265 -1.612,-0.042 -1.65,-0.95c-0.07,-1.392 0.367,-2.931 1.319,-3.888c0.689,-0.705 1.864,0.495 2.731,0.238z" fill="url(#color-3)" stroke="none" stroke-width="1" stroke-linecap="round"/><path d="M281.43666,208.22805c0.331,0 0.631,0.28 0.848,0.733c0.218,0.452 0.352,1.077 0.352,1.767c0,0.69 -0.134,1.315 -0.352,1.767c-0.217,0.453 -0.517,0.733 -0.848,0.733c-0.331,0 -0.631,-0.28 -0.848,-0.733c-0.218,-0.452 -0.352,-1.077 -0.352,-1.767c0,-0.69 0.134,-1.315 0.352,-1.767c0.217,-0.453 0.517,-0.733 0.848,-0.733z" fill="url(#color-4)" stroke="none" stroke-width="1" stroke-linecap="butt"/><path d="M286.93192,166.83537h-9.15" fill="none" stroke="#000000" stroke-width="2" stroke-linecap="round"/></g></g></svg>