<svg version="1.1" xmlns="http://www.w3.org/2000/svg" xmlns:xlink="http://www.w3.org/1999/xlink" width="143.55" height="123.15" viewBox="0,0,143.55,123.15"><g transform="translate(-168.225,-118.425)"><g data-paper-data="{&quot;isPaintingLayer&quot;:true}" fill-rule="nonzero" stroke-linejoin="miter" stroke-miterlimit="10" stroke-dasharray="" stroke-dashoffset="0" style="mix-blend-mode: normal"><path d="M201.625,119.425c7.863,0 14.988,3.967 20.147,10.375c5.159,6.408 7.73,16.261 8.353,25.025c0.767,10.763 2.665,23.998 -4.2,32.6c-5.092,6.251 -16.161,2.578 -24.3,2.8c-7.717,0.211 -18.156,3.913 -23.1,-2c-6.929,-8.834 -5.874,-22.281 -5.4,-33.4c0.372,-8.781 3.194,-18.617 8.353,-25.025c5.159,-6.408 12.284,-10.375 20.147,-10.375z" fill="#b5a24e" stroke="#000000" stroke-width="2" stroke-linecap="round"/><g stroke="#000000" stroke-width="2"><path d="M213.825,235.925h-7.6v-20.4h7.6z" fill="#000000" stroke-linecap="butt"/><path d="M218.875,240.525h-12.4l-0.55,-4.6l9,-0.6z" fill="#8a4e01" stroke-linecap="round"/></g><g stroke="#000000" stroke-width="2" stroke-linecap="round"><path d="M190.9851,180.8394c0.5204,1.2709 0.2047,2.7942 0.0063,4.1762c-0.7639,2.6721 -1.5164,5.4249 -2.8665,7.8584c-1.3181,2.3785 -3.5879,4.0962 -5.6184,5.8895c-0.9305,0.8171 -1.607,1.9093 -2.6027,1.728c-1.8411,-0.3176 -4.7087,-1.4091 -4.6028,-3.4604c0.072,-2.6125 3.2461,-4.3881 4.9662,-6.5015c2.8451,-3.4882 5.6362,-7.4182 9.1075,-10.5881c0.8175,-0.7078 1.3175,0.271 1.6104,0.8979z" fill="#c49c76"/><path d="M177.0748,195.324c3.8484,2.1887 4.5418,3.2946 4.9244,5.3702c-1.8518,4.0762 -3.2817,4.7651 -5.0745,5.2287c-1.2705,0.2411 -2.6262,-0.6372 -3.5126,-1.6028c-0.8943,-0.9768 -1.4326,-2.3055 -1.4119,-3.7674c0.0207,-1.4618 0.5994,-2.7788 1.5179,-3.7259c0.9195,-0.9461 2.2476,-1.6503 3.5567,-1.5028z" fill="#ffcccc"/></g><g stroke="#000000" stroke-width="2" stroke-linecap="round"><path d="M215.0753,181.0415c3.4713,3.1699 6.2624,7.0999 9.1075,10.5881c1.7201,2.1134 4.8942,3.889 4.9662,6.5015c0.1059,2.0513 -2.7617,3.1428 -4.6028,3.4604c-0.9957,0.1813 -1.6722,-0.9109 -2.6027,-1.728c-2.0305,-1.7933 -4.3003,-3.511 -5.6184,-5.8895c-1.3501,-2.4335 -2.1026,-5.1863 -2.8665,-7.8584c-0.1984,-1.382 -0.5141,-2.9053 0.0063,-4.1762c0.2929,-0.6269 0.7929,-1.6057 1.6104,-0.8979z" fill="#c49c76"/><path d="M230.9319,197.9268c0.9185,0.9471 1.4972,2.2641 1.5179,3.7259c0.0207,1.4619 -0.5176,2.7906 -1.4119,3.7674c-0.8864,0.9656 -2.2421,1.8439 -3.5126,1.6028c-1.7928,-0.4636 -3.2227,-1.1525 -5.0745,-5.2287c0.3826,-2.0756 1.076,-3.1815 4.9244,-5.3702c1.3091,-0.1475 2.6372,0.5567 3.5567,1.5028z" fill="#ffcccc"/></g><g stroke="#000000" stroke-width="2"><path d="M189.575,215.575h7.6v20.4h-7.6z" fill="#000000" stroke-linecap="butt"/><path d="M188.525,235.525h8.6l-0.2,5.05h-12.4z" fill="#8a4e01" stroke-linecap="round"/></g><path d="M192.625,172.525l15,-0.6l8,9.55l10.4,39.6h-46.4l8.6,-40z" fill="#c49c76" stroke="#000000" stroke-width="2" stroke-linecap="round"/><path d="M174.325,149.525c1.407,0 2.682,0.712 3.605,1.861c0.924,1.15 1.495,2.737 1.495,4.489c0,1.752 -0.571,3.339 -1.495,4.489c-0.923,1.149 -2.198,1.861 -3.605,1.861c-1.407,0 -2.682,-0.712 -3.605,-1.861c-0.924,-1.15 -1.495,-2.737 -1.495,-4.489c0,-1.752 0.571,-3.339 1.495,-4.489c0.923,-1.149 2.198,-1.861 3.605,-1.861z" fill="#ffcccc" stroke="#000000" stroke-width="2" stroke-linecap="butt"/><path d="M201.975,175.025c1.379,0 2.629,0.459 3.535,1.202c0.905,0.742 1.465,1.767 1.465,2.898c0,1.131 -0.56,2.156 -1.465,2.898c-0.906,0.743 -2.156,1.202 -3.535,1.202c-1.379,0 -2.629,-0.459 -3.535,-1.202c-0.905,-0.742 -1.465,-1.767 -1.465,-2.898c0,-1.131 0.56,-2.156 1.465,-2.898c0.906,-0.743 2.156,-1.202 3.535,-1.202z" fill="#ffcccc" stroke="#000000" stroke-width="2" stroke-linecap="butt"/><path d="M229.675,149.675c1.407,0 2.682,0.712 3.605,1.861c0.924,1.15 1.495,2.737 1.495,4.489c0,1.752 -0.571,3.339 -1.495,4.489c-0.923,1.149 -2.198,1.861 -3.605,1.861c-1.407,0 -2.682,-0.712 -3.605,-1.861c-0.924,-1.15 -1.495,-2.737 -1.495,-4.489c0,-1.752 0.571,-3.339 1.495,-4.489c0.923,-1.149 2.198,-1.861 3.605,-1.861z" fill="#ffcccc" stroke="#000000" stroke-width="2" stroke-linecap="butt"/><path d="M183.925,138.425c3.18,-1.159 6.859,0.242 10.4,0c0.759,0.034 0.944,0.574 2,-0.6c3.51,-4.234 3.625,-12.837 9.2,-13.8c6.231,-1.075 13.292,4.089 16.441,9.5c5.089,8.743 6.166,19.718 6.159,29.75c0.007,4.018 -2.884,7.946 -6.159,10.05c-5.894,3.787 -12.893,6.298 -19.841,6.1c-7.084,0.198 -14.163,-2.43 -20.241,-6.1c-3.055,-1.845 -5.584,-5.319 -5.959,-8.85c-0.712,-6.74 0.079,-13.683 2.2,-20.05c0.912,-2.704 3.189,-5.049 5.8,-6z" fill="#ffcccc" stroke="#000000" stroke-width="2" stroke-linecap="butt"/><g><path d="M187.725,146.375c2.124,0 4.049,0.84 5.443,2.198c1.394,1.358 2.257,3.233 2.257,5.302c0,2.069 -0.863,3.944 -2.257,5.302c-1.394,1.358 -3.319,2.198 -5.443,2.198c-2.124,0 -4.049,-0.84 -5.443,-2.198c-1.394,-1.358 -2.257,-3.233 -2.257,-5.302c0,-2.069 0.863,-3.944 2.257,-5.302c1.394,-1.358 3.319,-2.198 5.443,-2.198z" fill="#ffffff" stroke="#000000" stroke-width="2" stroke-linecap="butt"/><path d="M189.375,145.675c0.47,8.795 1.626,12.483 -0.4,15.6c-1.267,1.61 -4.622,-0.739 -6.231,-2.152c-1.42,-1.247 -2.041,-3.327 -2.169,-5.248c0.128,-1.677 0.959,-3.448 2.169,-4.648c1.698,-1.672 5.078,-4.727 6.631,-3.552z" fill="#000000" stroke="none" stroke-width="1" stroke-linecap="round"/></g><g><path d="M216.275,145.425c2.124,0 4.049,0.84 5.443,2.198c1.394,1.358 2.257,3.233 2.257,5.302c0,2.069 -0.863,3.944 -2.257,5.302c-1.394,1.358 -3.319,2.198 -5.443,2.198c-2.124,0 -4.049,-0.84 -5.443,-2.198c-1.394,-1.358 -2.257,-3.233 -2.257,-5.302c0,-2.069 0.863,-3.944 2.257,-5.302c1.394,-1.358 3.319,-2.198 5.443,-2.198z" fill="#ffffff" stroke="#000000" stroke-width="2" stroke-linecap="butt"/><path d="M217.925,144.725c0.47,8.795 1.626,12.483 -0.4,15.6c-1.267,1.61 -4.622,-0.739 -6.231,-2.152c-1.42,-1.247 -2.041,-3.327 -2.169,-5.248c0.128,-1.677 0.959,-3.448 2.169,-4.648c1.698,-1.672 5.078,-4.727 6.631,-3.552z" fill="#000000" stroke="none" stroke-width="1" stroke-linecap="round"/></g><path d="M201.369,161.4783l0.033,-12.0598" fill="none" stroke="#000000" stroke-width="2" stroke-linecap="round"/><path d="M207.67263,170.125c0,0 -2.754,4.334 -5,4.6c-2.434,0.29 -6.05,-3.65 -6.05,-3.65" fill="none" stroke="#000000" stroke-width="2" stroke-linecap="round"/><path d="M183.125,140.775h10.2v2.6h-10.2z" fill="#000000" stroke="none" stroke-width="1" stroke-linecap="butt"/><path d="M210.075,140.225h10.2v2.6h-10.2z" fill="#000000" stroke="none" stroke-width="1" stroke-linecap="round"/><path d="M187.525,196.925l28.4,-0.4l3.4,26.4l-34.4,0.6z" fill="#e38262" stroke="#000000" stroke-width="2" stroke-linecap="round"/><path d="M184.975,193.975h34v1.4h-34z" fill="none" stroke="#000000" stroke-width="2" stroke-linecap="butt"/><path d="M277.625,119.425c7.863,0 14.988,3.967 20.147,10.375c5.159,6.408 7.73,16.261 8.353,25.025c0.767,10.763 2.665,23.998 -4.2,32.6c-5.092,6.251 -16.161,2.578 -24.3,2.8c-7.717,0.211 -18.156,3.913 -23.1,-2c-6.929,-8.834 -5.874,-22.281 -5.4,-33.4c0.372,-8.781 3.194,-18.617 8.353,-25.025c5.159,-6.408 12.284,-10.375 20.147,-10.375z" fill="#b5a24e" stroke="#000000" stroke-width="2" stroke-linecap="round"/><g stroke="#000000" stroke-width="2"><path d="M289.825,235.925h-7.6v-20.4h7.6z" fill="#000000" stroke-linecap="butt"/><path d="M294.875,240.525h-12.4l-0.55,-4.6l9,-0.6z" fill="#8a4e01" stroke-linecap="round"/></g><g stroke="#000000" stroke-width="2" stroke-linecap="round"><path d="M266.9851,180.8394c0.5204,1.2709 0.2047,2.7942 0.0063,4.1762c-0.7639,2.6721 -1.5164,5.4249 -2.8665,7.8584c-1.3181,2.3785 -3.5879,4.0962 -5.6184,5.8895c-0.9305,0.8171 -1.607,1.9093 -2.6027,1.728c-1.8411,-0.3176 -4.7087,-1.4091 -4.6028,-3.4604c0.072,-2.6125 3.2461,-4.3881 4.9662,-6.5015c2.8451,-3.4882 5.6362,-7.4182 9.1075,-10.5881c0.8175,-0.7078 1.3175,0.271 1.6104,0.8979z" fill="#c49c76"/><path d="M253.0748,195.324c3.8484,2.1887 4.5418,3.2946 4.9244,5.3702c-1.8518,4.0762 -3.2817,4.7651 -5.0745,5.2287c-1.2705,0.2411 -2.6262,-0.6372 -3.5126,-1.6028c-0.8943,-0.9768 -1.4326,-2.3055 -1.4119,-3.7674c0.0207,-1.4618 0.5994,-2.7788 1.5179,-3.7259c0.9195,-0.9461 2.2476,-1.6503 3.5567,-1.5028z" fill="#ffcccc"/></g><g stroke="#000000" stroke-width="2" stroke-linecap="round"><path d="M291.0753,181.0415c3.4713,3.1699 6.2624,7.0999 9.1075,10.5881c1.7201,2.1134 4.8942,3.889 4.9662,6.5015c0.1059,2.0513 -2.7617,3.1428 -4.6028,3.4604c-0.9957,0.1813 -1.6722,-0.9109 -2.6027,-1.728c-2.0305,-1.7933 -4.3003,-3.511 -5.6184,-5.8895c-1.3501,-2.4335 -2.1026,-5.1863 -2.8665,-7.8584c-0.1984,-1.382 -0.5141,-2.9053 0.0063,-4.1762c0.2929,-0.6269 0.7929,-1.6057 1.6104,-0.8979z" fill="#c49c76"/><path d="M306.9319,197.9268c0.9185,0.9471 1.4972,2.2641 1.5179,3.7259c0.0207,1.4619 -0.5176,2.7906 -1.4119,3.7674c-0.8864,0.9656 -2.2421,1.8439 -3.5126,1.6028c-1.7928,-0.4636 -3.2227,-1.1525 -5.0745,-5.2287c0.3826,-2.0756 1.076,-3.1815 4.9244,-5.3702c1.3091,-0.1475 2.6372,0.5567 3.5567,1.5028z" fill="#ffcccc"/></g><g stroke="#000000" stroke-width="2"><path d="M265.575,215.575h7.6v20.4h-7.6z" fill="#000000" stroke-linecap="butt"/><path d="M264.525,235.525h8.6l-0.2,5.05h-12.4z" fill="#8a4e01" stroke-linecap="round"/></g><path d="M268.625,172.525l15,-0.6l8,9.55l10.4,39.6h-46.4l8.6,-40z" fill="#c49c76" stroke="#000000" stroke-width="2" stroke-linecap="round"/><path d="M250.325,149.525c1.407,0 2.682,0.712 3.605,1.861c0.924,1.15 1.495,2.737 1.495,4.489c0,1.752 -0.571,3.339 -1.495,4.489c-0.923,1.149 -2.198,1.861 -3.605,1.861c-1.407,0 -2.682,-0.712 -3.605,-1.861c-0.924,-1.15 -1.495,-2.737 -1.495,-4.489c0,-1.752 0.571,-3.339 1.495,-4.489c0.923,-1.149 2.198,-1.861 3.605,-1.861z" fill="#ffcccc" stroke="#000000" stroke-width="2" stroke-linecap="butt"/><path d="M277.975,175.025c1.379,0 2.629,0.459 3.535,1.202c0.905,0.742 1.465,1.767 1.465,2.898c0,1.131 -0.56,2.156 -1.465,2.898c-0.906,0.743 -2.156,1.202 -3.535,1.202c-1.379,0 -2.629,-0.459 -3.535,-1.202c-0.905,-0.742 -1.465,-1.767 -1.465,-2.898c0,-1.131 0.56,-2.156 1.465,-2.898c0.906,-0.743 2.156,-1.202 3.535,-1.202z" fill="#ffcccc" stroke="#000000" stroke-width="2" stroke-linecap="butt"/><path d="M305.675,149.675c1.407,0 2.682,0.712 3.605,1.861c0.924,1.15 1.495,2.737 1.495,4.489c0,1.752 -0.571,3.339 -1.495,4.489c-0.923,1.149 -2.198,1.861 -3.605,1.861c-1.407,0 -2.682,-0.712 -3.605,-1.861c-0.924,-1.15 -1.495,-2.737 -1.495,-4.489c0,-1.752 0.571,-3.339 1.495,-4.489c0.923,-1.149 2.198,-1.861 3.605,-1.861z" fill="#ffcccc" stroke="#000000" stroke-width="2" stroke-linecap="butt"/><path d="M259.925,138.425c3.18,-1.159 6.859,0.242 10.4,0c0.759,0.034 0.944,0.574 2,-0.6c3.51,-4.234 3.625,-12.837 9.2,-13.8c6.231,-1.075 13.292,4.089 16.441,9.5c5.089,8.743 6.166,19.718 6.159,29.75c0.007,4.018 -2.884,7.946 -6.159,10.05c-5.894,3.787 -12.893,6.298 -19.841,6.1c-7.084,0.198 -14.163,-2.43 -20.241,-6.1c-3.055,-1.845 -5.584,-5.319 -5.959,-8.85c-0.712,-6.74 0.079,-13.683 2.2,-20.05c0.912,-2.704 3.189,-5.049 5.8,-6z" fill="#ffcccc" stroke="#000000" stroke-width="2" stroke-linecap="butt"/><g><path d="M263.725,146.375c2.124,0 4.049,0.84 5.443,2.198c1.394,1.358 2.257,3.233 2.257,5.302c0,2.069 -0.863,3.944 -2.257,5.302c-1.394,1.358 -3.319,2.198 -5.443,2.198c-2.124,0 -4.049,-0.84 -5.443,-2.198c-1.394,-1.358 -2.257,-3.233 -2.257,-5.302c0,-2.069 0.863,-3.944 2.257,-5.302c1.394,-1.358 3.319,-2.198 5.443,-2.198z" fill="#ffffff" stroke="#000000" stroke-width="2" stroke-linecap="butt"/><path d="M265.375,145.675c0.47,8.795 1.626,12.483 -0.4,15.6c-1.267,1.61 -4.622,-0.739 -6.231,-2.152c-1.42,-1.247 -2.041,-3.327 -2.169,-5.248c0.128,-1.677 0.959,-3.448 2.169,-4.648c1.698,-1.672 5.078,-4.727 6.631,-3.552z" fill="#000000" stroke="none" stroke-width="1" stroke-linecap="round"/></g><g><path d="M292.275,145.425c2.124,0 4.049,0.84 5.443,2.198c1.394,1.358 2.257,3.233 2.257,5.302c0,2.069 -0.863,3.944 -2.257,5.302c-1.394,1.358 -3.319,2.198 -5.443,2.198c-2.124,0 -4.049,-0.84 -5.443,-2.198c-1.394,-1.358 -2.257,-3.233 -2.257,-5.302c0,-2.069 0.863,-3.944 2.257,-5.302c1.394,-1.358 3.319,-2.198 5.443,-2.198z" fill="#ffffff" stroke="#000000" stroke-width="2" stroke-linecap="butt"/><path d="M293.925,144.725c0.47,8.795 1.626,12.483 -0.4,15.6c-1.267,1.61 -4.622,-0.739 -6.231,-2.152c-1.42,-1.247 -2.041,-3.327 -2.169,-5.248c0.128,-1.677 0.959,-3.448 2.169,-4.648c1.698,-1.672 5.078,-4.727 6.631,-3.552z" fill="#000000" stroke="none" stroke-width="1" stroke-linecap="round"/></g><path d="M277.369,161.4783l0.033,-12.0598" fill="none" stroke="#000000" stroke-width="2" stroke-linecap="round"/><path d="M259.125,140.775h10.2v2.6h-10.2z" fill="#000000" stroke="none" stroke-width="1" stroke-linecap="butt"/><path d="M286.075,140.225h10.2v2.6h-10.2z" fill="#000000" stroke="none" stroke-width="1" stroke-linecap="round"/><path d="M263.525,196.925l28.4,-0.4l3.4,26.4l-34.4,0.6z" fill="#e38262" stroke="#000000" stroke-width="2" stroke-linecap="round"/><path d="M260.975,193.975h34v1.4h-34z" fill="none" stroke="#000000" stroke-width="2" stroke-linecap="butt"/><path d="M273.275,171.91789h9.15" fill="none" stroke="#000000" stroke-width="2" stroke-linecap="round"/></g></g></svg>